<svg width="219" height="68" viewBox="0 0 219 68" fill="none" xmlns="http://www.w3.org/2000/svg">
<g clip-path="url(#clip0_2655_6251)">
<path d="M201.124 0.547093H17.8543C17.1863 0.547093 16.5263 0.547093 15.86 0.550443C15.3023 0.553793 14.749 0.563525 14.1859 0.571715C12.9626 0.584951 11.7422 0.683901 10.5352 0.867705C9.33001 1.05551 8.16252 1.40958 7.07228 1.91793C5.98338 2.43058 4.98841 3.09672 4.12348 3.89219C3.25401 4.68541 2.52924 5.60227 1.97704 6.60751C1.42331 7.61075 1.03936 8.68582 0.838435 9.79557C0.635602 10.9039 0.526455 12.0251 0.511975 13.1489C0.495069 13.6625 0.493283 14.1777 0.484375 14.6914V53.4078C0.493283 53.9278 0.495069 54.4317 0.511975 54.9519C0.526459 56.0757 0.635606 57.1968 0.838435 58.3051C1.0388 59.4155 1.42278 60.4912 1.97704 61.4948C2.52899 62.4968 3.25386 63.41 4.12348 64.1988C4.98513 64.9978 5.98074 65.6644 7.07228 66.1731C8.16252 66.6828 9.32987 67.039 10.5352 67.2297C11.7424 67.412 12.9627 67.511 14.1859 67.5258C14.749 67.5372 15.3023 67.5438 15.86 67.5438C16.5262 67.5471 17.1863 67.5471 17.8543 67.5471H201.124C201.779 67.5471 202.444 67.5471 203.099 67.5438C203.654 67.5438 204.223 67.5372 204.778 67.5258C205.999 67.5118 207.217 67.4128 208.422 67.2297C209.631 67.0377 210.803 66.6816 211.898 66.1731C212.989 65.6641 213.984 64.9975 214.844 64.1988C215.712 63.4069 216.438 62.4944 216.997 61.4948C217.547 60.4905 217.927 59.4149 218.125 58.3051C218.328 57.1967 218.441 56.0758 218.463 54.9519C218.47 54.4317 218.47 53.9278 218.47 53.4078C218.484 52.7992 218.484 52.194 218.484 51.5756V16.5201C218.484 15.9067 218.484 15.2982 218.47 14.6914C218.47 14.1777 218.47 13.6625 218.463 13.1489C218.441 12.0249 218.328 10.904 218.125 9.79551C217.927 8.68639 217.547 7.61141 216.997 6.60744C215.873 4.59255 214.089 2.95244 211.898 1.91778C210.803 1.41067 209.631 1.0567 208.422 0.867554C207.218 0.68294 205.999 0.583956 204.778 0.571481C204.223 0.563307 203.654 0.553491 203.099 0.550225C202.444 0.546875 201.779 0.547093 201.124 0.547093Z" fill="#A6A6A6"/>
<path d="M15.8683 66.0805C15.3133 66.0805 14.7716 66.0739 14.2209 66.0625C13.0801 66.0489 11.9419 65.9576 10.8158 65.7893C9.76568 65.6231 8.74843 65.3138 7.79757 64.8716C6.85543 64.4331 5.99612 63.8582 5.25256 63.1688C4.49824 62.4875 3.87024 61.6974 3.39343 60.8297C2.91137 59.9563 2.57776 59.0202 2.40421 58.0539C2.2168 57.0156 2.1154 55.9657 2.10089 54.9132C2.08934 54.56 2.07422 53.3838 2.07422 53.3838V14.6904C2.07422 14.6904 2.09032 13.5323 2.10098 13.192C2.11487 12.1413 2.21568 11.093 2.40254 10.0563C2.5764 9.08734 2.91028 8.1485 3.39259 7.27227C3.86765 6.40515 4.49217 5.61441 5.24194 4.93071C5.99088 4.24051 6.85293 3.66261 7.79668 3.21807C8.74536 2.77735 9.76068 2.47022 10.8086 2.30697C11.9385 2.13707 13.0806 2.04521 14.2254 2.03217L15.8692 2.01172H203.09L204.753 2.03299C205.887 2.04538 207.019 2.13642 208.139 2.30533C209.197 2.47063 210.223 2.7799 211.183 3.22298C213.073 4.11885 214.612 5.53619 215.582 7.27636C216.057 8.14654 216.385 9.07772 216.557 10.0383C216.746 11.0835 216.852 12.14 216.874 13.1994C216.879 13.6737 216.879 14.1833 216.879 14.6904C216.893 15.3185 216.893 15.9163 216.893 16.5191V51.5746C216.893 52.1832 216.893 52.7769 216.879 53.3756C216.879 53.9203 216.879 54.4193 216.872 54.9328C216.851 55.9733 216.747 57.011 216.561 58.0375C216.391 59.0107 216.059 59.9542 215.577 60.8347C215.097 61.693 214.472 62.4763 213.727 63.1557C212.982 63.8488 212.122 64.4271 211.177 64.8684C210.22 65.314 209.196 65.6244 208.139 65.7893C207.012 65.9585 205.874 66.0498 204.733 66.0625C204.2 66.0739 203.641 66.0805 203.098 66.0805L201.124 66.0838L15.8683 66.0805Z" fill="black"/>
<path d="M45.6037 34.55C45.6233 33.152 46.0272 31.7812 46.7778 30.5652C47.5284 29.3492 48.6014 28.3276 49.8968 27.5953C49.0739 26.5147 47.9882 25.6254 46.726 24.998C45.4639 24.3706 44.06 24.0225 42.6259 23.9812C39.5667 23.686 36.6009 25.6643 35.042 25.6643C33.453 25.6643 31.0528 24.0105 28.4682 24.0594C26.7964 24.1091 25.1671 24.5561 23.7391 25.3568C22.311 26.1576 21.1329 27.2848 20.3196 28.6286C16.7963 34.2372 19.4243 42.48 22.7994 47.0135C24.488 49.2335 26.4614 51.7133 29.0437 51.6253C31.5706 51.5289 32.5144 50.1438 35.5645 50.1438C38.5864 50.1438 39.4718 51.6253 42.1065 51.5694C44.818 51.5289 46.5264 49.3396 48.1557 47.0986C49.369 45.5168 50.3025 43.7685 50.9219 41.9186C49.3466 41.306 48.0023 40.2806 47.0566 38.9703C46.1109 37.66 45.6056 36.1226 45.6037 34.55Z" fill="white"/>
<path d="M40.6274 21.0011C42.1058 19.3693 42.8341 17.2719 42.6578 15.1543C40.3991 15.3724 38.3127 16.365 36.8143 17.9341C36.0817 18.7007 35.5206 19.5926 35.1631 20.5587C34.8056 21.5247 34.6586 22.5461 34.7307 23.5645C35.8605 23.5752 36.9781 23.35 37.9995 22.906C39.0209 22.462 39.9194 21.8107 40.6274 21.0011Z" fill="white"/>
<path d="M77.5456 46.0043H68.9225L66.8516 51.6263H63.1992L71.3669 30.8262H75.1617L83.3294 51.6263H79.6147L77.5456 46.0043ZM69.8156 43.41H76.6508L73.2813 34.2858H73.187L69.8156 43.41Z" fill="white"/>
<path d="M100.968 44.0456C100.968 48.7581 98.225 51.7859 94.0851 51.7859C93.0364 51.8363 91.9934 51.6142 91.0756 51.145C90.1578 50.6757 89.4023 49.9784 88.8956 49.1327H88.8172V56.644H85.4316V36.4623H88.7087V38.9846H88.771C89.3011 38.1429 90.0694 37.4492 90.9941 36.9771C91.9189 36.505 92.9656 36.2722 94.0228 36.3036C98.2089 36.3036 100.968 39.3461 100.968 44.0456ZM97.4884 44.0456C97.4884 40.9753 95.7627 38.9568 93.1297 38.9568C90.543 38.9568 88.803 41.0178 88.803 44.0456C88.803 47.1011 90.543 49.1474 93.1297 49.1474C95.7627 49.1474 97.4884 47.1437 97.4884 44.0456Z" fill="white"/>
<path d="M119.121 44.0455C119.121 48.7581 116.377 51.7859 112.237 51.7859C111.189 51.8363 110.146 51.6142 109.228 51.145C108.31 50.6757 107.555 49.9784 107.048 49.1327H106.97V56.644H103.584V36.4622H106.861V38.9845H106.923C107.453 38.1429 108.222 37.4492 109.146 36.9771C110.071 36.505 111.118 36.2722 112.175 36.3036C116.361 36.3036 119.121 39.346 119.121 44.0455ZM115.641 44.0455C115.641 40.9753 113.915 38.9567 111.282 38.9567C108.695 38.9567 106.955 41.0178 106.955 44.0455C106.955 47.1011 108.695 49.1474 111.282 49.1474C113.915 49.1474 115.641 47.1436 115.641 44.0455Z" fill="white"/>
<path d="M131.118 45.832C131.369 47.8947 133.548 49.249 136.526 49.249C139.38 49.249 141.433 47.8946 141.433 46.0348C141.433 44.4203 140.195 43.4536 137.263 42.7911L134.331 42.1417C130.177 41.2191 128.248 39.4329 128.248 36.5344C128.248 32.9455 131.65 30.4805 136.48 30.4805C141.26 30.4805 144.538 32.9455 144.648 36.5344H141.23C141.026 34.4586 139.159 33.2056 136.432 33.2056C133.705 33.2056 131.839 34.4733 131.839 36.3184C131.839 37.789 133.03 38.6543 135.946 39.3167L138.439 39.8794C143.08 40.8886 145.009 42.6029 145.009 45.6454C145.009 49.5368 141.638 51.9741 136.275 51.9741C131.259 51.9741 127.871 49.5941 127.652 45.8318L131.118 45.832Z" fill="white"/>
<path d="M152.319 32.875V36.4638H155.456V38.9289H152.319V47.2892C152.319 48.5879 152.947 49.1932 154.326 49.1932C154.698 49.1872 155.07 49.1632 155.44 49.1211V51.5715C154.82 51.678 154.19 51.7262 153.559 51.7154C150.22 51.7154 148.918 50.5622 148.918 47.6212V38.9289H146.52V36.4638H148.918V32.875H152.319Z" fill="white"/>
<path d="M157.271 44.0471C157.271 39.2757 160.328 36.2773 165.094 36.2773C169.876 36.2773 172.918 39.2756 172.918 44.0471C172.918 48.8317 169.892 51.8169 165.094 51.8169C160.298 51.8169 157.271 48.8317 157.271 44.0471ZM169.469 44.0471C169.469 40.774 167.837 38.8422 165.094 38.8422C162.351 38.8422 160.721 40.7887 160.721 44.0471C160.721 47.3333 162.351 49.2504 165.094 49.2504C167.837 49.2504 169.469 47.3333 169.469 44.0471Z" fill="white"/>
<path d="M175.709 36.4621H178.938V39.0433H179.016C179.235 38.2371 179.748 37.5247 180.471 37.0257C181.193 36.5268 182.081 36.2717 182.984 36.3034C183.374 36.3022 183.763 36.3411 184.144 36.4196V39.3312C183.651 39.1928 183.137 39.1293 182.622 39.1431C182.131 39.1247 181.64 39.2045 181.185 39.3768C180.73 39.5491 180.321 39.81 179.986 40.1415C179.65 40.4729 179.397 40.8672 179.243 41.2971C179.09 41.727 179.039 42.1824 179.095 42.6321V51.6271H175.709L175.709 36.4621Z" fill="white"/>
<path d="M199.753 47.1747C199.298 49.9276 196.382 51.8169 192.651 51.8169C187.853 51.8169 184.875 48.8611 184.875 44.1191C184.875 39.3624 187.869 36.2773 192.509 36.2773C197.072 36.2773 199.942 39.1595 199.942 43.7576V44.8241H188.293V45.0122C188.239 45.5703 188.315 46.1326 188.516 46.6616C188.716 47.1906 189.037 47.6743 189.457 48.0806C189.876 48.4869 190.385 48.8064 190.95 49.018C191.514 49.2295 192.121 49.3283 192.73 49.3077C193.53 49.3766 194.333 49.2062 195.019 48.8219C195.705 48.4376 196.238 47.8599 196.539 47.1746L199.753 47.1747ZM188.309 42.6486H196.555C196.585 42.1467 196.502 41.6446 196.312 41.1735C196.121 40.7025 195.826 40.2728 195.446 39.9114C195.067 39.55 194.61 39.2647 194.104 39.0734C193.599 38.882 193.055 38.7889 192.509 38.7997C191.958 38.7966 191.411 38.894 190.901 39.0862C190.391 39.2784 189.927 39.5616 189.537 39.9194C189.146 40.2773 188.836 40.7027 188.626 41.1711C188.415 41.6395 188.307 42.1416 188.309 42.6486Z" fill="white"/>
<path d="M69.3912 15.1735C70.101 15.1266 70.8133 15.2252 71.4766 15.4621C72.1399 15.699 72.7378 16.0683 73.2271 16.5434C73.7164 17.0185 74.0849 17.5875 74.3061 18.2093C74.5273 18.8312 74.5956 19.4905 74.5061 20.1396C74.5061 23.3325 72.6292 25.1679 69.3912 25.1679H65.4648V15.1735H69.3912ZM67.1532 23.7545H69.2027C69.7098 23.7823 70.2174 23.7059 70.6884 23.5307C71.1594 23.3554 71.582 23.0858 71.9254 22.7415C72.2688 22.3972 72.5243 21.9868 72.6735 21.5402C72.8226 21.0936 72.8615 20.6221 72.7875 20.1599C72.8562 19.6996 72.8133 19.231 72.6618 18.7876C72.5104 18.3443 72.2542 17.9373 71.9116 17.5957C71.569 17.2541 71.1485 16.9865 70.6801 16.8119C70.2118 16.6373 69.7073 16.5601 69.2027 16.5858H67.1532V23.7545Z" fill="white"/>
<path d="M76.4128 21.3939C76.3613 20.8982 76.4229 20.3981 76.5939 19.9257C76.7648 19.4532 77.0413 19.0188 77.4056 18.6503C77.7698 18.2819 78.2138 17.9875 78.709 17.786C79.2043 17.5845 79.7399 17.4805 80.2814 17.4805C80.823 17.4805 81.3586 17.5845 81.8538 17.786C82.349 17.9875 82.793 18.2819 83.1573 18.6503C83.5215 19.0188 83.798 19.4532 83.969 19.9257C84.1399 20.3981 84.2016 20.8982 84.15 21.3939C84.2026 21.8901 84.1416 22.3909 83.9711 22.8641C83.8006 23.3373 83.5243 23.7725 83.16 24.1417C82.7956 24.5109 82.3513 24.8059 81.8556 25.0078C81.3598 25.2097 80.8236 25.314 80.2814 25.314C79.7392 25.314 79.203 25.2097 78.7073 25.0078C78.2115 24.8059 77.7672 24.5109 77.4029 24.1417C77.0385 23.7725 76.7622 23.3373 76.5917 22.8641C76.4212 22.3909 76.3603 21.8901 76.4128 21.3939ZM82.4848 21.3939C82.4848 19.759 81.686 18.8029 80.2841 18.8029C78.8768 18.8029 78.0852 19.759 78.0852 21.3939C78.0852 23.0419 78.8769 23.9907 80.2841 23.9907C81.686 23.9906 82.4848 23.0354 82.4848 21.3939Z" fill="white"/>
<path d="M94.4343 25.1674H92.7549L91.0594 19.6124H90.9313L89.243 25.1674H87.5796L85.3184 17.625H86.9604L88.43 23.3803H88.5509L90.2375 17.625H91.7906L93.4772 23.3803H93.6053L95.0677 17.625H96.6866L94.4343 25.1674Z" fill="white"/>
<path d="M98.5899 17.6218H100.148V18.8199H100.269C100.475 18.3896 100.821 18.0289 101.259 17.788C101.698 17.5471 102.208 17.4381 102.717 17.4762C103.116 17.4486 103.517 17.5039 103.89 17.6381C104.263 17.7722 104.598 17.9818 104.87 18.2512C105.143 18.5206 105.346 18.843 105.465 19.1944C105.584 19.5459 105.615 19.9174 105.557 20.2815V25.1641H103.938V20.6553C103.938 19.4432 103.365 18.8404 102.168 18.8404C101.897 18.8288 101.626 18.8712 101.375 18.9647C101.123 19.0582 100.896 19.2006 100.71 19.3822C100.524 19.5637 100.383 19.7801 100.297 20.0165C100.21 20.2529 100.18 20.5037 100.209 20.7518V25.1642H98.5898L98.5899 17.6218Z" fill="white"/>
<path d="M108.137 14.6797H109.756V25.1664H108.137V14.6797Z" fill="white"/>
<path d="M112.005 21.3921C111.953 20.8964 112.015 20.3963 112.186 19.9238C112.357 19.4513 112.633 19.0169 112.998 18.6484C113.362 18.2799 113.806 17.9855 114.301 17.784C114.796 17.5826 115.332 17.4785 115.874 17.4785C116.415 17.4785 116.951 17.5826 117.446 17.784C117.941 17.9855 118.385 18.2799 118.75 18.6484C119.114 19.0169 119.39 19.4513 119.561 19.9238C119.732 20.3963 119.794 20.8964 119.743 21.3921C119.795 21.8883 119.734 22.3891 119.564 22.8623C119.393 23.3355 119.117 23.7707 118.752 24.1399C118.388 24.5091 117.944 24.8041 117.448 25.006C116.952 25.2079 116.416 25.3122 115.874 25.3122C115.331 25.3122 114.795 25.2079 114.299 25.006C113.804 24.8041 113.359 24.5091 112.995 24.1399C112.631 23.7707 112.354 23.3355 112.184 22.8623C112.013 22.3891 111.952 21.8883 112.005 21.3921ZM118.077 21.3921C118.077 19.7572 117.278 18.8011 115.876 18.8011C114.469 18.8011 113.677 19.7572 113.677 21.3921C113.677 23.0401 114.469 23.9888 115.876 23.9888C117.278 23.9888 118.077 23.0336 118.077 21.3921Z" fill="white"/>
<path d="M121.447 23.0354C121.447 21.6778 122.547 20.8951 124.498 20.7838L126.72 20.6661V20.015C126.72 19.2184 126.148 18.7686 125.041 18.7686C124.137 18.7686 123.511 19.0737 123.331 19.6069H121.764C121.929 18.3114 123.255 17.4805 125.116 17.4805C127.172 17.4805 128.332 18.4218 128.332 20.015V25.1685H126.774V24.1085H126.646C126.386 24.4887 126.021 24.7987 125.588 25.0067C125.155 25.2148 124.67 25.3135 124.182 25.2927C123.837 25.3257 123.489 25.2919 123.16 25.1936C122.831 25.0952 122.527 24.9346 122.27 24.7219C122.012 24.5092 121.806 24.2493 121.664 23.9588C121.523 23.6683 121.449 23.3538 121.447 23.0354ZM126.72 22.3909V21.7604L124.717 21.8781C123.587 21.9477 123.075 22.301 123.075 22.9659C123.075 23.6447 123.716 24.0398 124.596 24.0398C124.854 24.0638 125.115 24.0398 125.363 23.9693C125.611 23.8988 125.84 23.7832 126.039 23.6294C126.237 23.4756 126.399 23.2866 126.516 23.0739C126.633 22.8611 126.703 22.6289 126.72 22.3909Z" fill="white"/>
<path d="M130.461 21.392C130.461 19.0087 131.793 17.4989 133.866 17.4989C134.379 17.4772 134.888 17.5901 135.333 17.8244C135.778 18.0587 136.142 18.4048 136.382 18.8222H136.503V14.6797H138.122V25.1664H136.57V23.9748H136.442C136.184 24.3893 135.808 24.7311 135.354 24.963C134.9 25.195 134.385 25.3083 133.866 25.2907C131.779 25.2908 130.461 23.781 130.461 21.392ZM132.133 21.392C132.133 22.9917 132.953 23.9544 134.325 23.9544C135.69 23.9544 136.533 22.9779 136.533 21.3985C136.533 19.8266 135.681 18.8361 134.325 18.8361C132.962 18.8361 132.133 19.8053 132.133 21.392Z" fill="white"/>
<path d="M144.821 21.3939C144.769 20.8982 144.831 20.3981 145.002 19.9257C145.173 19.4532 145.45 19.0188 145.814 18.6503C146.178 18.2819 146.622 17.9875 147.117 17.786C147.612 17.5845 148.148 17.4805 148.69 17.4805C149.231 17.4805 149.767 17.5845 150.262 17.786C150.757 17.9875 151.201 18.2819 151.565 18.6503C151.93 19.0188 152.206 19.4532 152.377 19.9257C152.548 20.3981 152.61 20.8982 152.558 21.3939C152.611 21.8901 152.55 22.3909 152.379 22.8641C152.209 23.3373 151.933 23.7725 151.568 24.1417C151.204 24.5109 150.76 24.8059 150.264 25.0078C149.768 25.2097 149.232 25.314 148.69 25.314C148.147 25.314 147.611 25.2097 147.115 25.0078C146.62 24.8059 146.175 24.5109 145.811 24.1417C145.447 23.7725 145.17 23.3373 145 22.8641C144.829 22.3909 144.768 21.8901 144.821 21.3939ZM150.893 21.3939C150.893 19.759 150.094 18.8029 148.692 18.8029C147.285 18.8029 146.493 19.759 146.493 21.3939C146.493 23.0419 147.285 23.9907 148.692 23.9907C150.094 23.9906 150.893 23.0354 150.893 21.3939Z" fill="white"/>
<path d="M154.729 17.6218H156.287V18.8199H156.408C156.613 18.3896 156.959 18.0289 157.398 17.788C157.837 17.5471 158.347 17.4381 158.856 17.4762C159.255 17.4486 159.656 17.5039 160.029 17.6381C160.401 17.7722 160.736 17.9818 161.009 18.2512C161.282 18.5206 161.485 18.843 161.604 19.1944C161.723 19.5459 161.754 19.9174 161.695 20.2815V25.1641H160.076V20.6553C160.076 19.4432 159.504 18.8404 158.306 18.8404C158.035 18.8288 157.765 18.8712 157.513 18.9647C157.262 19.0582 157.035 19.2006 156.849 19.3822C156.663 19.5637 156.522 19.7801 156.435 20.0165C156.349 20.2529 156.319 20.5037 156.347 20.7518V25.1642H154.729V17.6218Z" fill="white"/>
<path d="M170.843 15.7461V17.6583H172.62V18.9121H170.843V22.7904C170.843 23.5805 171.197 23.9264 172.003 23.9264C172.209 23.9258 172.415 23.9144 172.62 23.8921V25.132C172.329 25.1798 172.035 25.2052 171.74 25.208C169.939 25.208 169.222 24.6257 169.222 23.1715V18.912H167.92V17.6582H169.222V15.7461H170.843Z" fill="white"/>
<path d="M174.832 14.6797H176.437V18.8361H176.565C176.78 18.4018 177.136 18.039 177.583 17.7972C178.031 17.5554 178.549 17.4464 179.066 17.485C179.463 17.4651 179.86 17.5261 180.229 17.6635C180.597 17.8009 180.928 18.0114 181.198 18.28C181.468 18.5486 181.67 18.8686 181.79 19.2172C181.91 19.5658 181.944 19.9345 181.891 20.2968V25.1664H180.271V20.664C180.271 19.4593 179.66 18.8492 178.517 18.8492C178.238 18.8282 177.958 18.8634 177.696 18.9522C177.435 19.0411 177.197 19.1815 177 19.3636C176.803 19.5458 176.652 19.7652 176.558 20.0067C176.463 20.2481 176.426 20.5057 176.451 20.7614V25.1664H174.832L174.832 14.6797Z" fill="white"/>
<path d="M191.33 23.1301C191.11 23.8195 190.634 24.4157 189.984 24.8146C189.334 25.2135 188.552 25.3897 187.776 25.3122C187.235 25.3253 186.698 25.2301 186.202 25.0333C185.705 24.8364 185.261 24.5426 184.901 24.1722C184.54 23.8018 184.272 23.3637 184.114 22.8883C183.956 22.4129 183.912 21.9116 183.986 21.4191C183.914 20.9252 183.958 20.4228 184.116 19.946C184.274 19.4692 184.541 19.029 184.899 18.6554C185.258 18.2817 185.7 17.9833 186.195 17.7803C186.69 17.5773 187.226 17.4744 187.768 17.4786C190.051 17.4786 191.428 18.9124 191.428 21.2809V21.8003H185.635V21.8837C185.61 22.1605 185.648 22.4391 185.746 22.7017C185.845 22.9642 186.002 23.2049 186.208 23.4084C186.414 23.6118 186.663 23.7735 186.941 23.883C187.219 23.9926 187.518 24.0475 187.82 24.0445C188.207 24.0872 188.6 24.0231 188.947 23.8603C189.295 23.6974 189.582 23.4433 189.772 23.1301L191.33 23.1301ZM185.635 20.6994H189.779C189.799 20.4463 189.762 20.192 189.669 19.953C189.576 19.7139 189.43 19.4954 189.24 19.3113C189.05 19.1273 188.82 18.9819 188.565 18.8845C188.31 18.787 188.036 18.7397 187.76 18.7455C187.48 18.7423 187.202 18.7906 186.942 18.8877C186.683 18.9847 186.447 19.1286 186.249 19.3107C186.051 19.4927 185.895 19.7094 185.79 19.948C185.684 20.1865 185.632 20.442 185.635 20.6994Z" fill="white"/>
</g>
<defs>
<clipPath id="clip0_2655_6251">
<rect width="218" height="67" fill="white" transform="translate(0.482422 0.546875)"/>
</clipPath>
</defs>
</svg>
