<svg width="360" height="351" viewBox="0 0 360 351" fill="none" xmlns="http://www.w3.org/2000/svg">
<path d="M316.21 59.8764C316.202 59.8764 316.195 59.8786 316.188 59.8788V17.3896C316.188 12.7895 314.376 8.37784 311.151 5.12507C307.925 1.87231 303.551 0.0449219 298.99 0.0449219H167.091C162.53 0.0449219 158.155 1.87231 154.93 5.12507C151.705 8.37784 149.893 12.7895 149.893 17.3896V39.1718C149.529 39.1797 149.182 39.331 148.927 39.5933C148.672 39.8557 148.529 40.2083 148.529 40.5757V51.3646C148.529 51.7319 148.672 52.0845 148.927 52.3469C149.182 52.6092 149.529 52.7605 149.893 52.7682V64.0706H149.823C149.64 64.0706 149.458 64.107 149.289 64.1777C149.12 64.2484 148.966 64.3521 148.836 64.4827C148.707 64.6133 148.604 64.7685 148.534 64.9392C148.464 65.1099 148.428 65.2928 148.428 65.4776V86.3407C148.428 86.5255 148.464 86.7084 148.534 86.8791C148.604 87.0498 148.707 87.2049 148.836 87.3356C148.966 87.4662 149.12 87.5698 149.289 87.6405C149.458 87.7112 149.64 87.7476 149.823 87.7476H149.893V96.0338H149.871C149.688 96.0338 149.506 96.0702 149.337 96.1409C149.168 96.2116 149.014 96.3152 148.884 96.4458C148.755 96.5765 148.652 96.7316 148.582 96.9023C148.512 97.073 148.476 97.2559 148.476 97.4407V118.508C148.476 118.693 148.512 118.876 148.582 119.046C148.652 119.217 148.755 119.372 148.884 119.503C149.014 119.633 149.168 119.737 149.337 119.808C149.506 119.878 149.688 119.915 149.871 119.915H149.893V323.555C149.893 328.155 151.705 332.566 154.93 335.819C158.155 339.072 162.53 340.899 167.091 340.899H298.99C303.551 340.899 307.925 339.072 311.151 335.819C314.376 332.566 316.188 328.155 316.188 323.555V101.193C316.195 101.193 316.202 101.195 316.21 101.195C316.536 101.195 316.859 101.13 317.16 101.004C317.462 100.878 317.735 100.694 317.966 100.461C318.197 100.228 318.38 99.9523 318.505 99.6483C318.629 99.3444 318.694 99.0186 318.694 98.6896V62.3818C318.694 61.7173 318.432 61.0801 317.966 60.6103C317.5 60.1404 316.868 59.8764 316.21 59.8764Z" fill="#232323"/>
<path d="M306.488 22.2446V318.695C306.487 322.227 305.095 325.614 302.618 328.111C300.141 330.608 296.782 332.011 293.28 332.011H173.939C170.436 332.011 167.078 330.608 164.601 328.111C162.124 325.614 160.732 322.227 160.73 318.695V22.2446C160.73 18.7117 162.122 15.3235 164.599 12.8254C167.076 10.3273 170.436 8.92383 173.939 8.92383H191.797V11.2614C191.798 14.1701 192.945 16.9592 194.984 19.016C197.023 21.0727 199.789 22.2288 202.673 22.2301H263.389C266.27 22.2236 269.03 21.0652 271.064 19.0088C273.099 16.9525 274.241 14.1663 274.241 11.2614V8.94813H293.28C296.779 8.94812 300.135 10.3482 302.611 12.8411C305.087 15.334 306.482 18.716 306.488 22.2446Z" fill="white"/>
<path d="M112.964 166.385C112.258 166.11 111.501 165.994 110.746 166.045C109.991 166.096 109.256 166.314 108.594 166.683C107.931 167.052 107.357 167.562 106.911 168.179C106.465 168.796 106.159 169.504 106.014 170.253L63.4863 193.574L70.9637 202.062L110.458 176.5C111.722 176.662 113.001 176.351 114.053 175.626C115.105 174.901 115.856 173.812 116.165 172.565C116.474 171.318 116.319 170.001 115.729 168.862C115.139 167.723 114.155 166.842 112.964 166.385Z" fill="#FFB8B8"/>
<path d="M102.118 334.187L107.417 330.73L96.7178 308.471L88.8965 313.573L102.118 334.187Z" fill="#FFB8B8"/>
<path d="M120.816 329.02L104.161 339.884L99.9993 333.395L110.46 326.571C112.103 325.499 114.1 325.129 116.013 325.543C117.926 325.957 119.598 327.12 120.661 328.777L120.816 329.02Z" fill="#2F2E41"/>
<path d="M42.6543 334.99H48.9654L51.969 310.439H42.6543V334.99Z" fill="#FFB8B8"/>
<path d="M61.1406 340.9H41.3053V333.171H53.7635C54.7323 333.171 55.6916 333.364 56.5866 333.738C57.4816 334.112 58.2949 334.66 58.9799 335.351C59.6649 336.041 60.2083 336.862 60.5791 337.764C60.9498 338.667 61.1406 339.634 61.1406 340.611V340.9Z" fill="#2D2D2D"/>
<path d="M187.456 48.1526H174.445C174.125 48.1526 173.819 48.0246 173.593 47.7967C173.367 47.5689 173.24 47.2598 173.24 46.9376C173.24 46.6154 173.367 46.3064 173.593 46.0785C173.819 45.8507 174.125 45.7227 174.445 45.7227H187.456C187.775 45.7227 188.081 45.8507 188.307 46.0785C188.533 46.3064 188.66 46.6154 188.66 46.9376C188.66 47.2598 188.533 47.5689 188.307 47.7967C188.081 48.0246 187.775 48.1526 187.456 48.1526Z" fill="#3F3D56"/>
<path d="M187.456 51.5588H174.445C174.125 51.5588 173.819 51.4308 173.593 51.203C173.367 50.9751 173.24 50.6661 173.24 50.3439C173.24 50.0216 173.367 49.7126 173.593 49.4848C173.819 49.2569 174.125 49.1289 174.445 49.1289H187.456C187.775 49.1289 188.081 49.2569 188.307 49.4848C188.533 49.7126 188.66 50.0216 188.66 50.3439C188.66 50.6661 188.533 50.9751 188.307 51.203C188.081 51.4308 187.775 51.5588 187.456 51.5588Z" fill="#3F3D56"/>
<path d="M187.456 54.9534H174.445C174.125 54.9534 173.819 54.8253 173.593 54.5975C173.367 54.3697 173.24 54.0606 173.24 53.7384C173.24 53.4162 173.367 53.1071 173.593 52.8793C173.819 52.6514 174.125 52.5234 174.445 52.5234H187.456C187.775 52.5234 188.081 52.6514 188.307 52.8793C188.533 53.1071 188.66 53.4162 188.66 53.7384C188.66 54.0606 188.533 54.3697 188.307 54.5975C188.081 54.8253 187.775 54.9534 187.456 54.9534Z" fill="#3F3D56"/>
<path d="M288.308 51.5804H287.87L287.701 51.4395C288.255 50.7736 288.559 49.9322 288.559 49.063C288.555 48.3479 288.341 47.65 287.944 47.0576C287.547 46.4651 286.984 46.0047 286.328 45.7346C285.671 45.4645 284.95 45.3968 284.255 45.5401C283.561 45.6834 282.924 46.0312 282.425 46.5396C281.926 47.048 281.588 47.6941 281.454 48.3962C281.319 49.0983 281.394 49.8249 281.669 50.4841C281.944 51.1433 282.406 51.7055 282.998 52.0996C283.59 52.4937 284.284 52.702 284.993 52.6982C285.852 52.692 286.683 52.3864 287.345 51.8331L287.508 51.9741V52.4212L290.274 55.2156L291.103 54.3797L288.308 51.5804ZM284.993 51.5804C284.499 51.5823 284.016 51.4366 283.605 51.1616C283.193 50.8866 282.872 50.4946 282.681 50.0354C282.49 49.5761 282.439 49.0702 282.533 48.5815C282.628 48.0928 282.864 47.6433 283.212 47.2899C283.559 46.9364 284.003 46.695 284.487 46.5959C284.971 46.4969 285.473 46.5448 285.93 46.7336C286.387 46.9223 286.778 47.2435 287.053 47.6564C287.329 48.0693 287.478 48.5554 287.479 49.0533L287.48 49.063C287.481 49.3917 287.419 49.7175 287.296 50.0219C287.173 50.3263 286.992 50.6033 286.763 50.837C286.534 51.0708 286.261 51.2568 285.961 51.3843C285.661 51.5118 285.338 51.5785 285.012 51.5804C285.006 51.5804 284.999 51.5804 284.993 51.5804Z" fill="#3F3D56"/>
<path d="M213.965 92.8655H190.592C189.186 92.8655 187.838 92.3022 186.844 91.2997C185.849 90.2972 185.291 88.9374 185.291 87.5196C185.291 86.1018 185.849 84.7421 186.844 83.7396C187.838 82.7371 189.186 82.1738 190.592 82.1738H213.965C215.371 82.1738 216.719 82.7371 217.713 83.7396C218.707 84.7421 219.266 86.1018 219.266 87.5196C219.266 88.9374 218.707 90.2972 217.713 91.2997C216.719 92.3022 215.371 92.8655 213.965 92.8655Z" fill="#B41E32"/>
<path d="M285.521 104.527H188.182C187.415 104.527 186.68 104.22 186.138 103.673C185.596 103.126 185.291 102.385 185.291 101.611C185.291 100.838 185.596 100.096 186.138 99.5494C186.68 99.0025 187.415 98.6953 188.182 98.6953H285.521C286.288 98.6953 287.023 99.0025 287.566 99.5494C288.108 100.096 288.412 100.838 288.412 101.611C288.412 102.385 288.108 103.126 287.566 103.673C287.023 104.22 286.288 104.527 285.521 104.527Z" fill="#E6E6E6"/>
<path d="M223.938 116.189H188.182C187.415 116.189 186.68 115.882 186.138 115.335C185.596 114.788 185.291 114.047 185.291 113.273C185.291 112.5 185.596 111.758 186.138 111.211C186.68 110.665 187.415 110.357 188.182 110.357H223.938C224.704 110.357 225.44 110.665 225.982 111.211C226.524 111.758 226.829 112.5 226.829 113.273C226.829 114.047 226.524 114.788 225.982 115.335C225.44 115.882 224.704 116.189 223.938 116.189Z" fill="#E6E6E6"/>
<path d="M213.965 222.135H190.592C189.186 222.135 187.838 221.572 186.844 220.569C185.849 219.567 185.291 218.207 185.291 216.789C185.291 215.371 185.849 214.012 186.844 213.009C187.838 212.007 189.186 211.443 190.592 211.443H213.965C215.371 211.443 216.719 212.007 217.713 213.009C218.707 214.012 219.266 215.371 219.266 216.789C219.266 218.207 218.707 219.567 217.713 220.569C216.719 221.572 215.371 222.135 213.965 222.135Z" fill="#B41E32"/>
<path d="M285.521 233.801H188.182C187.415 233.801 186.68 233.493 186.138 232.946C185.596 232.4 185.291 231.658 185.291 230.885C185.291 230.111 185.596 229.37 186.138 228.823C186.68 228.276 187.415 227.969 188.182 227.969H285.521C286.288 227.969 287.023 228.276 287.566 228.823C288.108 229.37 288.412 230.111 288.412 230.885C288.412 231.658 288.108 232.4 287.566 232.946C287.023 233.493 286.288 233.801 285.521 233.801Z" fill="#E6E6E6"/>
<path d="M223.938 245.463H188.182C187.415 245.463 186.68 245.155 186.138 244.609C185.596 244.062 185.291 243.32 185.291 242.547C185.291 241.773 185.596 241.032 186.138 240.485C186.68 239.938 187.415 239.631 188.182 239.631H223.938C224.704 239.631 225.44 239.938 225.982 240.485C226.524 241.032 226.829 241.773 226.829 242.547C226.829 243.32 226.524 244.062 225.982 244.609C225.44 245.155 224.704 245.463 223.938 245.463Z" fill="#E6E6E6"/>
<path d="M213.965 281.912H190.592C189.186 281.912 187.838 281.349 186.844 280.347C185.849 279.344 185.291 277.984 185.291 276.567C185.291 275.149 185.849 273.789 186.844 272.786C187.838 271.784 189.186 271.221 190.592 271.221H213.965C215.371 271.221 216.719 271.784 217.713 272.786C218.707 273.789 219.266 275.149 219.266 276.567C219.266 277.984 218.707 279.344 217.713 280.347C216.719 281.349 215.371 281.912 213.965 281.912Z" fill="#B41E32"/>
<path d="M285.521 293.578H188.182C187.415 293.578 186.68 293.271 186.138 292.724C185.596 292.177 185.291 291.435 185.291 290.662C185.291 289.889 185.596 289.147 186.138 288.6C186.68 288.053 187.415 287.746 188.182 287.746H285.521C286.288 287.746 287.023 288.053 287.566 288.6C288.108 289.147 288.412 289.889 288.412 290.662C288.412 291.435 288.108 292.177 287.566 292.724C287.023 293.271 286.288 293.578 285.521 293.578Z" fill="#E6E6E6"/>
<path d="M223.938 305.24H188.182C187.415 305.24 186.68 304.933 186.138 304.386C185.596 303.839 185.291 303.097 185.291 302.324C185.291 301.551 185.596 300.809 186.138 300.262C186.68 299.715 187.415 299.408 188.182 299.408H223.938C224.704 299.408 225.44 299.715 225.982 300.262C226.524 300.809 226.829 301.551 226.829 302.324C226.829 303.097 226.524 303.839 225.982 304.386C225.44 304.933 224.704 305.24 223.938 305.24Z" fill="#E6E6E6"/>
<path d="M299.254 191.763H113.25C112.164 191.761 111.123 191.326 110.355 190.551C109.587 189.777 109.156 188.727 109.154 187.632V136.604C109.156 135.508 109.587 134.458 110.355 133.684C111.123 132.909 112.164 132.474 113.25 132.473H299.254C300.34 132.474 301.381 132.91 302.149 133.684C302.917 134.458 303.349 135.508 303.35 136.604V187.632C303.349 188.727 302.917 189.777 302.149 190.551C301.381 191.326 300.34 191.761 299.254 191.763Z" fill="#B41E32"/>
<path d="M46.3824 252.471C48.1605 265.053 38.7446 320.795 39.7903 320.791L53.3117 320.718C53.7936 319.785 60.0002 289.707 61.9469 284.881C64.6647 278.184 67.4066 271.405 68.4764 264.251C69.4835 257.535 68.9871 250.692 68.3318 243.932C68.3623 243.731 68.3449 243.526 68.2811 243.333C68.2172 243.14 68.1089 242.965 67.9648 242.822C67.8208 242.68 67.6452 242.574 67.4527 242.514C67.2601 242.453 67.056 242.44 66.8573 242.474L48.7146 241.531C44.9753 241.337 44.0886 240.511 44.6572 244.214C45.0524 246.979 45.9872 249.672 46.3824 252.471Z" fill="#232323"/>
<path d="M49.9447 221.879C46.2583 227.225 42.3937 233.377 43.6177 239.777C44.5477 244.637 48.2196 248.404 51.6843 251.927C65.5334 265.953 92.8412 327.838 92.8412 327.838C106.02 319.333 92.5273 328.081 105.9 319.09C104.715 318.998 77.7826 221.359 75.5515 221.227C66.526 220.625 58.7389 219.735 49.9447 221.879Z" fill="#232323"/>
<path d="M64.53 170.993C62.6576 169.309 49.4992 164.115 49.4992 164.115C49.2572 164.083 49.0117 164.091 48.7722 164.137C48.0233 164.328 47.6816 165.267 47.8416 166.025C48.0015 166.784 46.6893 179.256 46.3512 184.927C45.7587 194.826 51.5384 217.247 51.4875 217.933C51.2895 220.378 50.2279 222.67 48.4959 224.392C48.9461 224.956 77.5361 226.086 79.4809 226.753C79.8734 226.251 77.2671 190.687 77.1472 188.678C76.9472 185.628 67.0018 173.303 64.53 170.993Z" fill="#B41E32"/>
<path d="M44.1376 248.167C44.8151 247.827 45.4105 247.341 45.8817 246.744C46.353 246.147 46.6887 245.452 46.8652 244.71C47.0417 243.968 47.0546 243.196 46.9032 242.448C46.7518 241.7 46.4396 240.995 45.9887 240.382L58.0515 173.054L46.7949 172.904L38.4179 239.483C37.4471 240.315 36.8127 241.478 36.6349 242.75C36.4571 244.023 36.7483 245.317 37.4534 246.387C38.1584 247.457 39.2282 248.23 40.4602 248.558C41.6921 248.886 43.0005 248.747 44.1376 248.167Z" fill="#FFB8B8"/>
<path d="M44.039 178.044C43.5696 178.079 43.102 177.956 42.709 177.694C42.0392 177.116 47.5037 168.266 48.5831 168.135C52.096 167.727 55.71 167.591 59.1169 168.548C62.5238 169.506 65.7282 171.683 67.251 174.905C67.887 176.246 63.2755 182.997 61.1793 182.005C58.6688 180.819 47.3447 178.127 44.039 178.044Z" fill="#B41E32"/>
<path d="M56.4329 163.394C63.4159 163.394 69.0767 157.685 69.0767 150.642C69.0767 143.6 63.4159 137.891 56.4329 137.891C49.4499 137.891 43.7891 143.6 43.7891 150.642C43.7891 157.685 49.4499 163.394 56.4329 163.394Z" fill="#FFB8B8"/>
<path d="M44.0173 171.723C45.7744 171.909 47.5494 171.647 49.1802 170.962C50.8109 170.276 52.2452 169.19 53.3519 167.801C54.4586 166.412 55.2023 164.765 55.5149 163.012C55.8276 161.258 55.6993 159.454 55.1417 157.763C54.6385 156.237 53.7975 154.839 53.3367 153.3C52.8759 151.761 52.8633 149.941 53.8853 148.707C55.885 146.292 59.7391 147.811 62.8218 147.331C66.1066 146.819 68.6266 143.641 68.8895 140.3C69.1524 136.958 67.4254 133.651 64.8546 131.527C62.2837 129.402 58.9681 128.356 55.6603 128.028C51.4123 127.607 47.1284 128.297 43.221 130.03C39.3137 131.762 35.9145 134.481 33.3509 137.923C30.7872 141.365 29.1454 145.414 28.5835 149.682C28.0217 153.949 28.5587 158.29 30.1428 162.288C31.5248 165.775 33.782 169.023 36.9883 170.933C40.1945 172.843 44.429 173.21 47.6246 171.282" fill="#232323"/>
<path d="M179.398 155.797H147.087C145.035 155.797 143.365 153.399 143.365 150.451C143.365 147.504 145.035 145.105 147.087 145.105H179.398C181.45 145.105 183.12 147.504 183.12 150.451C183.12 153.399 181.45 155.797 179.398 155.797Z" fill="#FFE066"/>
<path d="M266.488 167.222H146.501C145.734 167.222 144.998 166.915 144.456 166.368C143.914 165.822 143.609 165.08 143.609 164.307C143.609 163.533 143.914 162.792 144.456 162.245C144.998 161.698 145.734 161.391 146.501 161.391H266.488C267.254 161.391 267.99 161.698 268.532 162.245C269.074 162.792 269.379 163.533 269.379 164.307C269.379 165.08 269.074 165.822 268.532 166.368C267.99 166.915 267.254 167.222 266.488 167.222Z" fill="#FFE066"/>
<path d="M204.66 179.125H146.256C145.49 179.125 144.754 178.818 144.212 178.271C143.67 177.724 143.365 176.982 143.365 176.209C143.365 175.436 143.67 174.694 144.212 174.147C144.754 173.6 145.49 173.293 146.256 173.293H204.66C205.427 173.293 206.162 173.6 206.704 174.147C207.247 174.694 207.551 175.436 207.551 176.209C207.551 176.982 207.247 177.724 206.704 178.271C206.162 178.818 205.427 179.125 204.66 179.125Z" fill="#FFE066"/>
<path d="M360 340.113H0V350.113H360V340.113Z" fill="#FFE066"/>
</svg>
