<svg width="226" height="68" viewBox="0 0 226 68" fill="none" xmlns="http://www.w3.org/2000/svg">
<g clip-path="url(#clip0_2655_6242)">
<path d="M217.507 67.5105H8.37143C3.77033 67.5105 0.00585938 63.746 0.00585938 59.1449V8.9515C0.00585938 4.35041 3.77033 0.585938 8.37143 0.585938H217.507C222.109 0.585938 225.873 4.35041 225.873 8.9515V59.1449C225.873 63.746 222.109 67.5105 217.507 67.5105Z" fill="#100F0D"/>
<path d="M217.507 0.585938H8.37143C3.77033 0.585938 0.00585938 4.35041 0.00585938 8.9515V59.1449C0.00585938 63.746 3.77033 67.5105 8.37143 67.5105H217.507C222.109 67.5105 225.873 63.746 225.873 59.1449V8.9515C225.873 4.35041 222.109 0.585938 217.507 0.585938ZM217.507 1.92375C221.382 1.92375 224.535 5.0766 224.535 8.9515V59.1449C224.535 63.0198 221.382 66.1727 217.507 66.1727H8.37143C4.49652 66.1727 1.34505 63.0198 1.34505 59.1449V8.9515C1.34505 5.0766 4.49652 1.92375 8.37143 1.92375H217.507Z" fill="#A2A2A1"/>
<path d="M178.918 50.7793H182.04V29.862H178.918V50.7793ZM207.038 37.3974L203.46 46.4656H203.353L199.638 37.3974H196.275L201.847 50.0716L198.67 57.1221H201.926L210.51 37.3981L207.038 37.3974ZM189.332 48.4034C188.312 48.4034 186.885 47.8916 186.885 46.627C186.885 45.0126 188.661 44.3937 190.194 44.3937C191.566 44.3937 192.213 44.6892 193.047 45.0931C192.804 47.0308 191.136 48.4034 189.332 48.4034ZM189.71 36.9399C187.45 36.9399 185.109 37.9359 184.141 40.1425L186.911 41.2992C187.504 40.1425 188.606 39.7661 189.764 39.7661C191.379 39.7661 193.02 40.7339 193.047 42.4567V42.6717C192.481 42.3488 191.27 41.8646 189.791 41.8646C186.803 41.8646 183.762 43.5056 183.762 46.5734C183.762 49.372 186.212 51.1751 188.956 51.1751C191.054 51.1751 192.213 50.2333 192.938 49.1296H193.047V50.7451H196.062V42.7252C196.062 39.0117 193.288 36.9399 189.71 36.9399ZM170.416 39.9437H165.975V32.7743H170.416C172.75 32.7743 174.075 34.7063 174.075 36.3589C174.075 37.9798 172.75 39.9437 170.416 39.9437ZM170.335 29.8625H162.855V50.7798H165.975V42.8555H170.335C173.795 42.8555 177.197 40.351 177.197 36.3597C177.197 32.3691 173.795 29.8625 170.335 29.8625ZM129.543 48.4069C127.386 48.4069 125.581 46.6004 125.581 44.1215C125.581 41.6138 127.386 39.7818 129.543 39.7818C131.673 39.7818 133.344 41.6139 133.344 44.1215C133.344 46.6004 131.673 48.4069 129.543 48.4069ZM133.128 38.5684H133.02C132.32 37.733 130.971 36.9782 129.274 36.9782C125.715 36.9782 122.454 40.1054 122.454 44.1215C122.454 48.1102 125.715 51.21 129.274 51.21C130.971 51.21 132.32 50.4551 133.02 49.5931H133.128V50.6166C133.128 53.34 131.673 54.7948 129.328 54.7948C127.415 54.7948 126.229 53.4203 125.743 52.2614L123.021 53.3934C123.802 55.2795 125.877 57.5985 129.328 57.5985C132.994 57.5985 136.094 55.4416 136.094 50.1851V37.4093H133.128L133.128 38.5684ZM138.251 50.7787H141.376V29.8613H138.251V50.7787ZM145.986 43.8785C145.905 41.1289 148.116 39.7276 149.706 39.7276C150.946 39.7276 151.996 40.3478 152.348 41.2367L145.986 43.8785ZM155.689 41.506C155.096 39.9166 153.291 36.9782 149.598 36.9782C145.931 36.9782 142.886 39.8623 142.886 44.0942C142.886 48.0835 145.905 51.2101 149.948 51.2101C153.209 51.2101 155.096 49.2162 155.879 48.0567L153.453 46.4391C152.644 47.6254 151.539 48.407 149.948 48.407C148.358 48.407 147.226 47.679 146.499 46.2504L156.013 42.3153L155.689 41.506ZM79.8839 39.1617V42.1805H87.1075C86.8919 43.8786 86.3259 45.1183 85.4632 45.981C84.4116 47.0319 82.7673 48.1913 79.8838 48.1913C75.4362 48.1913 71.9593 44.6065 71.9593 40.159C71.9593 35.7115 75.4362 32.1263 79.8838 32.1263C82.2828 32.1263 84.0345 33.0699 85.3284 34.2829L87.4584 32.153C85.6519 30.4282 83.2533 29.1074 79.8838 29.1074C73.7912 29.1074 68.6699 34.0672 68.6699 40.159C68.6699 46.2503 73.7912 51.2101 79.8838 51.2101C83.1718 51.2101 85.652 50.1318 87.5924 48.1104C89.5872 46.1156 90.2073 43.3125 90.2073 41.048C90.2073 40.3479 90.1529 39.701 90.0452 39.1617H79.8839ZM98.4208 48.4069C96.2639 48.4069 94.404 46.6279 94.404 44.0942C94.404 41.5335 96.2639 39.7819 98.4208 39.7819C100.577 39.7819 102.437 41.5335 102.437 44.0942C102.437 46.6279 100.577 48.4069 98.4208 48.4069ZM98.4208 36.9782C94.4843 36.9782 91.2772 39.97 91.2772 44.0942C91.2772 48.1913 94.4843 51.2101 98.4208 51.2101C102.356 51.2101 105.563 48.1913 105.563 44.0942C105.563 39.97 102.356 36.9782 98.4208 36.9782ZM114.002 48.4069C111.847 48.4069 109.987 46.6279 109.987 44.0942C109.987 41.5335 111.847 39.7819 114.002 39.7819C116.159 39.7819 118.019 41.5335 118.019 44.0942C118.019 46.6279 116.159 48.4069 114.002 48.4069ZM114.002 36.9782C110.067 36.9782 106.86 39.97 106.86 44.0942C106.86 48.1913 110.067 51.2101 114.002 51.2101C117.939 51.2101 121.146 48.1913 121.146 44.0942C121.146 39.97 117.939 36.9782 114.002 36.9782Z" fill="white"/>
<path d="M34.6612 33.0842L16.8496 51.99C16.8503 51.9939 16.8516 51.9972 16.8522 52.0012C17.3985 54.0542 19.2736 55.5658 21.499 55.5658C22.3886 55.5658 23.2238 55.3253 23.9401 54.903L23.997 54.8697L44.0472 43.2999L34.6612 33.0842Z" fill="#EB3131"/>
<path d="M52.6817 29.8658L52.6646 29.8541L44.0083 24.8359L34.2559 33.5141L44.0422 43.2992L52.6528 38.3309C54.1624 37.5159 55.1873 35.9244 55.1873 34.0892C55.1873 32.2671 54.1763 30.6835 52.6817 29.8658Z" fill="#F6B60B"/>
<path d="M16.847 16.1055C16.7399 16.5003 16.6836 16.9139 16.6836 17.3434V50.7517C16.6836 51.1804 16.7392 51.5954 16.8476 51.9888L35.2741 33.5662L16.847 16.1055Z" fill="#5778C5"/>
<path d="M34.7942 34.0478L44.0141 24.8307L23.9865 13.2189C23.2585 12.7829 22.4088 12.5312 21.4997 12.5312C19.2743 12.5312 17.3966 14.0456 16.8503 16.101C16.8496 16.103 16.8496 16.1044 16.8496 16.1061L34.7942 34.0478Z" fill="#3BAD49"/>
<path d="M79.2994 16.9484H74.4186V18.1562H78.0761C77.9767 19.1419 77.5845 19.9157 76.9231 20.4777C76.2618 21.0399 75.4173 21.3222 74.4187 21.3222C73.3233 21.3222 72.3952 20.9405 71.6346 20.1825C70.8894 19.4086 70.5105 18.4517 70.5105 17.2989C70.5105 16.1461 70.8894 15.1892 71.6346 14.4155C72.3952 13.6574 73.3233 13.2783 74.4187 13.2783C74.9808 13.2783 75.5167 13.375 76.0081 13.5868C76.4996 13.7984 76.8943 14.0939 77.2029 14.473L78.1309 13.545C77.71 13.0664 77.1768 12.7005 76.5152 12.4338C75.8538 12.1671 75.1637 12.0392 74.4185 12.0392C72.9572 12.0392 71.7182 12.5463 70.7064 13.558C69.6947 14.5723 69.1875 15.8219 69.1875 17.2989C69.1875 18.7759 69.6946 20.0283 70.7064 21.0401C71.7181 22.0516 72.9572 22.5589 74.4185 22.5589C75.9531 22.5589 77.1766 22.0674 78.1178 21.0687C78.9464 20.2375 79.3699 19.1133 79.3699 17.7069C79.3699 17.469 79.3413 17.2151 79.2994 16.9484ZM81.1903 12.2638V22.3339H87.0696V21.0973H82.4843V17.9028H86.6201V16.695H82.4843V13.503H87.0696V12.2637L81.1903 12.2638ZM95.3138 13.503V12.2638H88.3938V13.503H91.2069V22.3339H92.5009V13.503H95.3138ZM101.579 12.2638H100.285V22.3339H101.579V12.2638ZM110.12 13.503V12.2638H103.2V13.503H106.013V22.3339H107.307V13.503H110.12ZM123.178 13.5736C122.18 12.5462 120.956 12.0391 119.495 12.0391C118.031 12.0391 116.807 12.5462 115.809 13.558C114.81 14.5566 114.319 15.8088 114.319 17.2988C114.319 18.7889 114.81 20.0412 115.809 21.04C116.807 22.0515 118.031 22.5589 119.495 22.5589C120.943 22.5589 122.179 22.0516 123.178 21.04C124.177 20.0413 124.668 18.789 124.668 17.2988C124.668 15.8219 124.177 14.5721 123.178 13.5736ZM116.737 14.4154C117.482 13.6573 118.397 13.2782 119.495 13.2782C120.59 13.2782 121.505 13.6573 122.237 14.4154C122.982 15.1604 123.348 16.1328 123.348 17.2988C123.348 18.4675 122.982 19.4372 122.237 20.1824C121.505 20.9405 120.59 21.3221 119.495 21.3221C118.397 21.3221 117.482 20.9404 116.737 20.1824C116.007 19.4216 115.641 18.4675 115.641 17.2988C115.641 16.1328 116.007 15.1761 116.737 14.4154ZM127.743 16.0624L127.688 14.1199H127.743L132.861 22.3338H134.213V12.2637H132.919V18.1561L132.974 20.0987H132.919L128.025 12.2637H126.449V22.3338H127.743V16.0624Z" fill="white" stroke="white" stroke-width="0.334623" stroke-miterlimit="10"/>
</g>
<defs>
<clipPath id="clip0_2655_6242">
<rect width="225.876" height="66.9258" fill="white" transform="translate(0 0.583984)"/>
</clipPath>
</defs>
</svg>
