<svg width="360" height="242" viewBox="0 0 360 242" fill="none" xmlns="http://www.w3.org/2000/svg">
<path d="M144.734 145.326H91.2052L90.6377 128.316C90.6131 127.578 90.7435 126.844 91.0197 126.164C91.296 125.483 91.7116 124.873 92.238 124.375C92.7643 123.876 93.3889 123.502 94.0688 123.277C94.7486 123.051 95.4676 122.981 96.1762 123.071L127.326 127.013H127.33C131.948 127.026 136.373 128.931 139.635 132.309C142.898 135.688 144.731 140.265 144.734 145.038V145.326Z" fill="#FFE066"/>
<path d="M120.868 84.9844H83.5345C83.038 84.9842 82.5464 85.0852 82.0876 85.2815C81.6289 85.4779 81.212 85.7657 80.8609 86.1285C80.5098 86.4914 80.2314 86.9222 80.0414 87.3964C79.8515 87.8705 79.7538 88.3787 79.7539 88.8919V127.478C79.7538 127.991 79.8515 128.5 80.0414 128.974C80.2314 129.448 80.5098 129.879 80.8609 130.242C81.212 130.604 81.6289 130.892 82.0876 131.089C82.5464 131.285 83.038 131.386 83.5345 131.386H120.868C121.365 131.386 121.857 131.285 122.315 131.089C122.774 130.892 123.191 130.604 123.542 130.242C123.893 129.879 124.172 129.448 124.362 128.974C124.552 128.5 124.649 127.991 124.649 127.478V88.8919C124.649 88.3787 124.552 87.8705 124.362 87.3964C124.172 86.9222 123.893 86.4914 123.542 86.1285C123.191 85.7657 122.774 85.4779 122.315 85.2815C121.857 85.0852 121.365 84.9842 120.868 84.9844Z" fill="#2D2D2D"/>
<path d="M112.463 113.837L94.8363 117.385C93.7907 117.594 92.7075 117.366 91.8244 116.751C90.9413 116.136 90.3303 115.184 90.1256 114.104L88.7706 106.912C88.5682 105.832 88.7888 104.712 89.384 103.799C89.9793 102.887 90.9005 102.255 91.9456 102.043L109.573 98.4957C110.618 98.2865 111.701 98.5145 112.584 99.1297C113.468 99.7449 114.079 100.697 114.283 101.777L115.638 108.969C115.841 110.049 115.62 111.169 115.025 112.082C114.43 112.994 113.508 113.626 112.463 113.837Z" fill="#FFEB66"/>
<path d="M124.649 88.8919V94.0204H79.7539V88.8919C79.7538 88.3787 79.8515 87.8705 80.0414 87.3964C80.2314 86.9222 80.5098 86.4914 80.8609 86.1285C81.212 85.7657 81.6289 85.4779 82.0876 85.2815C82.5464 85.0852 83.038 84.9842 83.5345 84.9844H120.868C121.365 84.9842 121.857 85.0852 122.315 85.2815C122.774 85.4779 123.191 85.7657 123.542 86.1285C123.893 86.4914 124.172 86.9222 124.362 87.3964C124.552 87.8705 124.649 88.3787 124.649 88.8919Z" fill="#B41E32"/>
<path d="M214.305 95.6233C214.046 94.7586 213.607 93.9631 213.018 93.2929C212.429 92.6227 211.705 92.0941 210.897 91.7443C210.089 91.3945 209.217 91.2321 208.342 91.2684C207.467 91.3047 206.61 91.5389 205.832 91.9545L154.469 72.9082L152.207 86.1699L203.406 100.722C204.168 102.027 205.367 102.997 206.775 103.449C208.183 103.902 209.703 103.804 211.047 103.176C212.39 102.547 213.464 101.432 214.065 100.04C214.665 98.6475 214.751 97.0762 214.305 95.6233Z" fill="#FFB8B8"/>
<path opacity="0.2" d="M214.305 95.6233C214.046 94.7586 213.607 93.9631 213.018 93.2929C212.429 92.6227 211.705 92.0941 210.897 91.7443C210.089 91.3945 209.217 91.2321 208.342 91.2684C207.467 91.3047 206.61 91.5389 205.832 91.9545L154.469 72.9082L152.207 86.1699L203.406 100.722C204.168 102.027 205.367 102.997 206.775 103.449C208.183 103.902 209.703 103.804 211.047 103.176C212.39 102.547 213.464 101.432 214.065 100.04C214.665 98.6475 214.751 97.0762 214.305 95.6233Z" fill="black"/>
<path d="M163.585 75.3277L158.735 88.424C158.597 88.7966 158.383 89.1341 158.107 89.4135C157.831 89.6929 157.501 89.9077 157.138 90.0431C156.775 90.1785 156.387 90.2315 156.003 90.1983C155.618 90.1652 155.245 90.0468 154.908 89.8511L143.121 82.9939C141.28 82.2532 139.799 80.7885 139.002 78.9209C138.205 77.0533 138.157 74.9352 138.868 73.031C139.579 71.1267 140.992 69.5918 142.797 68.7625C144.602 67.9333 146.651 67.8776 148.495 68.6074L161.659 71.6248C162.035 71.7113 162.39 71.8807 162.698 72.1216C163.005 72.3624 163.259 72.6689 163.442 73.0204C163.625 73.3718 163.732 73.7598 163.757 74.158C163.782 74.5561 163.723 74.9551 163.585 75.3277Z" fill="#B41E32"/>
<path d="M218.35 107.746L199.945 116.392L202.362 125.794C207.028 143.95 208.266 162.865 206.009 181.505L219.465 184.409L230.619 155.012L226.715 121.58L218.35 107.746Z" fill="#FFE066"/>
<path d="M254.454 151.268C242.362 151.268 232.507 160.353 232.029 171.73H276.879C276.401 160.353 266.546 151.268 254.454 151.268Z" fill="#FFEB66"/>
<path d="M245.044 153.231C244.415 101.874 216.115 106.598 216.115 106.598C216.115 106.598 216.645 122.584 216.899 123.082C234.932 158.346 205.17 199.689 167.286 192.083C166.571 191.94 165.885 191.795 165.227 191.647C160.427 190.611 156.188 187.724 153.374 183.574C150.56 179.423 149.381 174.32 150.078 169.304C153.81 138.33 135.248 138.878 135.248 138.878H108.107L94.0115 125.767C93.514 125.304 92.9144 124.974 92.265 124.806C91.6157 124.638 90.9364 124.637 90.2867 124.803C89.6369 124.97 89.0364 125.298 88.5377 125.759C88.039 126.22 87.6572 126.801 87.4258 127.45L85.6124 132.537C85.6124 132.537 58.8427 135.419 61.0735 162.511H69.3497C69.3297 163.28 69.3596 164.051 69.439 164.816L131.205 164.297C134.826 164.267 138.022 167.299 138.037 171.041C138.04 171.952 137.866 172.855 137.525 173.695C137.183 174.534 136.681 175.295 136.049 175.929C135.417 176.564 134.667 177.06 133.845 177.389C133.022 177.717 132.145 177.871 131.264 177.841L121.306 177.497C118.238 191.62 125.767 201.13 134.063 207.111C141.874 212.66 151.142 215.602 160.62 215.541H187.672C222.808 215.541 228.942 184.991 228.942 184.991C247.347 176.921 245.044 153.231 245.044 153.231Z" fill="#B41E32"/>
<path d="M252.789 232.253C270.114 232.253 284.16 217.736 284.16 199.83C284.16 181.923 270.114 167.406 252.789 167.406C235.463 167.406 221.418 181.923 221.418 199.83C221.418 217.736 235.463 232.253 252.789 232.253Z" fill="#2D2D2D"/>
<path d="M252.785 207.782C257.031 207.782 260.474 204.225 260.474 199.836C260.474 195.447 257.031 191.889 252.785 191.889C248.538 191.889 245.096 195.447 245.096 199.836C245.096 204.225 248.538 207.782 252.785 207.782Z" fill="#FFEB66"/>
<path d="M94.3984 232.253C114.342 232.253 130.51 215.543 130.51 194.93C130.51 174.317 114.342 157.607 94.3984 157.607C74.4547 157.607 58.2871 174.317 58.2871 194.93C58.2871 215.543 74.4547 232.253 94.3984 232.253Z" fill="#2D2D2D"/>
<path d="M94.3918 204.083C99.28 204.083 103.243 199.987 103.243 194.935C103.243 189.883 99.28 185.787 94.3918 185.787C89.5037 185.787 85.541 189.883 85.541 194.935C85.541 199.987 89.5037 204.083 94.3918 204.083Z" fill="#FFEB66"/>
<path d="M199.995 118.953L193.373 100.364C193.028 99.3953 192.87 98.3657 192.91 97.3341C192.95 96.3025 193.186 95.2892 193.605 94.3519C194.024 93.4147 194.617 92.5718 195.351 91.8716C196.085 91.1713 196.945 90.6273 197.883 90.2706L216.867 83.0474C218.516 82.4197 220.269 82.1339 222.025 82.2063C223.781 82.2787 225.507 82.7079 227.102 83.4694C228.698 84.2309 230.133 85.3098 231.325 86.6445C232.517 87.9792 233.444 89.5435 234.051 91.2481C234.599 92.7781 234.878 94.3967 234.877 96.028C234.87 98.0994 234.416 100.143 233.549 102.011C232.682 103.878 231.423 105.523 229.864 106.824C228.738 107.758 227.472 108.496 226.117 109.008L199.995 118.953Z" fill="#2D2D2D"/>
<path d="M234.594 96.0283C234.592 98.0575 234.15 100.06 233.301 101.89C232.452 103.719 231.216 105.329 229.686 106.6C227.337 105.96 225.152 104.798 223.282 103.197C221.412 101.596 219.901 99.5931 218.856 97.3276C217.81 95.0621 217.255 92.5884 217.228 90.0786C217.201 87.5687 217.703 85.0828 218.699 82.7938C220.612 82.3639 222.594 82.3822 224.499 82.8474C226.404 83.3126 228.184 84.213 229.709 85.4823C231.233 86.7516 232.463 88.3577 233.308 90.1826C234.154 92.0075 234.593 94.005 234.594 96.0283Z" fill="#B41E32"/>
<path d="M65.8118 166.254C70.1239 166.254 73.6196 161.867 73.6196 156.455C73.6196 151.043 70.1239 146.656 65.8118 146.656C61.4996 146.656 58.0039 151.043 58.0039 156.455C58.0039 161.867 61.4996 166.254 65.8118 166.254Z" fill="#FFE066"/>
<path d="M169.023 191.141H175.86L179.113 172.812L169.021 172.813L169.023 191.141Z" fill="#FFB8B8"/>
<path d="M167.279 188.837L180.744 188.836H180.745C181.872 188.836 182.988 189.065 184.029 189.511C185.07 189.957 186.016 190.61 186.813 191.433C187.61 192.257 188.242 193.235 188.673 194.311C189.104 195.387 189.326 196.54 189.326 197.705V197.993L167.28 197.994L167.279 188.837Z" fill="#2D2D2D"/>
<path d="M176.963 183.622C176.883 183.622 176.803 183.618 176.723 183.61L167.26 182.898C166.878 182.861 166.508 182.734 166.181 182.526C165.853 182.319 165.576 182.036 165.371 181.7C165.165 181.365 165.037 180.985 164.997 180.59C164.956 180.195 165.004 179.795 165.136 179.422L177.799 150.017C177.89 149.755 177.927 149.476 177.908 149.198C177.889 148.921 177.815 148.65 177.69 148.403C177.565 148.154 177.391 147.935 177.178 147.76C176.966 147.585 176.72 147.459 176.457 147.389C170.502 145.78 155.224 141.497 141.998 136.485C136.332 134.337 132.763 131.234 131.391 127.261C129.583 122.023 132.258 117.246 132.373 117.046L132.463 116.889L144.908 118.058L158.4 119.244L187.965 135.63C190.443 137.015 192.324 139.313 193.236 142.067C194.147 144.822 194.021 147.83 192.883 150.492L179.253 182.084C179.055 182.542 178.734 182.931 178.328 183.203C177.921 183.476 177.447 183.621 176.963 183.622Z" fill="#2D2D2D"/>
<path d="M147.071 59.8811C154.636 59.8811 160.769 53.5426 160.769 45.7237C160.769 37.9049 154.636 31.5664 147.071 31.5664C139.506 31.5664 133.373 37.9049 133.373 45.7237C133.373 53.5426 139.506 59.8811 147.071 59.8811Z" fill="#FFB8B8"/>
<path d="M165.118 192.871H171.956L175.209 174.543L165.117 174.544L165.118 192.871Z" fill="#FFB8B8"/>
<path d="M163.373 190.567L176.838 190.566H176.839C177.966 190.566 179.081 190.796 180.123 191.241C181.164 191.687 182.11 192.34 182.906 193.164C183.703 193.988 184.335 194.965 184.767 196.041C185.198 197.117 185.42 198.271 185.42 199.435V199.723L163.373 199.724L163.373 190.567Z" fill="#2D2D2D"/>
<path d="M173.058 185.358C172.979 185.358 172.899 185.354 172.818 185.346L163.356 184.634C162.973 184.597 162.604 184.47 162.276 184.263C161.949 184.055 161.672 183.773 161.466 183.437C161.261 183.101 161.133 182.721 161.092 182.326C161.052 181.931 161.099 181.532 161.232 181.159L173.895 151.753C173.986 151.491 174.023 151.212 174.004 150.935C173.985 150.657 173.911 150.386 173.786 150.14C173.661 149.89 173.487 149.671 173.274 149.496C173.062 149.321 172.816 149.195 172.553 149.125C166.598 147.517 151.32 143.233 138.094 138.221C132.428 136.073 128.859 132.97 127.487 128.997C125.678 123.759 128.354 118.982 128.469 118.782L128.559 118.625L141.004 119.794L154.495 120.98L184.061 137.366C186.538 138.751 188.42 141.049 189.332 143.804C190.243 146.558 190.117 149.566 188.979 152.229L175.348 183.821C175.151 184.278 174.83 184.667 174.424 184.94C174.017 185.212 173.543 185.358 173.058 185.358Z" fill="#2D2D2D"/>
<path d="M151.294 67.9123L136.794 62.7246C136.794 62.7246 127.691 69.9528 132.064 87.8843C134.347 97.1376 133.682 106.905 130.168 115.737C129.744 116.829 129.257 117.894 128.707 118.925C128.707 118.925 144.88 139.1 159.938 124.113L154.083 95.0038C154.083 95.0038 163.285 75.6939 151.294 67.9123Z" fill="#B41E32"/>
<path d="M145.861 60.7169C144.397 57.4207 143.517 53.0402 146.076 50.557C148.601 48.1057 152.664 49.1997 156.06 48.4916C160.79 47.5053 164.218 42.5142 164.162 37.5279C164.106 32.5416 160.96 27.8958 156.725 25.5077C152.49 23.1195 147.343 22.8181 142.652 23.987C136.878 25.4258 131.535 29.1723 128.702 34.5684C125.869 39.9644 125.847 47.0018 129.205 52.0642C132.806 57.4916 139.409 59.8705 145.708 60.8334" fill="#2D2D2D"/>
<path d="M213.623 95.0478C213.263 94.2228 212.732 93.4894 212.067 92.8994C211.403 92.3095 210.622 91.8772 209.778 91.6331C208.935 91.389 208.05 91.339 207.186 91.4867C206.322 91.6343 205.499 91.976 204.777 92.4876L151.533 80.1367L150.871 93.5856L203.416 101.497C204.328 102.695 205.634 103.505 207.085 103.774C208.537 104.044 210.033 103.753 211.291 102.958C212.549 102.163 213.482 100.919 213.912 99.461C214.341 98.0031 214.239 96.4328 213.623 95.0478Z" fill="#FFB8B8"/>
<path d="M160.866 81.3731L157.616 94.9878C157.524 95.3751 157.351 95.7374 157.111 96.0498C156.871 96.3622 156.569 96.6174 156.225 96.7981C155.88 96.9788 155.503 97.0808 155.117 97.0969C154.731 97.1131 154.347 97.0432 153.989 96.8919L141.473 91.5903C139.557 91.0912 137.911 89.8268 136.896 88.0747C135.881 86.3226 135.579 84.2258 136.058 82.2444C136.537 80.2631 137.757 78.559 139.45 77.5061C141.143 76.4532 143.171 76.1376 145.089 76.6283L158.512 77.944C158.896 77.9818 159.268 78.1048 159.602 78.3045C159.937 78.5042 160.225 78.7761 160.449 79.1015C160.672 79.4269 160.825 79.7983 160.897 80.1902C160.969 80.5822 160.958 80.9857 160.866 81.3731Z" fill="#B41E32"/>
<path d="M207.472 105.738C209.628 105.738 211.376 103.931 211.376 101.703C211.376 99.4745 209.628 97.668 207.472 97.668C205.316 97.668 203.568 99.4745 203.568 101.703C203.568 103.931 205.316 105.738 207.472 105.738Z" fill="#B41E32"/>
<path d="M360 236.613C360 237.806 359.954 238.948 359.872 239.791C359.791 240.634 359.681 241.11 359.566 241.113H0.434258C0.319086 241.113 0.20863 240.639 0.127191 239.795C0.0457517 238.951 0 237.807 0 236.613C0 235.42 0.0457517 234.275 0.127191 233.431C0.20863 232.587 0.319086 232.113 0.434258 232.113H359.566C359.681 232.117 359.791 232.592 359.872 233.435C359.954 234.279 360 235.421 360 236.613Z" fill="#FFEB66"/>
<line y1="-0.379885" x2="68.8175" y2="-0.379885" transform="matrix(-0.973479 -0.228777 0.214866 -0.976643 81.959 72.3125)" stroke="#B41E32" stroke-width="0.75977"/>
<line y1="-0.379874" x2="50.7163" y2="-0.379874" transform="matrix(-0.991491 -0.130179 0.121995 -0.992531 78.5195 85.5156)" stroke="#B41E32" stroke-width="0.759747"/>
<line x1="75.6035" y1="98.4639" x2="9.40056" y2="98.4638" stroke="#B41E32" stroke-width="0.759736"/>
<g clip-path="url(#clip0_2604_50564)">
<path d="M31.1227 148.633L40.1446 144.279L37.9074 154.192L45.4256 150.564L39.4808 169.837L37.5406 158.786L30.5236 162.172L31.1227 148.633Z" fill="#FFEB66" stroke="#FFEB66" stroke-width="0.842799" stroke-linejoin="round"/>
</g>
<g clip-path="url(#clip1_2604_50564)">
<path d="M278.108 81.1846L285.523 83.5896L279.182 88.0809L285.361 90.0851L272.113 97.9489L276.629 90.527L270.861 88.6564L278.108 81.1846Z" fill="#FFEB66" stroke="#FFEB66" stroke-width="0.657826" stroke-linejoin="round"/>
</g>
<g clip-path="url(#clip2_2604_50564)">
<path d="M80.0891 10.3482L91.5871 5.84915L87.9463 17.8415L97.528 14.0923L88.4851 37.2565L87.084 23.4628L78.1411 26.962L80.0891 10.3482Z" fill="#FFEB66" stroke="#FFEB66" stroke-width="1.04064" stroke-linejoin="round"/>
</g>
<defs>
<clipPath id="clip0_2604_50564">
<rect width="26.7128" height="27.2847" fill="white" transform="matrix(0.900626 -0.434594 0.411681 0.911328 20.6562 151.156)"/>
</clipPath>
<clipPath id="clip1_2604_50564">
<rect width="20.7885" height="21.3591" fill="white" transform="matrix(0.951223 0.308506 -0.290522 0.956868 270.799 76.9434)"/>
</clipPath>
<clipPath id="clip2_2604_50564">
<rect width="32.9251" height="33.7492" fill="white" transform="matrix(0.931247 -0.364388 0.343957 0.938985 66.9902 12.4609)"/>
</clipPath>
</defs>
</svg>
