<svg width="360" height="342" viewBox="0 0 360 342" fill="none" xmlns="http://www.w3.org/2000/svg">
<path d="M234.038 79.0089H232.215V29.0646C232.215 21.3982 229.169 14.0457 223.748 8.62472C218.327 3.20371 210.975 0.158213 203.308 0.158203H97.4944C93.6984 0.15819 89.9395 0.905864 86.4324 2.35853C82.9253 3.81121 79.7387 5.94042 77.0545 8.62462C74.3702 11.3088 72.241 14.4954 70.7883 18.0025C69.3356 21.5096 68.5879 25.2685 68.5879 29.0645V303.063C68.5879 306.859 69.3356 310.618 70.7882 314.125C72.2409 317.632 74.3702 320.819 77.0544 323.503C79.7386 326.187 82.9252 328.316 86.4322 329.769C89.9393 331.222 93.6982 331.97 97.4943 331.97H203.308C207.104 331.97 210.863 331.222 214.37 329.769C217.877 328.316 221.064 326.187 223.748 323.503C226.432 320.819 228.562 317.632 230.014 314.125C231.467 310.618 232.215 306.859 232.215 303.063V114.56H234.038V79.0089Z" fill="#232323"/>
<path d="M204.258 8.36328H190.446C191.081 9.92055 191.324 11.6101 191.152 13.2832C190.98 14.9562 190.4 16.5614 189.462 17.9573C188.524 19.3532 187.257 20.497 185.772 21.2879C184.288 22.0788 182.632 22.4925 180.95 22.4926H120.331C118.649 22.4925 116.993 22.0788 115.509 21.2879C114.025 20.497 112.758 19.3532 111.819 17.9573C110.881 16.5614 110.301 14.9562 110.129 13.2832C109.958 11.6101 110.2 9.92056 110.835 8.36328H97.9347C92.2095 8.36328 86.7187 10.6376 82.6704 14.6859C78.622 18.7343 76.3477 24.225 76.3477 29.9502V303.547C76.3477 306.382 76.906 309.189 77.9909 311.808C79.0757 314.427 80.6658 316.806 82.6703 318.811C84.6749 320.816 87.0546 322.406 89.6737 323.49C92.2927 324.575 95.0998 325.134 97.9346 325.134H204.258C209.983 325.134 215.474 322.859 219.522 318.811C223.571 314.763 225.845 309.272 225.845 303.547V29.9503C225.845 27.1154 225.287 24.3083 224.202 21.6893C223.117 19.0702 221.527 16.6905 219.522 14.686C217.518 12.6814 215.138 11.0913 212.519 10.0065C209.9 8.92164 207.093 8.36328 204.258 8.36328ZM201.938 135.286C201.933 136.768 201.343 138.188 200.295 139.235C199.247 140.283 197.828 140.874 196.346 140.878H169.321C167.839 140.874 166.419 140.283 165.372 139.235C164.324 138.188 163.733 136.768 163.729 135.286V133.889C163.733 132.407 164.324 130.987 165.372 129.94C166.419 128.892 167.839 128.301 169.321 128.297H196.346C197.828 128.301 199.247 128.892 200.295 129.94C201.343 130.987 201.933 132.407 201.938 133.889V135.286ZM204.966 110.591C204.962 112.072 204.371 113.492 203.324 114.54C202.276 115.587 200.856 116.178 199.375 116.182H102.456C100.974 116.178 99.5546 115.587 98.5069 114.54C97.4593 113.492 96.8688 112.072 96.8644 110.591V109.193C96.8688 107.711 97.4593 106.292 98.5069 105.244C99.5546 104.196 100.974 103.606 102.456 103.601H199.375C200.856 103.606 202.276 104.196 203.324 105.244C204.371 106.292 204.962 107.711 204.966 109.193V110.591ZM204.966 85.8951C204.962 87.3767 204.371 88.7964 203.324 89.844C202.276 90.8917 200.856 91.4822 199.375 91.4865H102.456C100.974 91.4822 99.5546 90.8917 98.5069 89.8441C97.4593 88.7964 96.8688 87.3767 96.8644 85.8951V84.4972C96.8688 83.0156 97.4593 81.5959 98.5069 80.5482C99.5546 79.5006 100.974 78.9101 102.456 78.9057H199.375C200.856 78.9101 202.276 79.5006 203.324 80.5482C204.371 81.5959 204.962 83.0156 204.966 84.4972V85.8951ZM204.966 61.1994C204.962 62.681 204.371 64.1007 203.324 65.1484C202.276 66.196 200.856 66.7865 199.375 66.7909H102.456C100.974 66.7865 99.5546 66.196 98.5069 65.1484C97.4593 64.1007 96.8688 62.681 96.8644 61.1994V59.8015C96.8688 58.3199 97.4593 56.9002 98.5069 55.8525C99.5546 54.8049 100.974 54.2144 102.456 54.2101H199.375C200.856 54.2144 202.276 54.8049 203.324 55.8526C204.371 56.9002 204.962 58.3199 204.966 59.8015V61.1994Z" fill="white"/>
<path d="M104.553 113.385C106.354 113.385 107.814 111.924 107.814 110.123C107.814 108.322 106.354 106.861 104.553 106.861C102.751 106.861 101.291 108.322 101.291 110.123C101.291 111.924 102.751 113.385 104.553 113.385Z" fill="white"/>
<path d="M115.27 113.385C117.071 113.385 118.531 111.924 118.531 110.123C118.531 108.322 117.071 106.861 115.27 106.861C113.468 106.861 112.008 108.322 112.008 110.123C112.008 111.924 113.468 113.385 115.27 113.385Z" fill="white"/>
<path d="M125.984 113.385C127.786 113.385 129.246 111.924 129.246 110.123C129.246 108.322 127.786 106.861 125.984 106.861C124.183 106.861 122.723 108.322 122.723 110.123C122.723 111.924 124.183 113.385 125.984 113.385Z" fill="white"/>
<path d="M136.703 113.385C138.504 113.385 139.965 111.924 139.965 110.123C139.965 108.322 138.504 106.861 136.703 106.861C134.902 106.861 133.441 108.322 133.441 110.123C133.441 111.924 134.902 113.385 136.703 113.385Z" fill="white"/>
<path d="M171.648 138.082C173.45 138.082 174.91 136.622 174.91 134.82C174.91 133.019 173.45 131.559 171.648 131.559C169.847 131.559 168.387 133.019 168.387 134.82C168.387 136.622 169.847 138.082 171.648 138.082Z" fill="white"/>
<path d="M182.365 138.082C184.167 138.082 185.627 136.622 185.627 134.82C185.627 133.019 184.167 131.559 182.365 131.559C180.564 131.559 179.104 133.019 179.104 134.82C179.104 136.622 180.564 138.082 182.365 138.082Z" fill="white"/>
<path d="M193.084 138.082C194.885 138.082 196.346 136.622 196.346 134.82C196.346 133.019 194.885 131.559 193.084 131.559C191.283 131.559 189.822 133.019 189.822 134.82C189.822 136.622 191.283 138.082 193.084 138.082Z" fill="white"/>
<path d="M205.717 177.078H95.1839C92.5871 177.078 90.0966 178.11 88.2604 179.946C86.4242 181.782 85.3926 184.273 85.3926 186.869V240.723C85.3926 243.32 86.4242 245.811 88.2604 247.647C90.0966 249.483 92.5871 250.515 95.1839 250.515H205.717C208.314 250.515 210.805 249.483 212.641 247.647C214.477 245.811 215.509 243.32 215.509 240.724V186.869C215.509 184.273 214.477 181.782 212.641 179.946C210.805 178.11 208.314 177.078 205.717 177.078ZM92.4491 183.757C92.6674 183.718 97.8432 182.837 102.129 185.416C106.415 187.994 108.061 192.98 108.129 193.191L108.302 193.729L107.746 193.827C106.953 193.951 106.151 194.01 105.348 194.003C102.8 194.052 100.286 193.419 98.066 192.168C93.7804 189.59 92.1341 184.604 92.0662 184.394L91.8929 183.856L92.4491 183.757ZM116.443 233.757H96.7284C95.2906 233.757 93.9116 233.186 92.8949 232.17C91.8781 231.153 91.3069 229.774 91.3069 228.336C91.3069 226.898 91.8781 225.519 92.8949 224.502C93.9116 223.486 95.2906 222.914 96.7284 222.914H116.443C117.881 222.914 119.26 223.486 120.277 224.502C121.293 225.519 121.864 226.898 121.864 228.336C121.864 229.774 121.293 231.153 120.277 232.17C119.26 233.186 117.881 233.757 116.443 233.757ZM206.144 232.772C206.14 234.339 205.515 235.841 204.407 236.949C203.299 238.057 201.797 238.681 200.23 238.686H185.444C183.877 238.681 182.375 238.057 181.267 236.949C180.159 235.841 179.534 234.339 179.53 232.772V223.9C179.534 222.333 180.159 220.831 181.267 219.723C182.375 218.615 183.877 217.99 185.444 217.986H200.23C201.797 217.99 203.299 218.615 204.407 219.723C205.515 220.831 206.14 222.333 206.144 223.9L206.144 232.772Z" fill="#B41E32"/>
<path d="M190.212 230.945H184.267C183.842 230.945 183.435 231.114 183.135 231.414C182.835 231.714 182.666 232.121 182.666 232.546C182.666 232.97 182.835 233.378 183.135 233.678C183.435 233.978 183.842 234.146 184.267 234.146H190.212C190.636 234.146 191.043 233.978 191.343 233.678C191.644 233.378 191.812 232.97 191.812 232.546C191.812 232.121 191.644 231.714 191.343 231.414C191.043 231.114 190.636 230.945 190.212 230.945Z" fill="#FFE066"/>
<path d="M201.421 230.514H195.476C195.051 230.514 194.644 230.682 194.344 230.982C194.044 231.283 193.875 231.69 193.875 232.114C193.875 232.539 194.044 232.946 194.344 233.246C194.644 233.546 195.051 233.715 195.476 233.715H201.421C201.845 233.715 202.252 233.546 202.552 233.246C202.853 232.946 203.021 232.539 203.021 232.114C203.021 231.69 202.853 231.283 202.552 230.982C202.252 230.682 201.845 230.514 201.421 230.514Z" fill="#FFE066"/>
<path d="M190.442 225.994H184.497C184.073 225.994 183.665 226.163 183.365 226.463C183.065 226.763 182.896 227.17 182.896 227.595C182.896 228.019 183.065 228.426 183.365 228.727C183.665 229.027 184.073 229.195 184.497 229.195H190.442C190.867 229.195 191.274 229.027 191.574 228.727C191.874 228.426 192.043 228.019 192.043 227.595C192.043 227.17 191.874 226.763 191.574 226.463C191.274 226.163 190.867 225.994 190.442 225.994Z" fill="#FFE066"/>
<path d="M201.421 225.994H195.476C195.051 225.994 194.644 226.163 194.344 226.463C194.044 226.763 193.875 227.17 193.875 227.595C193.875 228.019 194.044 228.426 194.344 228.727C194.644 229.027 195.051 229.195 195.476 229.195H201.421C201.845 229.195 202.252 229.027 202.552 228.727C202.853 228.426 203.021 228.019 203.021 227.595C203.021 227.17 202.853 226.763 202.552 226.463C202.252 226.163 201.845 225.994 201.421 225.994Z" fill="#FFE066"/>
<path d="M190.442 221.57H184.497C184.073 221.57 183.665 221.739 183.365 222.039C183.065 222.339 182.896 222.746 182.896 223.171C182.896 223.595 183.065 224.003 183.365 224.303C183.665 224.603 184.073 224.771 184.497 224.771H190.442C190.867 224.771 191.274 224.603 191.574 224.303C191.874 224.003 192.043 223.595 192.043 223.171C192.043 222.746 191.874 222.339 191.574 222.039C191.274 221.739 190.867 221.57 190.442 221.57Z" fill="#FFE066"/>
<path d="M201.421 221.57H195.476C195.051 221.57 194.644 221.739 194.344 222.039C194.044 222.339 193.875 222.746 193.875 223.171C193.875 223.595 194.044 224.003 194.344 224.303C194.644 224.603 195.051 224.771 195.476 224.771H201.421C201.845 224.771 202.252 224.603 202.552 224.303C202.853 224.003 203.021 223.595 203.021 223.171C203.021 222.746 202.853 222.339 202.552 222.039C202.252 221.739 201.845 221.57 201.421 221.57Z" fill="#FFE066"/>
<path d="M283.07 325.775H276.757L273.754 301.426H283.071L283.07 325.775Z" fill="#FFB8B8"/>
<path d="M272.24 323.969H284.414V331.634H264.574C264.574 329.601 265.382 327.651 266.819 326.214C268.257 324.776 270.207 323.969 272.24 323.969Z" fill="#232323"/>
<path d="M314.476 325.775H308.163L305.16 301.426H314.477L314.476 325.775Z" fill="#FFB8B8"/>
<path d="M303.652 323.969H315.826V331.634H295.986C295.986 329.601 296.794 327.651 298.231 326.214C299.669 324.776 301.619 323.969 303.652 323.969Z" fill="#232323"/>
<path d="M251.396 238.696C250.942 238.027 250.64 237.266 250.512 236.468C250.383 235.669 250.431 234.853 250.653 234.075C250.874 233.297 251.264 232.577 251.793 231.966C252.323 231.355 252.98 230.868 253.719 230.538L275.178 171.393L285.737 177.155L261.235 233.677C261.707 234.954 261.693 236.36 261.197 237.628C260.702 238.896 259.758 239.938 258.545 240.557C257.332 241.175 255.935 241.328 254.617 240.985C253.299 240.642 252.153 239.827 251.396 238.696Z" fill="#FFB8B8"/>
<path d="M311.249 249.813C310.547 249.41 309.942 248.859 309.477 248.198C309.011 247.537 308.697 246.781 308.555 245.985C308.413 245.189 308.447 244.372 308.655 243.59C308.863 242.809 309.24 242.082 309.759 241.462L303.111 178.896L315.128 179.445L317.891 240.987C318.875 241.929 319.479 243.198 319.589 244.555C319.7 245.912 319.308 247.262 318.49 248.35C317.671 249.438 316.482 250.188 315.147 250.457C313.813 250.727 312.426 250.497 311.249 249.813Z" fill="#FFB8B8"/>
<path d="M292.082 160.438C299.067 160.438 304.729 154.776 304.729 147.791C304.729 140.807 299.067 135.145 292.082 135.145C285.098 135.145 279.436 140.807 279.436 147.791C279.436 154.776 285.098 160.438 292.082 160.438Z" fill="#FFB8B8"/>
<path d="M311.166 235.581H273.039L273.085 235.284C273.153 234.841 279.88 190.776 274.919 176.36C274.421 174.944 274.465 173.393 275.042 172.007C275.619 170.62 276.688 169.497 278.044 168.851C285.135 165.512 298.747 161.4 310.236 171.379C311.927 172.872 313.247 174.737 314.092 176.828C314.938 178.919 315.285 181.178 315.107 183.426L311.166 235.581Z" fill="#B41E32"/>
<path d="M280.364 197.29L263.199 193.808L271.245 174.741C271.727 172.894 272.921 171.313 274.566 170.346C276.211 169.379 278.173 169.103 280.021 169.58C281.869 170.057 283.452 171.248 284.423 172.891C285.395 174.534 285.675 176.495 285.202 178.344L280.364 197.29Z" fill="#B41E32"/>
<path d="M302.351 203.758L301.319 180.103C300.537 175.656 303.082 171.452 306.997 170.765C310.913 170.08 314.737 173.165 315.523 177.644L319.402 199.748L302.351 203.758Z" fill="#B41E32"/>
<path d="M309.897 232.75C316.032 256.115 316.701 285.821 315.046 318.225L306.808 317.195L291.875 255.406L283.637 318.225L274.368 317.71C271.6 283.71 268.904 254.523 273.339 235.325L309.897 232.75Z" fill="#232323"/>
<path d="M300.411 157.567C298.052 160.08 293.67 158.731 293.363 155.298C293.339 155.031 293.34 154.763 293.368 154.497C293.527 152.976 294.405 151.595 294.195 149.989C294.147 149.59 293.998 149.209 293.762 148.883C291.882 146.365 287.469 150.009 285.695 147.73C284.607 146.332 285.886 144.132 285.051 142.57C283.949 140.509 280.685 141.526 278.638 140.397C276.361 139.141 276.497 135.647 277.996 133.521C279.824 130.93 283.03 129.547 286.195 129.347C289.361 129.148 292.504 130.004 295.459 131.155C298.817 132.464 302.147 134.272 304.213 137.225C306.726 140.815 306.968 145.642 305.711 149.841C304.947 152.395 302.338 155.515 300.411 157.567Z" fill="#232323"/>
<path d="M359.06 341.113H0.939948C0.690658 341.113 0.451592 340.586 0.275318 339.649C0.0990435 338.711 0 337.439 0 336.113C0 334.787 0.0990435 333.516 0.275318 332.578C0.451592 331.64 0.690658 331.113 0.939948 331.113H359.06C359.309 331.113 359.548 331.64 359.725 332.578C359.901 333.516 360 334.787 360 336.113C360 337.439 359.901 338.711 359.725 339.649C359.548 340.586 359.309 341.113 359.06 341.113Z" fill="#FFE066"/>
<path d="M26.6872 161.972C29.0217 161.598 31.4089 162.168 33.3237 163.554C35.2385 164.941 36.524 167.032 36.8974 169.366L37.7422 174.648C39.1429 174.424 40.5752 174.765 41.7241 175.597C42.8729 176.429 43.6442 177.684 43.8683 179.084L45.5578 189.647C45.7819 191.048 45.4403 192.48 44.6083 193.629C43.7762 194.778 42.5219 195.549 41.1212 195.773L23.5166 198.589C22.1159 198.813 20.6836 198.471 19.5347 197.639C18.3858 196.807 17.6146 195.553 17.3905 194.152L15.701 183.59C15.4769 182.189 15.8185 180.757 16.6505 179.608C17.4825 178.459 18.7369 177.688 20.1376 177.463L19.2928 172.182C18.9194 169.848 19.4887 167.46 20.8754 165.546C22.2621 163.631 24.3527 162.345 26.6872 161.972ZM30.0662 183.097C29.1779 183.239 28.376 183.712 27.8213 184.42C27.2665 185.128 27 186.02 27.075 186.916L27.1085 187.181C27.2199 187.878 27.5353 188.526 28.0147 189.043C28.4942 189.56 29.1163 189.923 29.8023 190.087C30.4883 190.25 31.2074 190.207 31.8686 189.962C32.5299 189.717 33.1036 189.281 33.5173 188.71C33.9309 188.139 34.1659 187.458 34.1925 186.753C34.2191 186.048 34.0362 185.351 33.6668 184.751C33.2974 184.15 32.7581 183.672 32.1172 183.378C31.4764 183.084 30.7626 182.986 30.0662 183.097ZM27.2503 165.493C25.8496 165.717 24.5953 166.488 23.7633 167.637C22.9313 168.786 22.5897 170.218 22.8137 171.619L23.6585 176.9L34.2212 175.211L33.3765 169.929C33.1524 168.529 32.3811 167.274 31.2323 166.442C30.0834 165.61 28.651 165.269 27.2503 165.493Z" fill="#FFE066"/>
<path d="M266.331 54.511C268.75 54.9907 270.879 56.4117 272.251 58.4615C273.622 60.5113 274.123 63.022 273.644 65.4411L272.558 70.914C274.01 71.2018 275.288 72.0545 276.11 73.2843C276.933 74.5142 277.234 76.0206 276.946 77.4721L274.776 88.4179C274.488 89.8694 273.635 91.1471 272.405 91.97C271.176 92.7928 269.669 93.0934 268.218 92.8056L249.975 89.1883C248.523 88.9005 247.245 88.0479 246.423 86.818C245.6 85.5881 245.299 84.0818 245.587 82.6303L247.757 71.6845C248.045 70.233 248.898 68.9552 250.128 68.1324C251.358 67.3095 252.864 67.0089 254.315 67.2968L255.401 61.8239C255.88 59.4047 257.301 57.2752 259.351 55.9037C261.401 54.5323 263.912 54.0313 266.331 54.511ZM261.99 76.4026C261.07 76.2198 260.114 76.3916 259.315 76.8837C258.516 77.3758 257.932 78.1517 257.681 79.0559L257.618 79.3277C257.475 80.0494 257.549 80.7972 257.831 81.4767C258.113 82.1562 258.59 82.7368 259.202 83.1452C259.814 83.5535 260.533 83.7713 261.269 83.7708C262.004 83.7704 262.723 83.5518 263.335 83.1427C263.946 82.7336 264.423 82.1524 264.704 81.4725C264.985 80.7927 265.058 80.0448 264.914 79.3233C264.77 78.6019 264.416 77.9393 263.895 77.4194C263.375 76.8995 262.712 76.5457 261.99 76.4026ZM265.607 58.1596C264.156 57.8718 262.649 58.1724 261.419 58.9952C260.19 59.8181 259.337 61.0958 259.049 62.5473L257.964 68.0202L268.91 70.1906L269.995 64.7177C270.283 63.2662 269.982 61.7598 269.159 60.5299C268.336 59.3 267.059 58.4474 265.607 58.1596Z" fill="#FFE066"/>
</svg>
