<svg width="308" height="279" viewBox="0 0 308 279" fill="none" xmlns="http://www.w3.org/2000/svg">
<path d="M119.39 160.233H47.34L46.5762 138.081C46.5432 137.12 46.7186 136.164 47.0904 135.278C47.4623 134.392 48.0217 133.597 48.7302 132.948C49.4386 132.299 50.2794 131.811 51.1944 131.518C52.1095 131.225 53.0773 131.134 54.031 131.25L95.9593 136.385H95.9645C102.18 136.401 108.136 138.881 112.527 143.281C116.918 147.681 119.386 153.642 119.39 159.858V160.233Z" fill="#FFE066"/>
<path d="M87.2758 81.6523H37.0243C36.356 81.6522 35.6942 81.7837 35.0767 82.0393C34.4592 82.295 33.8982 82.6698 33.4256 83.1424C32.953 83.615 32.5782 84.176 32.3225 84.7935C32.0669 85.411 31.9354 86.0728 31.9355 86.7411V136.993C31.9354 137.661 32.0669 138.323 32.3225 138.94C32.5782 139.558 32.953 140.119 33.4256 140.591C33.8982 141.064 34.4592 141.439 35.0767 141.694C35.6942 141.95 36.356 142.081 37.0243 142.081H87.2758C87.9441 142.081 88.6059 141.95 89.2234 141.694C89.8408 141.439 90.4019 141.064 90.8745 140.591C91.3471 140.119 91.7219 139.558 91.9775 138.94C92.2332 138.323 92.3647 137.661 92.3645 136.993V86.7411C92.3647 86.0728 92.2332 85.411 91.9775 84.7935C91.7219 84.176 91.3471 83.615 90.8745 83.1424C90.4019 82.6698 89.8408 82.295 89.2234 82.0393C88.6059 81.7837 87.9441 81.6522 87.2758 81.6523Z" fill="#2D2D2D"/>
<path d="M75.9597 119.229L52.2338 123.849C50.8264 124.122 49.3685 123.825 48.1798 123.023C46.9911 122.222 46.1688 120.982 45.8932 119.575L44.0694 110.21C43.7969 108.803 44.0939 107.345 44.8951 106.156C45.6963 104.967 46.9363 104.145 48.343 103.869L72.0689 99.2491C73.4763 98.9766 74.9342 99.2736 76.1229 100.075C77.3116 100.876 78.1339 102.116 78.4095 103.523L80.2333 112.888C80.5058 114.296 80.2088 115.753 79.4076 116.942C78.6064 118.131 77.3665 118.953 75.9597 119.229Z" fill="#FFEB66"/>
<path d="M92.3645 86.7411V93.4201H31.9355V86.7411C31.9354 86.0728 32.0669 85.411 32.3225 84.7935C32.5782 84.176 32.953 83.615 33.4256 83.1424C33.8982 82.6698 34.4592 82.295 35.0767 82.0393C35.6942 81.7837 36.356 81.6522 37.0243 81.6523H87.2758C87.9441 81.6522 88.6059 81.7837 89.2234 82.0393C89.8408 82.295 90.4019 82.6698 90.8744 83.1424C91.347 83.615 91.7219 84.176 91.9775 84.7935C92.2332 85.411 92.3647 86.0728 92.3645 86.7411Z" fill="#B41E32"/>
<path d="M213.037 95.5117C212.689 94.3856 212.097 93.3497 211.304 92.4769C210.512 91.6041 209.538 90.9157 208.45 90.4602C207.363 90.0046 206.189 89.7931 205.011 89.8404C203.833 89.8877 202.68 90.1927 201.632 90.7339L132.498 65.9297L129.453 83.2006L198.367 102.152C199.393 103.851 201.007 105.115 202.902 105.704C204.798 106.293 206.843 106.166 208.651 105.348C210.46 104.529 211.905 103.076 212.713 101.263C213.522 99.4503 213.637 97.4039 213.037 95.5117Z" fill="#FFB8B8"/>
<path opacity="0.2" d="M213.037 95.5117C212.689 94.3856 212.097 93.3497 211.304 92.4769C210.512 91.6041 209.538 90.9157 208.45 90.4602C207.363 90.0046 206.189 89.7931 205.011 89.8404C203.833 89.8877 202.68 90.1927 201.632 90.7339L132.498 65.9297L129.453 83.2006L198.367 102.152C199.393 103.851 201.007 105.115 202.902 105.704C204.798 106.293 206.843 106.166 208.651 105.348C210.46 104.529 211.905 103.076 212.713 101.263C213.522 99.4503 213.637 97.4039 213.037 95.5117Z" fill="black"/>
<path d="M144.767 69.076L138.239 86.1314C138.053 86.6166 137.765 87.0562 137.394 87.42C137.023 87.7839 136.578 88.0635 136.089 88.2399C135.601 88.4163 135.08 88.4852 134.562 88.4421C134.044 88.399 133.542 88.2447 133.089 87.9899L117.222 79.0597C114.745 78.0951 112.752 76.1876 111.679 73.7554C110.606 71.3232 110.541 68.5648 111.498 66.0848C112.456 63.6049 114.358 61.6059 116.787 60.526C119.216 59.4462 121.974 59.3735 124.457 60.3241L142.174 64.2536C142.682 64.3662 143.159 64.5869 143.573 64.9005C143.987 65.2142 144.329 65.6134 144.575 66.071C144.821 66.5287 144.966 67.034 144.999 67.5525C145.032 68.0711 144.953 68.5907 144.767 69.076Z" fill="#B41E32"/>
<path d="M218.479 111.305L193.707 122.565L196.959 134.809C203.24 158.453 204.907 183.086 201.869 207.361L219.98 211.144L234.994 172.86L229.739 129.321L218.479 111.305Z" fill="#FFE066"/>
<path d="M267.086 167.98C250.81 167.98 237.546 179.813 236.902 194.629H297.27C296.626 179.813 283.362 167.98 267.086 167.98Z" fill="#FFEB66"/>
<path d="M254.588 170.961C253.741 104.078 215.649 110.231 215.649 110.231C215.649 110.231 216.362 131.049 216.704 131.697C240.977 177.622 200.917 231.464 149.924 221.559C148.963 221.372 148.039 221.182 147.153 220.99C140.692 219.641 134.988 215.882 131.2 210.476C127.412 205.071 125.825 198.426 126.763 191.892C131.786 151.554 106.802 152.268 106.802 152.268H70.2696L51.2976 135.194C50.6279 134.591 49.8208 134.161 48.9468 133.943C48.0728 133.724 47.1585 133.723 46.2839 133.939C45.4093 134.155 44.6011 134.583 43.9298 135.184C43.2585 135.785 42.7447 136.541 42.4332 137.386L39.9924 144.011C39.9924 144.011 3.96023 147.764 6.96291 183.046H18.1027C18.0758 184.048 18.116 185.051 18.223 186.048L101.36 185.372C106.234 185.333 110.535 189.282 110.555 194.155C110.56 195.342 110.326 196.517 109.866 197.611C109.407 198.704 108.731 199.694 107.88 200.521C107.029 201.348 106.02 201.994 104.913 202.422C103.806 202.849 102.625 203.049 101.439 203.01L88.0353 202.563C83.9067 220.955 94.0407 233.341 105.207 241.129C115.72 248.355 128.195 252.187 140.952 252.107H177.365C224.657 252.107 232.915 212.322 232.915 212.322C257.687 201.812 254.588 170.961 254.588 170.961Z" fill="#B41E32"/>
<path d="M264.833 273.448C288.153 273.448 307.058 254.544 307.058 231.223C307.058 207.903 288.153 188.998 264.833 188.998C241.512 188.998 222.607 207.903 222.607 231.223C222.607 254.544 241.512 273.448 264.833 273.448Z" fill="#2D2D2D"/>
<path d="M264.832 241.574C270.547 241.574 275.181 236.94 275.181 231.224C275.181 225.509 270.547 220.875 264.832 220.875C259.116 220.875 254.482 225.509 254.482 231.224C254.482 236.94 259.116 241.574 264.832 241.574Z" fill="#FFEB66"/>
<path d="M51.6411 273.448C78.4853 273.448 100.247 251.687 100.247 224.842C100.247 197.998 78.4853 176.236 51.6411 176.236C24.7968 176.236 3.03516 197.998 3.03516 224.842C3.03516 251.687 24.7968 273.448 51.6411 273.448Z" fill="#2D2D2D"/>
<path d="M51.6417 236.758C58.2212 236.758 63.5549 231.424 63.5549 224.845C63.5549 218.265 58.2212 212.932 51.6417 212.932C45.0622 212.932 39.7285 218.265 39.7285 224.845C39.7285 231.424 45.0622 236.758 51.6417 236.758Z" fill="#FFEB66"/>
<path d="M193.778 125.892L184.865 101.683C184.4 100.421 184.189 99.0803 184.243 97.7369C184.296 96.3935 184.614 95.0738 185.178 93.8532C185.741 92.6325 186.54 91.5349 187.528 90.623C188.516 89.711 189.674 89.0025 190.935 88.5381L216.488 79.1312C218.708 78.3137 221.067 77.9415 223.431 78.0358C225.795 78.1301 228.117 78.6891 230.265 79.6808C232.413 80.6725 234.344 82.0775 235.949 83.8157C237.554 85.5539 238.8 87.5911 239.618 89.811C240.355 91.8036 240.731 93.9115 240.73 96.036C240.72 98.7336 240.11 101.395 238.943 103.827C237.775 106.259 236.081 108.401 233.983 110.096C232.467 111.312 230.763 112.273 228.938 112.94L193.778 125.892Z" fill="#2D2D2D"/>
<path d="M240.353 96.0368C240.35 98.6794 239.756 101.288 238.613 103.671C237.469 106.053 235.807 108.149 233.746 109.804C230.586 108.97 227.644 107.458 225.127 105.373C222.61 103.288 220.577 100.679 219.17 97.7289C217.762 94.7785 217.014 91.557 216.978 88.2884C216.941 85.0198 217.617 81.7825 218.958 78.8014C221.533 78.2415 224.201 78.2653 226.765 78.8712C229.329 79.4771 231.725 80.6496 233.777 82.3026C235.829 83.9557 237.485 86.0473 238.623 88.4239C239.761 90.8006 240.352 93.4018 240.353 96.0368Z" fill="#B41E32"/>
<path d="M13.1695 187.495C18.9737 187.495 23.6789 181.782 23.6789 174.734C23.6789 167.686 18.9737 161.973 13.1695 161.973C7.36537 161.973 2.66016 167.686 2.66016 174.734C2.66016 181.782 7.36537 187.495 13.1695 187.495Z" fill="#FFE066"/>
<path d="M152.089 219.906H161.293L165.671 196.037L152.088 196.038L152.089 219.906Z" fill="#FFB8B8"/>
<path d="M149.742 216.905L167.866 216.904H167.867C169.384 216.904 170.886 217.203 172.287 217.783C173.688 218.364 174.962 219.215 176.034 220.287C177.107 221.36 177.958 222.633 178.538 224.034C179.118 225.436 179.417 226.937 179.417 228.454V228.83L149.743 228.831L149.742 216.905Z" fill="#2D2D2D"/>
<path d="M162.773 210.112C162.666 210.112 162.558 210.107 162.45 210.097L149.714 209.169C149.199 209.121 148.702 208.956 148.261 208.686C147.82 208.415 147.446 208.047 147.17 207.61C146.894 207.173 146.722 206.678 146.667 206.163C146.612 205.649 146.676 205.129 146.854 204.643L163.899 166.348C164.021 166.007 164.071 165.644 164.046 165.282C164.02 164.921 163.92 164.568 163.752 164.247C163.584 163.922 163.35 163.637 163.064 163.409C162.777 163.181 162.446 163.017 162.092 162.926C154.077 160.831 133.513 155.252 115.711 148.725C108.084 145.928 103.281 141.887 101.434 136.713C98.9996 129.891 102.601 123.671 102.756 123.41L102.876 123.205L119.627 124.728L137.787 126.272L177.583 147.612C180.917 149.415 183.45 152.409 184.677 155.996C185.904 159.582 185.734 163.5 184.202 166.968L165.855 208.11C165.59 208.706 165.158 209.212 164.611 209.567C164.064 209.923 163.425 210.112 162.773 210.112Z" fill="#2D2D2D"/>
<path d="M122.541 48.9624C132.723 48.9624 140.978 40.7077 140.978 30.5251C140.978 20.3425 132.723 12.0879 122.541 12.0879C112.358 12.0879 104.104 20.3425 104.104 30.5251C104.104 40.7077 112.358 48.9624 122.541 48.9624Z" fill="#FFB8B8"/>
<path d="M146.834 222.16H156.037L160.415 198.291L146.832 198.292L146.834 222.16Z" fill="#FFB8B8"/>
<path d="M144.486 219.157L162.61 219.156H162.611C164.128 219.156 165.63 219.455 167.031 220.035C168.433 220.616 169.706 221.467 170.778 222.539C171.851 223.612 172.702 224.885 173.282 226.286C173.863 227.688 174.161 229.189 174.161 230.706V231.082L144.487 231.083L144.486 219.157Z" fill="#2D2D2D"/>
<path d="M157.517 212.364C157.41 212.364 157.302 212.359 157.194 212.349L144.458 211.421C143.943 211.373 143.446 211.208 143.005 210.938C142.564 210.667 142.191 210.299 141.914 209.862C141.638 209.425 141.466 208.93 141.411 208.415C141.356 207.901 141.42 207.381 141.598 206.895L158.644 168.6C158.765 168.259 158.815 167.896 158.79 167.534C158.764 167.173 158.664 166.82 158.496 166.499C158.328 166.174 158.094 165.889 157.808 165.661C157.522 165.433 157.191 165.269 156.836 165.178C148.821 163.083 128.257 157.504 110.455 150.977C102.828 148.18 98.0249 144.139 96.1783 138.965C93.7437 132.143 97.3453 125.923 97.4998 125.662L97.6206 125.457L114.372 126.98L132.531 128.524L172.327 149.864C175.661 151.667 178.194 154.661 179.421 158.247C180.648 161.834 180.478 165.752 178.947 169.219L160.6 210.362C160.334 210.958 159.902 211.464 159.355 211.819C158.808 212.175 158.169 212.364 157.517 212.364Z" fill="#2D2D2D"/>
<path d="M128.226 59.4181L108.709 52.6621C108.709 52.6621 96.4565 62.0755 102.342 85.4278C105.415 97.4784 104.52 110.199 99.7901 121.7C99.2206 123.123 98.5641 124.51 97.8242 125.852C97.8242 125.852 119.594 152.126 139.862 132.608L131.98 94.6996C131.98 94.6996 144.366 69.5522 128.226 59.4181Z" fill="#B41E32"/>
<path d="M124.829 49.59C122.205 45.6623 120.134 40.216 123.023 36.4789C125.875 32.79 131.5 33.3335 135.867 31.7011C141.951 29.4276 145.479 22.2807 144.379 15.8803C143.278 9.47981 138.14 4.17401 132.019 2.00305C125.899 -0.167913 118.997 0.538135 113.003 3.03813C105.624 6.11565 99.2946 12.0689 96.6404 19.6101C93.9863 27.1513 95.4051 36.206 100.911 42.0023C106.814 48.2166 116.079 49.8728 124.649 49.7723" fill="#2D2D2D"/>
<path d="M212.121 94.7607C211.636 93.6862 210.921 92.7311 210.027 91.9628C209.133 91.1945 208.081 90.6315 206.945 90.3137C205.81 89.9958 204.619 89.9307 203.456 90.123C202.293 90.3152 201.186 90.7602 200.213 91.4265L128.547 75.3418L127.656 92.8564L198.382 103.16C199.61 104.719 201.367 105.775 203.32 106.125C205.274 106.476 207.289 106.098 208.982 105.063C210.675 104.027 211.93 102.407 212.509 100.508C213.087 98.6094 212.949 96.5644 212.121 94.7607Z" fill="#FFB8B8"/>
<path d="M141.11 76.9519L136.736 94.6825C136.612 95.187 136.38 95.6587 136.057 96.0656C135.733 96.4724 135.326 96.8048 134.863 97.0402C134.4 97.2755 133.891 97.4082 133.372 97.4293C132.853 97.4504 132.335 97.3593 131.854 97.1623L115.008 90.258C112.429 89.6079 110.213 87.9613 108.846 85.6795C107.48 83.3977 107.075 80.667 107.719 78.0867C108.364 75.5064 110.006 73.2872 112.285 71.916C114.564 70.5448 117.293 70.1337 119.875 70.7728L137.942 72.4862C138.459 72.5355 138.96 72.6956 139.41 72.9557C139.86 73.2158 140.248 73.5698 140.549 73.9936C140.849 74.4174 141.055 74.901 141.152 75.4115C141.249 75.922 141.235 76.4474 141.11 76.9519Z" fill="#B41E32"/>
<path d="M203.841 108.677C206.743 108.677 209.095 106.325 209.095 103.423C209.095 100.521 206.743 98.168 203.841 98.168C200.939 98.168 198.586 100.521 198.586 103.423C198.586 106.325 200.939 108.677 203.841 108.677Z" fill="#B41E32"/>
<path d="M303.943 276.5C303.943 277.162 303.904 277.797 303.836 278.266C303.768 278.734 303.675 278.998 303.578 279H1.30886C1.21192 279 1.11896 278.737 1.05041 278.268C0.981867 277.799 0.943359 277.163 0.943359 276.5C0.943359 275.837 0.981867 275.201 1.05041 274.732C1.11896 274.263 1.21192 274 1.30886 274H303.578C303.675 274.002 303.768 274.266 303.836 274.735C303.904 275.203 303.943 275.838 303.943 276.5Z" fill="#FFEB66"/>
</svg>
