<svg width="303" height="277" viewBox="0 0 303 277" fill="none" xmlns="http://www.w3.org/2000/svg">
<path d="M130.68 5.78711C134.04 2.4776 138.569 0.624505 143.285 0.628914C148.009 0.628914 152.543 2.48096 155.89 5.78711C158.921 8.77705 160.5 12.1241 160.917 15.6001C161.333 19.0461 160.59 22.505 159.175 25.7488C156.366 32.2019 150.782 38.0699 145.425 41.888C144.801 42.3346 144.053 42.5748 143.285 42.5748C142.518 42.5748 141.769 42.3346 141.145 41.888C135.789 38.0699 130.205 32.1997 127.393 25.7488C125.98 22.505 125.24 19.0461 125.653 15.598C126.07 12.1241 127.649 8.7792 130.68 5.78711ZM137.37 17.2995C137.37 15.7306 137.993 14.226 139.102 13.1167C140.212 12.0073 141.716 11.3841 143.285 11.3841C144.854 11.3841 146.359 12.0073 147.468 13.1167C148.577 14.226 149.201 15.7306 149.201 17.2995C149.201 18.8683 148.577 20.3729 147.468 21.4823C146.359 22.5916 144.854 23.2148 143.285 23.2148C141.716 23.2148 140.212 22.5916 139.102 21.4823C137.993 20.3729 137.37 18.8683 137.37 17.2995Z" fill="#B41E32"/>
<path d="M143.197 13.432C143.183 13.4471 143.169 13.4631 143.155 13.4784C140.947 11.0856 137.389 11.0646 135.157 13.4311C132.917 15.8069 132.841 19.7071 134.987 22.1844L134.986 22.1859L135.039 22.2459L142.942 31.1294L151.135 22.4432L151.112 22.4176C151.125 22.4033 151.14 22.39 151.153 22.3755C153.416 19.9769 153.468 16.0303 151.271 13.5606C149.074 11.091 145.459 11.0333 143.197 13.432Z" fill="#FFE066"/>
<path d="M137.061 122.731L165.13 114.516L172.251 122.731C172.251 122.731 197.992 125.812 205.523 142.928C213.054 160.043 241.466 246.99 241.466 246.99L203.983 252.981L151.951 210.876C151.951 210.876 135.52 203.337 137.061 185.199C137.941 174.837 135.413 162.015 133.084 152.926C131.173 145.467 133.131 137.546 138.259 131.802L137.061 122.731Z" fill="#B41E32"/>
<path d="M1.5999 272.046C-0.0235049 269.185 -0.215225 265.649 1.08715 262.588L20.4406 217.112C21.885 213.718 24.9901 211.525 28.3511 211.525H272.801C276.068 211.525 279.041 213.536 280.558 216.772L301.303 260.994C302.737 264.051 302.642 267.641 301.05 270.599C299.459 273.556 296.666 275.329 293.579 275.343L9.03205 276.596H8.99644C5.97996 276.596 3.21672 274.897 1.5999 272.046Z" fill="#FFE066"/>
<path d="M51.6558 139.409C47.8688 134.36 42.1939 132.221 38.9809 134.631C35.7679 137.042 36.2338 143.088 40.0228 148.139C41.5087 150.177 43.4611 151.83 45.7167 152.959L62.0324 174.15L71.8137 166.282L54.6908 146.226C54.2381 143.744 53.1974 141.406 51.6558 139.409Z" fill="#FFB6B6"/>
<path d="M140.814 124.83C140.814 124.83 160.948 133.588 160.866 142.9C160.785 152.211 123.726 214.003 123.726 214.003C123.726 214.003 107.807 224.107 102.396 218.297C96.9857 212.486 51.9883 165.96 51.9883 165.96L64.2472 151.318L108.761 190.083L140.814 124.83Z" fill="#B41E32"/>
<g filter="url(#filter0_d_2648_6116)">
<path d="M149.25 227.523L131.596 218.841C131.475 218.781 131.341 218.752 131.207 218.755L90.4601 219.634L78.0607 173.068C78.03 172.952 77.9394 172.862 77.8236 172.832L62.8266 168.919C62.578 168.854 62.353 169.084 62.4232 169.331L77.2885 221.698C77.3127 221.783 77.3699 221.855 77.4473 221.898L92.7325 230.354C92.8505 230.419 92.9765 230.402 93.0723 230.34L93.154 230.433C93.3193 230.622 93.5603 230.727 93.8111 230.72L148.904 229.118C149.78 229.093 150.037 227.91 149.25 227.523Z" fill="#2D2D2D"/>
</g>
<path d="M131.86 214.544C125.55 214.692 120.512 218.067 120.607 222.083C120.702 226.098 125.893 229.233 132.205 229.084C134.727 229.059 137.207 228.431 139.437 227.251L166.164 226.287L165.444 213.754L139.172 216.035C136.889 214.961 134.382 214.45 131.86 214.544Z" fill="#FFB6B6"/>
<path d="M171.804 133.513C171.804 133.513 190.631 122.217 198.162 127.694C205.693 133.171 234.447 199.237 234.447 199.237C234.447 199.237 233.42 218.064 225.547 219.091C217.674 220.118 153.662 229.703 153.662 229.703L148.869 211.218L194.739 197.868L171.804 133.513Z" fill="#B41E32"/>
<g filter="url(#filter1_d_2648_6116)">
<path d="M209.666 256.156C233.695 256.156 253.175 250.455 253.175 243.422C253.175 236.389 233.695 230.688 209.666 230.688C185.636 230.688 166.156 236.389 166.156 243.422C166.156 250.455 185.636 256.156 209.666 256.156Z" fill="#2D2D2D"/>
<path d="M253.007 242.358C253.007 247.633 234.226 250.32 210.197 250.32C186.167 250.32 166.246 247.633 166.246 242.358C166.246 237.084 186.167 231.219 210.197 231.219C234.226 231.219 253.007 237.084 253.007 242.358Z" fill="#2D2D2D"/>
</g>
<path d="M144.275 118.741C158.11 118.741 169.325 107.526 169.325 93.691C169.325 79.856 158.11 68.6406 144.275 68.6406C130.44 68.6406 119.225 79.856 119.225 93.691C119.225 107.526 130.44 118.741 144.275 118.741Z" fill="#FFB6B6"/>
<path d="M148.913 100.959L142.538 92.4598L138.763 80.2933C138.763 80.2933 114.94 89.7388 120.13 76.1207C125.32 62.5026 141.716 57.2228 154.118 65.4126L159.57 69.9249C169.672 74.9072 170.461 76.1207 173.471 81.8206C173.471 81.8206 178.541 87.2973 175.439 92.2233C172.337 97.1493 166.998 99.5791 168.29 105.905C169.581 112.232 155.367 115.329 155.367 115.329L154.458 96.5068C154.458 96.5068 150.564 93.8277 148.913 100.959Z" fill="#2D2D2D"/>
<path d="M167.304 70.7878C167.697 74.0468 169.941 76.7138 171.731 79.4709C174.861 84.3801 176.746 89.9785 177.223 95.7809C177.7 101.583 176.754 107.415 174.468 112.769C172.57 117.106 169.796 121.054 168.366 125.564C166.929 130.068 167.148 135.579 170.582 138.826C172.903 141.028 176.208 141.774 179.342 142.425C181.062 142.787 182.784 143.148 184.508 143.506C185.468 139.011 186.431 134.517 187.396 130.025C187.421 134.891 187.992 139.738 189.1 144.475C195.27 145.768 201.444 147.064 207.623 148.362C195.617 140.393 205.441 130.136 210.568 116.679C213.385 109.284 203.75 96.552 205.373 88.8086C206.258 84.6121 205.922 80.2497 204.406 76.238C202.889 72.2262 200.255 68.733 196.814 66.1717C193.374 63.6104 189.272 62.0882 184.994 61.7854C180.716 61.4825 176.441 62.4117 172.674 64.4629C169.56 63.7969 166.927 67.5765 167.304 70.7878Z" fill="#2D2D2D"/>
<path d="M166.516 82.597C173.377 82.597 178.939 77.0352 178.939 70.1745C178.939 63.3137 173.377 57.752 166.516 57.752C159.656 57.752 154.094 63.3137 154.094 70.1745C154.094 77.0352 159.656 82.597 166.516 82.597Z" fill="#2D2D2D"/>
<path d="M45.1918 135.013L73.8398 124.182L39.0125 154.062L45.1918 135.013Z" fill="#FFFCF0" stroke="#A07D36" stroke-width="0.289809" stroke-linecap="round" stroke-linejoin="round"/>
<path d="M39.0189 154.065L73.8438 124.184L75.4565 126.063L40.6316 155.945L39.0189 154.065Z" fill="#A07D34" stroke="#A07D36" stroke-width="0.289809" stroke-linecap="round" stroke-linejoin="round"/>
<path d="M71.5638 123.463C72.9763 122.289 75.7282 123.139 75.3807 123.478C75.0333 123.818 73.5519 124.413 73.1887 125.357C72.8254 126.302 70.7365 131.582 69.6277 130.868C68.519 130.154 65.5545 132.464 65.5545 132.464C65.5545 132.464 66.8912 134.229 65.5671 134.801C64.243 135.372 63.0214 135.111 62.3532 135.406C61.685 135.702 61.7079 139.09 60.1043 138.962C58.5006 138.835 54.0079 140.191 54.1047 142.127C54.2015 144.064 53.6168 144.132 52.7487 143.901C51.8806 143.67 51.9113 147.153 51.4449 147.399C50.9786 147.644 48.8647 146.96 48.8647 146.96C48.8647 146.96 50.83 148.838 49.1181 149.992C47.4061 151.146 45.9594 151.037 45.3861 150.616C44.8128 150.195 43.98 155.033 42.4663 154.626C40.9525 154.219 39.4548 156.298 38.8436 154.839C38.2325 153.381 38.3207 153.109 39.6989 151.689C41.0772 150.268 71.5638 123.463 71.5638 123.463Z" fill="#648E21"/>
<path d="M38.5023 149.757L70.1881 122.569C70.6775 122.149 71.4147 122.205 71.8346 122.695L72.3037 123.241C72.7236 123.731 72.6673 124.468 72.1779 124.888L40.4921 152.076C40.0027 152.496 39.2655 152.44 38.8456 151.95L38.3765 151.403C37.9565 150.914 38.0129 150.177 38.5023 149.757Z" fill="#E1B186"/>
<path d="M37.7518 149.55L70.0987 121.795C70.4055 121.532 70.8678 121.567 71.1311 121.874L71.6845 122.519C71.9478 122.826 71.9125 123.288 71.6056 123.551L39.2588 151.306C38.9519 151.57 38.4897 151.534 38.2264 151.228L37.673 150.583C37.4096 150.276 37.445 149.814 37.7518 149.55Z" fill="#FFCF23"/>
<path d="M67.0104 120.688C67.0104 120.688 69.821 118.816 70.5509 119.853C71.2807 120.891 69.6076 125.999 66.0153 128.842C62.423 131.684 57.4936 131.821 56.5458 130.761C55.5981 129.702 67.0104 120.688 67.0104 120.688Z" fill="#E25123"/>
<path d="M56.5783 128.427C56.5783 128.427 59.3889 126.555 60.1199 127.59C60.851 128.626 59.1626 133.728 55.582 136.569C52.0015 139.41 47.0591 139.55 46.1106 138.487C45.1621 137.424 56.5783 128.427 56.5783 128.427Z" fill="#E25123"/>
<path d="M46.7659 138.239C46.7659 138.239 49.5764 136.368 50.3075 137.403C51.0386 138.439 49.361 143.55 45.7707 146.394C42.1805 149.237 37.249 149.373 36.3005 148.31C35.352 147.247 46.7659 138.239 46.7659 138.239Z" fill="#E25123"/>
<path d="M67.6452 118.865C69.0565 117.693 71.8108 118.538 71.4634 118.878C71.1159 119.218 69.6333 119.814 69.2701 120.759C68.9068 121.704 66.8179 126.983 65.7091 126.269C64.6004 125.555 61.6339 127.864 61.6339 127.864C61.6339 127.864 62.9706 129.629 61.6465 130.201C60.3224 130.773 59.102 130.509 58.4326 130.807C57.7632 131.105 57.7873 134.491 56.1837 134.363C54.58 134.235 50.0873 135.592 50.1841 137.528C50.2809 139.464 49.6975 139.53 48.8181 139.295C47.9387 139.06 47.9806 142.548 47.5155 142.791C47.0504 143.034 44.934 142.354 44.934 142.354C44.934 142.354 46.8994 144.232 45.1837 145.392C43.4681 146.552 42.0251 146.437 41.4517 146.016C40.8784 145.595 40.0469 150.431 38.5319 150.026C37.017 149.622 35.5192 151.7 34.9081 150.242C34.2969 148.783 34.3851 148.512 35.7634 147.091C37.1417 145.67 67.6452 118.865 67.6452 118.865Z" fill="#648E21"/>
<path d="M39.395 128.009L68.0429 117.178L33.2156 147.058L39.395 128.009Z" fill="#FFF8DA" stroke="#A07D36" stroke-width="0.289809" stroke-linecap="round" stroke-linejoin="round"/>
<path d="M33.2161 147.061L68.041 117.18L69.6537 119.059L34.8289 148.941L33.2161 147.061Z" fill="#A07D34" stroke="#A07D36" stroke-width="0.289809" stroke-linecap="round" stroke-linejoin="round"/>
<path d="M227.722 241.684L229.715 216.25L221.251 235.673C221.441 235.647 221.635 235.672 221.812 235.745C221.99 235.819 222.145 235.938 222.261 236.092C222.377 236.245 222.45 236.426 222.473 236.617C222.495 236.808 222.467 237.001 222.39 237.178C222.313 237.354 222.191 237.506 222.036 237.62C221.881 237.733 221.698 237.803 221.507 237.822C221.316 237.841 221.123 237.809 220.948 237.729C220.773 237.649 220.623 237.524 220.512 237.367L217.647 243.943L217.926 243.942C223.319 244.012 227.704 243.004 227.722 241.684ZM223.517 234.305C223.378 234.334 223.233 234.32 223.101 234.267C222.969 234.213 222.856 234.122 222.776 234.004C222.697 233.886 222.653 233.747 222.652 233.605C222.651 233.462 222.693 233.323 222.771 233.204C222.849 233.085 222.961 232.992 223.092 232.937C223.223 232.881 223.368 232.866 223.508 232.893C223.648 232.92 223.776 232.988 223.878 233.088C223.979 233.188 224.049 233.315 224.077 233.455C224.097 233.547 224.098 233.643 224.081 233.736C224.063 233.829 224.027 233.918 223.975 233.997C223.923 234.076 223.856 234.144 223.777 234.197C223.699 234.25 223.61 234.287 223.517 234.305ZM222.08 241.328C221.956 241.519 221.777 241.669 221.567 241.758C221.357 241.848 221.125 241.873 220.901 241.831C220.677 241.789 220.47 241.681 220.307 241.521C220.144 241.362 220.032 241.157 219.985 240.934C219.938 240.71 219.959 240.478 220.044 240.266C220.129 240.055 220.275 239.873 220.464 239.744C220.652 239.615 220.875 239.546 221.103 239.543C221.331 239.541 221.555 239.606 221.746 239.731C221.998 239.901 222.173 240.163 222.234 240.461C222.294 240.759 222.235 241.068 222.069 241.323L222.08 241.328ZM225.254 236.307C225.044 236.351 224.826 236.332 224.626 236.252C224.427 236.172 224.256 236.035 224.135 235.858C224.014 235.681 223.948 235.472 223.945 235.257C223.943 235.042 224.004 234.832 224.122 234.652C224.239 234.472 224.407 234.332 224.604 234.247C224.802 234.163 225.02 234.139 225.231 234.179C225.442 234.219 225.636 234.32 225.789 234.47C225.943 234.621 226.048 234.813 226.092 235.023C226.121 235.163 226.121 235.307 226.094 235.446C226.067 235.586 226.012 235.719 225.933 235.838C225.854 235.956 225.753 236.058 225.635 236.137C225.516 236.217 225.383 236.272 225.244 236.299L225.254 236.307ZM225.378 240.209C225.327 240.288 225.261 240.356 225.183 240.41C225.106 240.463 225.019 240.501 224.927 240.52C224.835 240.54 224.74 240.541 224.647 240.524C224.555 240.507 224.467 240.471 224.388 240.419C224.309 240.368 224.242 240.301 224.189 240.223C224.136 240.145 224.099 240.058 224.08 239.966C224.062 239.873 224.061 239.778 224.08 239.686C224.098 239.594 224.134 239.506 224.186 239.428C224.291 239.272 224.453 239.163 224.637 239.126C224.821 239.089 225.012 239.125 225.169 239.228C225.326 239.331 225.436 239.492 225.475 239.675C225.514 239.859 225.479 240.051 225.378 240.209ZM226.477 238.159C226.319 238.192 226.154 238.178 226.004 238.117C225.855 238.057 225.726 237.953 225.635 237.82C225.544 237.686 225.494 237.529 225.493 237.367C225.491 237.206 225.538 237.047 225.626 236.912C225.715 236.777 225.842 236.671 225.99 236.608C226.139 236.545 226.303 236.527 226.462 236.557C226.621 236.587 226.767 236.664 226.882 236.777C226.997 236.89 227.077 237.035 227.109 237.193C227.15 237.405 227.106 237.625 226.985 237.805C226.865 237.985 226.678 238.109 226.466 238.152L226.477 238.159Z" fill="#DDAD77"/>
<path d="M221.635 237.802C221.427 237.845 221.212 237.826 221.015 237.748C220.818 237.669 220.648 237.535 220.527 237.361L217.661 243.937C212.418 243.829 208.212 242.707 208.229 241.408L205.886 210.927L205.766 209.362L219.944 209.568L221.017 209.585L221.678 209.594L223.174 209.614L230.232 209.716L230.104 211.289L229.718 216.25L221.254 235.673C221.53 235.639 221.809 235.713 222.033 235.879C222.257 236.045 222.408 236.29 222.456 236.565C222.503 236.839 222.443 237.121 222.288 237.353C222.134 237.585 221.896 237.748 221.624 237.809L221.635 237.802Z" fill="#F2C58B"/>
<path d="M222.676 233.75C222.648 233.611 222.661 233.467 222.714 233.335C222.767 233.204 222.858 233.091 222.975 233.011C223.093 232.931 223.231 232.888 223.373 232.887C223.514 232.886 223.653 232.927 223.772 233.004C223.891 233.082 223.984 233.193 224.039 233.324C224.094 233.454 224.11 233.598 224.084 233.738C224.057 233.877 223.99 234.006 223.891 234.107C223.791 234.208 223.664 234.277 223.525 234.306C223.339 234.345 223.145 234.308 222.986 234.203C222.827 234.099 222.716 233.936 222.676 233.75Z" fill="#F2C58B"/>
<path d="M222.087 241.328C221.962 241.519 221.784 241.668 221.575 241.758C221.365 241.847 221.134 241.872 220.91 241.83C220.687 241.788 220.48 241.681 220.318 241.522C220.155 241.363 220.043 241.159 219.996 240.936C219.949 240.713 219.97 240.482 220.054 240.27C220.139 240.059 220.285 239.878 220.472 239.749C220.66 239.62 220.882 239.55 221.109 239.548C221.337 239.545 221.56 239.61 221.751 239.734C221.878 239.817 221.987 239.924 222.073 240.048C222.158 240.173 222.218 240.314 222.249 240.462C222.281 240.61 222.282 240.763 222.254 240.911C222.226 241.06 222.169 241.202 222.087 241.328Z" fill="#F2C58B"/>
<path d="M225.262 236.308C225.052 236.352 224.833 236.333 224.634 236.253C224.435 236.173 224.264 236.036 224.143 235.859C224.021 235.682 223.955 235.473 223.953 235.258C223.951 235.044 224.012 234.833 224.129 234.653C224.247 234.474 224.415 234.333 224.612 234.248C224.81 234.164 225.028 234.14 225.238 234.18C225.449 234.22 225.644 234.321 225.797 234.472C225.95 234.622 226.056 234.814 226.1 235.024C226.129 235.164 226.131 235.307 226.105 235.447C226.078 235.587 226.025 235.721 225.947 235.84C225.869 235.959 225.769 236.062 225.651 236.142C225.534 236.222 225.401 236.279 225.262 236.308Z" fill="#F2C58B"/>
<path d="M225.4 240.213C225.296 240.372 225.134 240.483 224.949 240.521C224.764 240.56 224.571 240.524 224.413 240.421C224.254 240.317 224.143 240.155 224.105 239.97C224.066 239.785 224.102 239.592 224.205 239.434C224.309 239.275 224.471 239.164 224.656 239.126C224.747 239.106 224.842 239.105 224.934 239.123C225.026 239.14 225.114 239.175 225.192 239.226C225.271 239.277 225.338 239.344 225.391 239.421C225.444 239.498 225.481 239.585 225.5 239.677C225.52 239.768 225.521 239.863 225.503 239.955C225.486 240.047 225.451 240.135 225.4 240.213Z" fill="#F2C58B"/>
<path d="M226.484 238.158C226.326 238.191 226.161 238.176 226.012 238.116C225.862 238.056 225.733 237.952 225.642 237.819C225.551 237.685 225.502 237.528 225.5 237.366C225.499 237.204 225.545 237.046 225.634 236.911C225.722 236.776 225.849 236.67 225.997 236.607C226.146 236.543 226.31 236.526 226.469 236.556C226.628 236.586 226.774 236.662 226.889 236.776C227.005 236.889 227.084 237.034 227.117 237.192C227.16 237.404 227.118 237.624 227 237.805C226.881 237.986 226.696 238.113 226.484 238.158Z" fill="#F2C58B"/>
<path d="M218.007 213.442C225.062 213.545 230.807 211.94 230.837 209.857C230.867 207.773 225.173 206.001 218.117 205.898C211.061 205.794 205.317 207.4 205.287 209.483C205.256 211.567 210.951 213.339 218.007 213.442Z" fill="#42331D"/>
<path d="M210.696 237.932C211.279 238.186 211.957 237.919 212.211 237.337C212.465 236.754 212.199 236.075 211.616 235.821C211.033 235.567 210.355 235.834 210.101 236.417C209.847 237 210.113 237.678 210.696 237.932Z" fill="#42331D"/>
<path d="M214.323 240.719C214.906 240.973 215.584 240.707 215.838 240.124C216.092 239.541 215.826 238.862 215.243 238.608C214.66 238.354 213.982 238.621 213.728 239.204C213.474 239.787 213.74 240.465 214.323 240.719Z" fill="#42331D"/>
<path d="M215.72 236.602C216.302 236.856 216.981 236.589 217.235 236.006C217.489 235.424 217.222 234.745 216.639 234.491C216.057 234.237 215.378 234.504 215.124 235.087C214.87 235.67 215.137 236.348 215.72 236.602Z" fill="#42331D"/>
<path d="M212.681 234.225C213.042 234.382 213.462 234.217 213.619 233.857C213.776 233.496 213.611 233.076 213.251 232.919C212.89 232.762 212.47 232.927 212.313 233.288C212.156 233.648 212.321 234.068 212.681 234.225Z" fill="#42331D"/>
<path d="M222.087 241.328C221.962 241.519 221.784 241.668 221.575 241.758C221.365 241.847 221.134 241.872 220.91 241.83C220.687 241.788 220.48 241.681 220.318 241.522C220.155 241.363 220.043 241.159 219.996 240.936C219.949 240.713 219.97 240.482 220.054 240.27C220.139 240.059 220.285 239.878 220.472 239.749C220.66 239.62 220.882 239.55 221.109 239.548C221.337 239.545 221.56 239.61 221.751 239.734C221.878 239.817 221.987 239.924 222.073 240.048C222.158 240.173 222.218 240.314 222.249 240.462C222.281 240.61 222.282 240.763 222.254 240.911C222.226 241.06 222.169 241.202 222.087 241.328Z" fill="#42331D"/>
<path d="M225.4 240.213C225.296 240.372 225.134 240.483 224.949 240.521C224.764 240.56 224.571 240.524 224.413 240.421C224.254 240.317 224.143 240.155 224.105 239.97C224.066 239.785 224.102 239.592 224.205 239.434C224.309 239.275 224.471 239.164 224.656 239.126C224.747 239.106 224.842 239.105 224.934 239.123C225.026 239.14 225.114 239.175 225.192 239.226C225.271 239.277 225.338 239.344 225.391 239.421C225.444 239.498 225.481 239.585 225.5 239.677C225.52 239.768 225.521 239.863 225.503 239.955C225.486 240.047 225.451 240.135 225.4 240.213Z" fill="#42331D"/>
<path d="M211.109 241.465C211.47 241.622 211.89 241.458 212.047 241.097C212.204 240.736 212.039 240.317 211.678 240.16C211.318 240.002 210.898 240.167 210.741 240.528C210.584 240.888 210.749 241.308 211.109 241.465Z" fill="#42331D"/>
<path d="M213.949 237.676C214.31 237.833 214.729 237.668 214.886 237.308C215.044 236.947 214.879 236.528 214.518 236.37C214.158 236.213 213.738 236.378 213.581 236.739C213.424 237.099 213.589 237.519 213.949 237.676Z" fill="#42331D"/>
<path d="M221.636 237.802C221.428 237.844 221.213 237.825 221.016 237.747C220.819 237.669 220.649 237.534 220.528 237.361C220.442 237.241 220.383 237.105 220.354 236.962C220.324 236.822 220.323 236.679 220.349 236.539C220.375 236.399 220.428 236.265 220.506 236.146C220.584 236.027 220.685 235.924 220.802 235.844C220.92 235.764 221.052 235.707 221.191 235.678C221.215 235.671 221.239 235.667 221.264 235.665C221.54 235.631 221.819 235.705 222.043 235.871C222.267 236.037 222.418 236.282 222.465 236.557C222.513 236.831 222.453 237.114 222.298 237.345C222.143 237.577 221.905 237.74 221.634 237.801L221.636 237.802Z" fill="#42331D"/>
<path d="M217.954 239.227C218.537 239.481 219.215 239.214 219.469 238.631C219.723 238.049 219.457 237.37 218.874 237.116C218.291 236.862 217.612 237.129 217.358 237.712C217.104 238.295 217.371 238.973 217.954 239.227Z" fill="#42331D"/>
<path d="M217.205 242.71C217.644 242.901 218.153 242.7 218.344 242.262C218.535 241.824 218.335 241.314 217.897 241.123C217.459 240.932 216.949 241.133 216.758 241.571C216.567 242.009 216.767 242.519 217.205 242.71Z" fill="#42331D"/>
<path d="M219.346 235.11C219.929 235.364 220.608 235.097 220.862 234.514C221.116 233.931 220.849 233.253 220.266 232.999C219.683 232.745 219.005 233.012 218.751 233.594C218.497 234.177 218.764 234.856 219.346 235.11Z" fill="#42331D"/>
<path d="M216.292 233.486C216.531 233.59 216.809 233.481 216.913 233.242C217.018 233.003 216.908 232.724 216.669 232.62C216.43 232.516 216.152 232.625 216.048 232.865C215.943 233.104 216.053 233.382 216.292 233.486Z" fill="#42331D"/>
<path d="M223.52 234.303C223.38 234.332 223.235 234.319 223.103 234.266C222.971 234.212 222.858 234.121 222.778 234.003C222.697 233.886 222.654 233.747 222.653 233.605C222.651 233.462 222.692 233.323 222.77 233.203C222.848 233.084 222.96 232.991 223.091 232.935C223.222 232.88 223.366 232.864 223.506 232.891C223.646 232.917 223.775 232.985 223.877 233.084C223.978 233.184 224.048 233.312 224.077 233.451C224.097 233.544 224.098 233.639 224.08 233.732C224.063 233.825 224.027 233.914 223.975 233.993C223.924 234.072 223.857 234.14 223.778 234.193C223.7 234.246 223.612 234.284 223.52 234.303Z" fill="#42331D"/>
<path d="M219.875 231.782C220.261 231.951 220.711 231.774 220.88 231.388C221.048 231.001 220.871 230.551 220.485 230.383C220.098 230.215 219.649 230.391 219.48 230.778C219.312 231.164 219.489 231.614 219.875 231.782Z" fill="#42331D"/>
<path d="M225.262 236.308C225.052 236.352 224.833 236.333 224.634 236.253C224.435 236.173 224.264 236.036 224.143 235.859C224.021 235.682 223.955 235.473 223.953 235.258C223.951 235.044 224.012 234.833 224.129 234.653C224.247 234.474 224.415 234.333 224.612 234.248C224.81 234.164 225.028 234.14 225.238 234.18C225.449 234.22 225.644 234.321 225.797 234.472C225.95 234.622 226.056 234.814 226.1 235.024C226.129 235.164 226.131 235.307 226.105 235.447C226.078 235.587 226.025 235.721 225.947 235.84C225.869 235.959 225.769 236.062 225.651 236.142C225.534 236.222 225.401 236.279 225.262 236.308Z" fill="#42331D"/>
<path d="M226.484 238.158C226.326 238.191 226.161 238.176 226.012 238.116C225.862 238.056 225.733 237.952 225.642 237.819C225.551 237.685 225.502 237.528 225.5 237.366C225.499 237.204 225.545 237.046 225.634 236.911C225.722 236.776 225.849 236.67 225.997 236.607C226.146 236.543 226.31 236.526 226.469 236.556C226.628 236.586 226.774 236.662 226.889 236.776C227.005 236.889 227.084 237.034 227.117 237.192C227.16 237.404 227.118 237.624 227 237.805C226.881 237.986 226.696 238.113 226.484 238.158Z" fill="#42331D"/>
<path d="M223.71 199.451L220.488 199.281L219.927 209.96L223.149 210.129L223.71 199.451Z" fill="#BE9BC8"/>
<path d="M222.072 199.831C222.962 199.878 223.694 199.708 223.708 199.452C223.721 199.195 223.011 198.95 222.121 198.903C221.231 198.856 220.499 199.026 220.485 199.282C220.472 199.539 221.182 199.784 222.072 199.831Z" fill="#A580B2"/>
<path d="M221.512 210.511C222.401 210.557 223.134 210.387 223.147 210.131C223.16 209.875 222.45 209.629 221.56 209.583C220.671 209.536 219.938 209.706 219.925 209.962C219.911 210.218 220.622 210.464 221.512 210.511Z" fill="#BE9BC8"/>
<path d="M220.518 237.355L221.256 235.661C221.447 235.634 221.642 235.659 221.821 235.732C221.999 235.805 222.155 235.925 222.272 236.079C222.388 236.232 222.462 236.414 222.485 236.606C222.508 236.797 222.48 236.992 222.403 237.169C222.325 237.346 222.203 237.499 222.046 237.612C221.89 237.726 221.707 237.796 221.515 237.815C221.323 237.834 221.129 237.801 220.954 237.721C220.779 237.64 220.628 237.514 220.518 237.355Z" fill="#42331D"/>
<path d="M222.676 233.75C222.648 233.611 222.661 233.467 222.714 233.335C222.767 233.204 222.858 233.091 222.975 233.011C223.093 232.931 223.231 232.888 223.373 232.887C223.514 232.886 223.653 232.927 223.772 233.004C223.891 233.082 223.984 233.193 224.039 233.324C224.094 233.454 224.11 233.598 224.084 233.738C224.057 233.877 223.99 234.006 223.891 234.107C223.791 234.208 223.664 234.277 223.525 234.306C223.339 234.345 223.145 234.308 222.986 234.203C222.827 234.099 222.716 233.936 222.676 233.75Z" fill="#42331D"/>
<path d="M221.751 239.734C221.942 239.858 222.091 240.037 222.18 240.246C222.269 240.456 222.294 240.687 222.252 240.911C222.21 241.135 222.102 241.341 221.942 241.504C221.782 241.666 221.578 241.778 221.355 241.824C221.132 241.87 220.9 241.85 220.689 241.764C220.478 241.679 220.297 241.533 220.169 241.344C220.041 241.156 219.971 240.934 219.97 240.706C219.968 240.478 220.034 240.255 220.159 240.064C220.326 239.81 220.588 239.632 220.887 239.57C221.185 239.508 221.496 239.567 221.751 239.734Z" fill="#42331D"/>
<path d="M226.103 235.026C226.146 235.235 226.127 235.453 226.047 235.651C225.967 235.85 225.83 236.02 225.653 236.141C225.477 236.261 225.268 236.327 225.054 236.329C224.84 236.331 224.631 236.27 224.451 236.153C224.272 236.036 224.132 235.869 224.048 235.672C223.964 235.475 223.94 235.258 223.979 235.048C224.019 234.838 224.119 234.644 224.269 234.491C224.418 234.338 224.61 234.232 224.819 234.188C225.1 234.13 225.393 234.185 225.634 234.342C225.874 234.499 226.043 234.745 226.103 235.026Z" fill="#42331D"/>
<path d="M225.178 239.223C225.257 239.274 225.325 239.339 225.378 239.417C225.431 239.494 225.468 239.58 225.487 239.672C225.507 239.763 225.508 239.858 225.491 239.95C225.473 240.042 225.438 240.129 225.387 240.208C225.284 240.366 225.121 240.477 224.936 240.516C224.751 240.555 224.558 240.519 224.4 240.415C224.241 240.312 224.131 240.15 224.092 239.965C224.053 239.779 224.089 239.586 224.192 239.428C224.243 239.35 224.309 239.282 224.387 239.229C224.464 239.176 224.551 239.139 224.643 239.12C224.734 239.101 224.829 239.1 224.921 239.118C225.013 239.136 225.1 239.171 225.178 239.223Z" fill="#42331D"/>
<path d="M225.515 237.524C225.482 237.366 225.497 237.202 225.558 237.052C225.618 236.902 225.722 236.774 225.855 236.683C225.989 236.592 226.146 236.543 226.308 236.542C226.469 236.54 226.627 236.586 226.762 236.675C226.897 236.763 227.003 236.89 227.067 237.038C227.13 237.187 227.148 237.351 227.118 237.509C227.088 237.668 227.012 237.814 226.899 237.93C226.786 238.045 226.642 238.124 226.484 238.158C226.379 238.18 226.27 238.181 226.164 238.161C226.059 238.141 225.958 238.101 225.868 238.042C225.778 237.983 225.7 237.907 225.64 237.818C225.579 237.729 225.537 237.629 225.515 237.524Z" fill="#42331D"/>
<path d="M187.732 229.183C187.668 229.087 187.622 228.991 187.594 228.896L187.732 229.183Z" fill="#B76028"/>
<path d="M212.089 228.154L212.067 228.349C211.702 229.883 206.424 231.27 199.923 231.5C193.421 231.731 188.06 230.721 187.588 229.214L187.553 229.02L212.089 228.154Z" fill="#B76028"/>
<path d="M211.965 227.968L187.641 228.91C187.591 227.304 192.993 225.791 199.709 225.531C206.425 225.27 211.913 226.36 211.965 227.968Z" fill="#B76028"/>
<path d="M212.058 228.382L211.92 228.096C212.009 228.203 212.056 228.3 212.058 228.382Z" fill="#B76028"/>
<path d="M193.982 219.582L192.701 219.627L193.154 232.432L194.435 232.387L193.982 219.582Z" fill="#EDD398"/>
<path d="M193.74 232.447L192.456 232.498L192.201 224.248L192.057 219.526L193.339 219.473L193.487 224.275L193.74 232.447Z" fill="#FFE6A9"/>
<path d="M201.356 223.484L199.984 223.275L197.896 236.998L199.267 237.207L201.356 223.484Z" fill="#EDD398"/>
<path d="M198.583 236.984L197.243 236.783L198.569 228.177L199.326 223.252L200.666 223.455L199.896 228.462L198.583 236.984Z" fill="#FFE6A9"/>
<path d="M205.551 220.076L204.18 219.867L202.091 233.59L203.463 233.799L205.551 220.076Z" fill="#EDD398"/>
<path d="M202.824 233.696L201.482 233.499L202.853 224.761L203.638 219.761L204.981 219.958L204.181 225.043L202.824 233.696Z" fill="#FFE6A9"/>
<path d="M205.678 222.729L204.291 222.75L204.504 236.629L205.891 236.608L205.678 222.729Z" fill="#EDD398"/>
<path d="M205.128 236.648L203.742 236.669L203.605 227.858L203.526 222.815L204.913 222.792L204.992 227.921L205.128 236.648Z" fill="#FFE6A9"/>
<path d="M202.22 219.086L200.834 219.135L201.325 233.007L202.711 232.958L202.22 219.086Z" fill="#EDD398"/>
<path d="M202.131 232.954L200.751 233.008L200.463 224.162L200.298 219.1L201.679 219.047L201.847 224.194L202.131 232.954Z" fill="#FFE6A9"/>
<path d="M199.644 219.912L198.258 219.961L198.749 233.833L200.135 233.784L199.644 219.912Z" fill="#EDD398"/>
<path d="M199.488 233.707L198.11 233.753L197.776 225.037L197.586 220.049L198.964 220.004L199.159 225.076L199.488 233.707Z" fill="#FFE6A9"/>
<path d="M191.54 221.783L190.285 222.041L192.861 234.593L194.116 234.335L191.54 221.783Z" fill="#EDD398"/>
<path d="M193.483 234.54L192.23 234.799L190.61 226.804L189.684 222.227L190.935 221.966L191.879 226.62L193.483 234.54Z" fill="#FFE6A9"/>
<path d="M189.437 223.053L188.182 223.311L190.758 235.862L192.013 235.605L189.437 223.053Z" fill="#EDD398"/>
<path d="M191.407 235.718L190.155 235.979L188.534 227.983L187.607 223.407L188.861 223.147L189.803 227.799L191.407 235.718Z" fill="#FFE6A9"/>
<path d="M207.57 220.709L206.184 220.758L206.675 234.63L208.061 234.581L207.57 220.709Z" fill="#EDD398"/>
<path d="M207.51 234.591L206.084 234.629L205.69 225.746L205.464 220.663L206.888 220.624L207.117 225.794L207.51 234.591Z" fill="#FFE6A9"/>
<path d="M211.944 223.048L210.307 222.758L207.877 236.464L209.514 236.755L211.944 223.048Z" fill="#EDD398"/>
<path d="M208.855 234.831L207.258 234.562L208.784 225.889L209.659 220.925L211.256 221.196L210.366 226.241L208.855 234.831Z" fill="#FFE6A9"/>
<path d="M196.003 221.384L194.74 221.166L192.563 233.793L193.826 234.011L196.003 221.384Z" fill="#EDD398"/>
<path d="M193.208 233.964L191.943 233.745L193.319 225.734L194.107 221.151L195.369 221.37L194.57 226.031L193.208 233.964Z" fill="#FFE6A9"/>
<path d="M210.013 218.314L208.646 218.078L205.702 235.155L207.069 235.391L210.013 218.314Z" fill="#EDD398"/>
<path d="M206.348 235.195L205.032 234.978L206.97 224.148L208.079 217.95L209.395 218.167L208.267 224.47L206.348 235.195Z" fill="#FFE6A9"/>
<path d="M197.123 219.005L195.506 219.232L197.548 233.746L199.165 233.519L197.123 219.005Z" fill="#EDD398"/>
<path d="M198.359 233.528L196.755 233.756L195.477 224.575L194.745 219.319L196.351 219.092L197.094 224.435L198.359 233.528Z" fill="#FFE6A9"/>
<path d="M195.95 223.544L194.564 224.141L199.917 236.57L201.302 235.973L195.95 223.544Z" fill="#EDD398"/>
<path d="M200.756 236.214L199.363 236.809L195.92 228.877L193.948 224.336L195.344 223.741L197.348 228.356L200.756 236.214Z" fill="#FFE6A9"/>
<path d="M195.427 226.795L194.197 227.449L200.063 238.482L201.293 237.829L195.427 226.795Z" fill="#EDD398"/>
<path d="M200.798 238.136L199.57 238.785L195.828 231.803L193.687 227.808L194.915 227.161L197.092 231.223L200.798 238.136Z" fill="#FFE6A9"/>
<path d="M211.995 228.359L210.16 245.918C210.096 246.499 209.825 247.038 209.397 247.437C208.968 247.835 208.41 248.067 207.824 248.089L193.355 248.583C192.767 248.604 192.189 248.412 191.731 248.042C191.272 247.672 190.962 247.15 190.86 246.571L187.733 229.181C188.213 230.67 193.518 231.67 199.955 231.453C206.392 231.236 211.634 229.874 211.995 228.359Z" fill="#D16B28"/>
<defs>
<filter id="filter0_d_2648_6116" x="60.8327" y="168.908" width="90.4655" height="64.9674" filterUnits="userSpaceOnUse" color-interpolation-filters="sRGB">
<feFlood flood-opacity="0" result="BackgroundImageFix"/>
<feColorMatrix in="SourceAlpha" type="matrix" values="0 0 0 0 0 0 0 0 0 0 0 0 0 0 0 0 0 0 127 0" result="hardAlpha"/>
<feOffset dy="1.57746"/>
<feGaussianBlur stdDeviation="0.788732"/>
<feComposite in2="hardAlpha" operator="out"/>
<feColorMatrix type="matrix" values="0 0 0 0 0 0 0 0 0 0 0 0 0 0 0 0 0 0 0.25 0"/>
<feBlend mode="normal" in2="BackgroundImageFix" result="effect1_dropShadow_2648_6116"/>
<feBlend mode="normal" in="SourceGraphic" in2="effect1_dropShadow_2648_6116" result="shape"/>
</filter>
<filter id="filter1_d_2648_6116" x="164.579" y="230.688" width="90.1745" height="28.6237" filterUnits="userSpaceOnUse" color-interpolation-filters="sRGB">
<feFlood flood-opacity="0" result="BackgroundImageFix"/>
<feColorMatrix in="SourceAlpha" type="matrix" values="0 0 0 0 0 0 0 0 0 0 0 0 0 0 0 0 0 0 127 0" result="hardAlpha"/>
<feOffset dy="1.57746"/>
<feGaussianBlur stdDeviation="0.788732"/>
<feComposite in2="hardAlpha" operator="out"/>
<feColorMatrix type="matrix" values="0 0 0 0 0 0 0 0 0 0 0 0 0 0 0 0 0 0 0.25 0"/>
<feBlend mode="normal" in2="BackgroundImageFix" result="effect1_dropShadow_2648_6116"/>
<feBlend mode="normal" in="SourceGraphic" in2="effect1_dropShadow_2648_6116" result="shape"/>
</filter>
</defs>
</svg>
