<svg width="303" height="283" viewBox="0 0 303 283" fill="none" xmlns="http://www.w3.org/2000/svg">
<path d="M302.77 282.281C197.459 282.281 234.993 282.281 151.385 282.281C67.7774 282.281 73.0597 282.281 0 282.281C0 212.677 67.7774 121.299 151.385 121.299C234.993 121.299 302.77 212.677 302.77 282.281Z" fill="#FFE066"/>
<path d="M29.2715 29.8409C32.3023 24.1172 37.4612 19.8194 43.6316 17.8778C49.8096 15.9274 56.5034 16.4818 62.2436 19.4317C67.4398 22.0978 70.8843 25.8312 72.8627 30.2134C74.826 34.557 75.281 39.3953 74.7667 44.2298C73.7522 53.8448 68.8674 63.8389 63.4359 71.053C62.8035 71.896 61.9237 72.5196 60.9197 72.8366C59.9157 73.1535 58.838 73.1479 57.8374 72.8204C49.2586 70.0294 39.5358 64.6437 33.2 57.3523C30.0147 53.6857 27.6214 49.4594 26.7404 44.771C25.8544 40.0471 26.5407 35.0126 29.2715 29.8409ZM42.7658 42.1625C42.1192 40.107 42.3141 37.8783 43.3078 35.9667C44.3015 34.0552 46.0125 32.6174 48.0644 31.9696C50.1162 31.3218 52.3409 31.5172 54.249 32.5126C56.1572 33.5081 57.5924 35.2221 58.239 37.2777C58.8856 39.3332 58.6906 41.5619 57.697 43.4734C56.7033 45.385 54.9923 46.8228 52.9404 47.4706C50.8885 48.1183 48.6638 47.923 46.7557 46.9276C44.8476 45.9321 43.4124 44.2181 42.7658 42.1625Z" fill="#B41E32"/>
<path d="M54.7797 36.2673L34.5055 53.5543L71.8752 39.5497L54.7797 36.2673Z" fill="#FFFCF0" stroke="#A07D36" stroke-width="0.252022" stroke-linecap="round" stroke-linejoin="round"/>
<path d="M71.8735 39.5545L34.5039 53.5566L35.2575 55.5741L72.6271 41.5719L71.8735 39.5545Z" fill="#A07D34" stroke="#A07D36" stroke-width="0.252022" stroke-linecap="round" stroke-linejoin="round"/>
<path d="M34.9148 51.5175C33.4281 52.1015 32.9192 54.5548 33.3236 54.4325C33.7281 54.3102 34.8026 53.4308 35.6743 53.5503C36.546 53.6698 41.4423 54.2929 41.3644 53.1485C41.2864 52.0041 44.2894 50.714 44.2894 50.714C44.2894 50.714 45.0719 52.4731 46.0631 51.7039C47.0543 50.9347 47.368 49.894 47.8738 49.509C48.3796 49.124 50.949 50.5627 51.5251 49.287C52.1011 48.0114 55.0203 45.1569 56.4536 46.0429C57.8868 46.9289 58.1844 46.5121 58.373 45.7536C58.5615 44.9951 61.2006 46.4799 61.583 46.2274C61.9655 45.9749 62.3324 44.0771 62.3324 44.0771C62.3324 44.0771 62.9368 46.3626 64.5342 45.5422C66.1316 44.7218 66.6558 43.5734 66.5761 42.96C66.4964 42.3465 70.5287 43.7414 70.8548 42.4173C71.1809 41.0932 73.392 40.8238 72.5384 39.7463C71.6849 38.6687 71.4411 38.6221 69.7809 39.0763C68.1206 39.5305 34.9148 51.5175 34.9148 51.5175Z" fill="#648E21"/>
<path d="M68.8134 37.351L34.8122 50.091C34.2871 50.2877 34.0204 50.8731 34.2166 51.3985L34.4358 51.9853C34.632 52.5106 35.2168 52.7769 35.742 52.5801L69.7431 39.8402C70.2683 39.6434 70.535 39.058 70.3388 38.5327L70.1196 37.9459C69.9234 37.4205 69.3385 37.1542 68.8134 37.351Z" fill="#E1B186"/>
<path d="M68.9727 36.6946L34.2623 49.7004C33.933 49.8238 33.7658 50.1909 33.8888 50.5202L34.1474 51.2125C34.2704 51.5419 34.6371 51.7089 34.9664 51.5855L69.6769 38.5797C70.0062 38.4564 70.1734 38.0893 70.0503 37.7599L69.7917 37.0676C69.6687 36.7383 69.302 36.5713 68.9727 36.6946Z" fill="#FFCF23"/>
<path d="M34.7154 46.8827C34.7154 46.8827 32.1107 48.2393 32.5938 49.2307C33.0769 50.222 37.6683 51.0901 41.3405 49.5452C45.0127 48.0002 47.1867 44.3012 46.778 43.1344C46.3692 41.9676 34.7154 46.8827 34.7154 46.8827Z" fill="#E25123"/>
<path d="M44.983 42.1801C44.983 42.1801 42.3783 43.5368 42.8593 44.5282C43.3404 45.5196 47.9333 46.3733 51.5997 44.8368C55.266 43.3003 57.4479 39.5928 57.037 38.424C56.6262 37.2553 44.983 42.1801 44.983 42.1801Z" fill="#E25123"/>
<path d="M56.5765 38.8207C56.5765 38.8207 53.9717 40.1774 54.4528 41.1688C54.9339 42.1602 59.5293 43.0261 63.2016 41.4832C66.8738 39.9402 69.0478 36.2392 68.6369 35.0705C68.226 33.9017 56.5765 38.8207 56.5765 38.8207Z" fill="#E25123"/>
<path d="M33.0595 46.602C31.5749 47.1858 31.0618 49.6394 31.4663 49.517C31.8707 49.3947 32.9473 48.5152 33.819 48.6347C34.6907 48.7542 39.5871 49.3774 39.5091 48.2329C39.4311 47.0885 42.4341 45.7964 42.4341 45.7964C42.4341 45.7964 43.2166 47.5555 44.2077 46.7863C45.1989 46.0172 45.5106 44.9765 46.0184 44.5914C46.5263 44.2063 49.0937 45.6451 49.6697 44.3694C50.2457 43.0938 53.165 40.2393 54.5982 41.1253C56.0315 42.0114 56.327 41.5946 56.5172 40.8258C56.7074 40.057 59.3448 41.5521 59.7252 41.2997C60.1056 41.0472 60.4766 39.1493 60.4766 39.1493C60.4766 39.1493 61.081 41.4348 62.6846 40.6141C64.2881 39.7934 64.8061 38.6454 64.7264 38.0319C64.6468 37.4184 68.677 38.8134 69.0051 37.4892C69.3332 36.165 71.5444 35.8957 70.6908 34.8181C69.8373 33.7406 69.5935 33.6939 67.9332 34.1481C66.2729 34.6024 33.0595 46.602 33.0595 46.602Z" fill="#648E21"/>
<path d="M51.8832 28.9079L31.609 46.1949L68.9787 32.1904L51.8832 28.9079Z" fill="#FFF8DA" stroke="#A07D36" stroke-width="0.252022" stroke-linecap="round" stroke-linejoin="round"/>
<path d="M68.979 32.1951L31.6094 46.1973L32.3629 48.2147L69.7325 34.2126L68.979 32.1951Z" fill="#A07D34" stroke="#A07D36" stroke-width="0.252022" stroke-linecap="round" stroke-linejoin="round"/>
<path d="M118.202 282.09C116.579 282.09 115.658 281.771 115.301 281.088C114.777 280.084 111.433 278.774 112.485 277.255C113.219 276.197 114.991 274.78 114.309 273.965C111.681 270.822 105.448 183.925 103.903 171.628C103.523 167.821 104.038 163.979 105.406 160.408C109.736 148.119 115.646 144.342 127.419 136.818C128.375 136.207 129.37 135.569 130.405 134.904C131.743 134.043 131.669 136.055 131.59 133.03C131.502 129.667 131.412 126.19 133.056 124.017L133.163 123.875L133.335 123.835C137.313 122.914 150.689 121.204 158.611 123.847L158.72 123.885L158.802 123.966C160.683 125.851 160.855 129.503 161.021 133.034C161.156 135.933 161.285 133.801 162.35 134.99C166.419 139.534 172.551 142.16 177.665 143.649C180.871 144.572 183.678 146.539 185.642 149.241C187.605 151.942 188.613 155.222 188.506 158.562C187.951 175.385 188.387 184.571 185.521 203.317C180.75 234.517 224.303 279.574 199.357 280.5C199.255 262.755 199.357 263.084 199.357 280.5C199.361 280.617 199.415 280.398 199.357 280.5C197.577 283.833 124.319 282.09 118.202 282.09Z" fill="#B41E32"/>
<path d="M143.774 121.331C160.197 121.331 173.51 107.995 173.51 91.5427C173.51 75.0908 160.197 61.7539 143.774 61.7539C127.352 61.7539 114.039 75.0908 114.039 91.5427C114.039 107.995 127.352 121.331 143.774 121.331Z" fill="#2D2D2D"/>
<path d="M146.2 122.499C157.997 122.164 167.29 112.312 166.956 100.493C166.621 88.6747 156.787 79.3654 144.99 79.7003C133.192 80.0352 123.9 89.8874 124.234 101.706C124.568 113.524 134.403 122.833 146.2 122.499Z" fill="#FFB6B6"/>
<path d="M145.773 69.7403L137.11 69.9862C131.651 70.1455 126.478 72.4681 122.726 76.4442C118.975 80.4203 116.951 85.725 117.099 91.1942L117.105 91.3864L117.263 91.4855C121.971 94.6064 127.529 96.1905 133.172 96.0201L133.659 96.0063L138.445 95.789C139.25 93.7122 139.52 91.4654 139.228 89.2567C139.951 91.3504 140.515 93.4958 140.916 95.6745L162.392 94.695C163.642 94.633 164.818 94.0843 165.669 93.1659C166.521 92.2475 166.98 91.0322 166.95 89.7792C166.789 84.3103 164.468 79.1289 160.498 75.372C156.528 71.6151 151.232 69.5897 145.773 69.7403Z" fill="#2D2D2D"/>
<path d="M128.506 64.3711C126.551 66.7866 123.412 67.793 120.591 69.1012C115.614 71.4591 111.286 74.9977 107.983 79.4101C104.68 83.8224 102.5 88.9754 101.635 94.4222C100.97 98.8576 101.202 103.423 100.077 107.76C98.9591 112.098 96.009 116.406 91.625 117.277C88.6585 117.872 85.6375 116.804 82.8014 115.745C81.2417 115.168 79.6819 114.588 78.122 114.006C79.6162 109.917 81.108 105.828 82.5972 101.739C80.1278 105.628 77.2299 109.227 73.9579 112.467C68.3681 110.392 62.7734 108.316 57.1738 106.241C70.7964 105.906 68.0974 92.7257 70.7689 79.3485C72.2373 71.9977 86.3604 66.6476 88.9604 59.6198C90.3649 55.8081 92.83 52.4793 96.064 50.0274C99.2981 47.5754 103.166 46.103 107.209 45.7843C111.252 45.4656 115.302 46.314 118.879 48.2291C122.456 50.1442 125.41 53.0459 127.393 56.5906C130.221 57.6274 130.425 61.9864 128.506 64.3711Z" fill="#2D2D2D"/>
<path d="M129.871 73.2296C135.986 73.2296 140.944 68.2634 140.944 62.1373C140.944 56.0111 135.986 51.0449 129.871 51.0449C123.756 51.0449 118.799 56.0111 118.799 62.1373C118.799 68.2634 123.756 73.2296 129.871 73.2296Z" fill="#2D2D2D"/>
<path d="M169.202 233.281H118.085C116.334 233.279 114.656 232.582 113.418 231.342C112.181 230.102 111.484 228.421 111.482 226.667V171.622C111.484 169.868 112.181 168.187 113.418 166.947C114.656 165.707 116.334 165.01 118.085 165.008H169.202C170.953 165.01 172.631 165.707 173.869 166.947C175.107 168.187 175.803 169.868 175.805 171.622V226.667C175.803 228.421 175.106 230.102 173.869 231.342C172.631 232.582 170.953 233.279 169.202 233.281Z" fill="#2D2D2D"/>
<path d="M119.52 176.9C121.635 176.9 123.349 175.182 123.349 173.064C123.349 170.946 121.635 169.229 119.52 169.229C117.406 169.229 115.691 170.946 115.691 173.064C115.691 175.182 117.406 176.9 119.52 176.9Z" fill="#E6E6E6"/>
<path d="M119.52 175.362C120.789 175.362 121.817 174.332 121.817 173.061C121.817 171.79 120.789 170.76 119.52 170.76C118.251 170.76 117.223 171.79 117.223 173.061C117.223 174.332 118.251 175.362 119.52 175.362Z" fill="#2D2D2D"/>
<path d="M135.612 229.316L100.501 220.396L95.043 238.495C95.043 238.495 132.818 241.297 134.23 241.31C135.285 242.807 136.77 243.947 138.487 244.581C140.204 245.214 142.072 245.31 143.845 244.857C145.617 244.403 147.211 243.421 148.414 242.041C149.618 240.66 150.374 238.946 150.584 237.125C150.794 235.304 150.447 233.463 149.59 231.844C148.732 230.225 147.404 228.905 145.781 228.058C144.158 227.212 142.317 226.879 140.501 227.103C138.686 227.328 136.981 228.1 135.612 229.316Z" fill="#FFB6B6"/>
<path d="M112.146 148.537C87.111 161.939 76.1397 191.816 60.7802 218.072C60.463 220.941 60.7467 223.844 61.6134 226.597C62.48 229.349 63.9104 231.89 65.8132 234.058C67.716 236.225 70.0492 237.97 72.6638 239.183C75.2783 240.395 78.1167 241.048 80.9973 241.099L111.045 241.792L107.279 223.218L97.2285 217.498L109.108 188.709L112.146 148.537Z" fill="#B41E32"/>
<path d="M149.292 176.261L173.256 205.394L163.36 221.103C163.36 221.103 139.265 183.365 138.721 182.06C136.939 181.644 135.326 180.695 134.094 179.34C132.862 177.985 132.069 176.287 131.822 174.471C131.574 172.655 131.882 170.807 132.706 169.17C133.529 167.533 134.83 166.186 136.434 165.306C138.039 164.425 139.873 164.054 141.693 164.24C143.513 164.427 145.234 165.163 146.627 166.35C148.021 167.538 149.022 169.121 149.498 170.891C149.974 172.661 149.902 174.533 149.292 176.261Z" fill="#FFB6B6"/>
<path d="M185.376 149.283C192.609 145.279 213.707 207.033 191.507 242.156C188.973 243.531 186.181 244.36 183.31 244.592C180.438 244.824 177.549 244.453 174.829 243.503C172.108 242.553 169.616 241.045 167.51 239.075C165.405 237.104 163.733 234.716 162.601 232.061L151.109 203.884L169.523 198.004L178.316 208.113L177.093 188.001L187.559 159.416L185.376 149.283Z" fill="#B41E32"/>
<path d="M143.774 8.96262C148.312 5.8311 153.898 4.61559 159.323 5.57918C164.758 6.53918 169.599 9.59532 172.779 14.0861C175.659 18.1482 176.797 22.3267 176.572 26.418C176.35 30.474 174.795 34.3098 172.508 37.7608C167.967 44.6276 160.352 50.256 153.416 53.5681C152.607 53.9561 151.697 54.0808 150.814 53.9248C149.931 53.7688 149.118 53.3399 148.491 52.6982C143.103 47.2091 137.869 39.3084 135.943 31.3018C134.976 27.276 134.826 23.139 136.001 19.2487C137.185 15.3296 139.68 11.7953 143.774 8.96262ZM149.136 23.591C149.454 21.7828 150.476 20.1753 151.977 19.1221C153.479 18.069 155.336 17.6565 157.141 17.9753C158.946 18.2941 160.551 19.3182 161.602 20.8223C162.653 22.3263 163.065 24.1871 162.747 25.9953C162.429 27.8036 161.406 29.4111 159.905 30.4642C158.404 31.5173 156.546 31.9299 154.741 31.611C152.936 31.2922 151.332 30.2681 150.28 28.7641C149.229 27.26 148.817 25.3992 149.136 23.591Z" fill="#B41E32"/>
<path d="M160.491 38.726L164.777 22.1074L156.905 33.9858C157.034 33.9907 157.16 34.03 157.269 34.0995C157.378 34.169 157.466 34.2664 157.525 34.3814C157.584 34.4965 157.612 34.6252 157.604 34.7543C157.597 34.8835 157.556 35.0083 157.484 35.116C157.413 35.2238 157.314 35.3106 157.198 35.3674C157.082 35.4243 156.953 35.4492 156.824 35.4397C156.695 35.4301 156.571 35.3863 156.464 35.3129C156.358 35.2395 156.273 35.139 156.218 35.0219L153.553 39.0434L153.738 39.0754C157.303 39.7529 160.325 39.5986 160.491 38.726ZM158.566 33.3448C158.47 33.3475 158.376 33.3217 158.295 33.2708C158.214 33.2198 158.149 33.1459 158.11 33.0585C158.071 32.9711 158.059 32.874 158.075 32.7796C158.091 32.6851 158.134 32.5976 158.2 32.528C158.266 32.4583 158.351 32.4098 158.444 32.3885C158.537 32.3671 158.635 32.3739 158.724 32.4081C158.814 32.4422 158.891 32.5021 158.947 32.5802C159.002 32.6583 159.033 32.7511 159.036 32.8469C159.038 32.9106 159.028 32.9741 159.006 33.0337C158.983 33.0934 158.949 33.1479 158.905 33.1943C158.862 33.2406 158.809 33.2777 158.751 33.3036C158.693 33.3294 158.63 33.3434 158.566 33.3448ZM156.795 37.8296C156.69 37.9416 156.554 38.02 156.405 38.0547C156.255 38.0895 156.099 38.0791 155.955 38.0249C155.811 37.9707 155.687 37.8751 155.598 37.7502C155.508 37.6253 155.458 37.4767 155.453 37.3232C155.448 37.1697 155.489 37.0182 155.57 36.8879C155.651 36.7576 155.769 36.6543 155.909 36.5911C156.049 36.5279 156.204 36.5076 156.356 36.5328C156.507 36.558 156.648 36.6276 156.76 36.7327C156.907 36.8746 156.992 37.0687 156.998 37.2731C157.003 37.4775 156.928 37.6757 156.788 37.8249L156.795 37.8296ZM159.483 34.8742C159.339 34.879 159.196 34.8409 159.074 34.7646C158.951 34.6884 158.854 34.5775 158.794 34.446C158.734 34.3144 158.715 34.1681 158.738 34.0256C158.762 33.8831 158.827 33.7508 158.926 33.6454C159.025 33.5401 159.152 33.4664 159.293 33.4337C159.434 33.401 159.581 33.4107 159.716 33.4618C159.851 33.5128 159.968 33.6027 160.052 33.7202C160.136 33.8377 160.183 33.9775 160.188 34.1219C160.191 34.2177 160.174 34.313 160.14 34.4025C160.106 34.4919 160.054 34.5737 159.988 34.643C159.922 34.7124 159.843 34.7679 159.755 34.8065C159.667 34.8452 159.573 34.866 159.477 34.868L159.483 34.8742ZM159.11 37.4739C159.067 37.5204 159.015 37.558 158.958 37.5844C158.9 37.6108 158.838 37.6255 158.775 37.6277C158.712 37.6299 158.649 37.6196 158.589 37.5973C158.53 37.575 158.476 37.5412 158.43 37.4978C158.384 37.4544 158.347 37.4023 158.321 37.3445C158.295 37.2867 158.281 37.2244 158.279 37.1611C158.277 37.0978 158.288 37.0348 158.311 36.9758C158.334 36.9168 158.368 36.8629 158.412 36.8172C158.499 36.726 158.619 36.6731 158.745 36.6698C158.872 36.6666 158.994 36.7134 159.086 36.7999C159.178 36.8865 159.232 37.0058 159.237 37.132C159.241 37.2583 159.196 37.3811 159.11 37.4739ZM160.077 36.2447C159.969 36.2481 159.861 36.2192 159.769 36.1616C159.677 36.1041 159.604 36.0204 159.559 35.9213C159.514 35.8222 159.5 35.7121 159.518 35.6049C159.536 35.4976 159.585 35.3981 159.659 35.3189C159.734 35.2397 159.83 35.1844 159.936 35.1599C160.042 35.1354 160.152 35.1429 160.254 35.1814C160.356 35.2199 160.444 35.2877 160.507 35.3762C160.57 35.4647 160.606 35.57 160.609 35.6786C160.611 35.8241 160.556 35.9646 160.455 36.0695C160.355 36.1744 160.216 36.2352 160.071 36.2385L160.077 36.2447Z" fill="#DDAD77"/>
<path d="M156.912 35.4417C156.769 35.4457 156.629 35.4079 156.507 35.3329C156.386 35.2579 156.289 35.149 156.229 35.0197L153.564 39.0412C150.103 38.3562 147.447 37.1202 147.61 36.262L149.612 15.792L149.715 14.7414L159.084 16.537L159.793 16.6736L160.23 16.7574L161.218 16.9453L165.883 17.8391L165.614 18.8662L164.78 22.1081L156.908 33.9864C157.095 33.9962 157.271 34.0776 157.4 34.2138C157.529 34.3499 157.6 34.5304 157.6 34.7178C157.599 34.9052 157.527 35.0852 157.397 35.2205C157.268 35.3558 157.091 35.436 156.904 35.4445L156.912 35.4417Z" fill="#F2C58B"/>
<path d="M158.075 32.8786C158.072 32.7832 158.098 32.6891 158.148 32.6082C158.199 32.5273 158.272 32.4633 158.359 32.4241C158.446 32.385 158.543 32.3725 158.637 32.3883C158.731 32.4041 158.819 32.4474 158.888 32.5128C158.958 32.5782 159.006 32.6627 159.028 32.7557C159.049 32.8487 159.043 32.946 159.009 33.0352C158.975 33.1244 158.916 33.2016 158.838 33.2571C158.76 33.3125 158.668 33.3437 158.573 33.3467C158.445 33.3502 158.321 33.3029 158.228 33.2152C158.134 33.1275 158.08 33.0065 158.075 32.8786Z" fill="#F2C58B"/>
<path d="M156.799 37.8301C156.694 37.9418 156.558 38.02 156.409 38.0547C156.26 38.0894 156.104 38.0791 155.961 38.0251C155.817 37.9711 155.693 37.8758 155.604 37.7513C155.515 37.6267 155.465 37.4786 155.459 37.3255C155.454 37.1724 155.495 37.0213 155.576 36.8912C155.656 36.7612 155.774 36.658 155.913 36.5948C156.053 36.5315 156.208 36.5111 156.359 36.5359C156.51 36.5608 156.65 36.63 156.762 36.7346C156.837 36.8042 156.896 36.8877 156.939 36.9804C156.981 37.0731 157.004 37.1732 157.007 37.275C157.011 37.3767 156.994 37.4781 156.958 37.5734C156.922 37.6686 156.868 37.7559 156.799 37.8301Z" fill="#F2C58B"/>
<path d="M159.49 34.8761C159.345 34.8809 159.203 34.8428 159.08 34.7665C158.957 34.6903 158.86 34.5794 158.8 34.4478C158.741 34.3163 158.721 34.17 158.745 34.0275C158.768 33.885 158.834 33.7527 158.932 33.6473C159.031 33.542 159.159 33.4683 159.299 33.4356C159.44 33.4029 159.587 33.4126 159.722 33.4637C159.857 33.5147 159.974 33.6046 160.058 33.7221C160.143 33.8396 160.19 33.9794 160.194 34.1238C160.198 34.2195 160.182 34.3149 160.148 34.4046C160.115 34.4942 160.064 34.5764 159.998 34.6462C159.933 34.7161 159.854 34.7724 159.767 34.8118C159.68 34.8513 159.585 34.8731 159.49 34.8761Z" fill="#F2C58B"/>
<path d="M159.124 37.4796C159.037 37.5725 158.917 37.627 158.789 37.6311C158.662 37.6352 158.539 37.5886 158.446 37.5016C158.353 37.4146 158.298 37.2942 158.294 37.167C158.29 37.0398 158.336 36.9162 158.423 36.8233C158.51 36.7305 158.631 36.676 158.758 36.6719C158.821 36.6698 158.884 36.6802 158.942 36.7024C159.001 36.7246 159.055 36.7583 159.101 36.8014C159.147 36.8444 159.185 36.8962 159.211 36.9536C159.237 37.011 159.251 37.073 159.253 37.1359C159.255 37.1989 159.245 37.2617 159.223 37.3207C159.2 37.3796 159.167 37.4336 159.124 37.4796Z" fill="#F2C58B"/>
<path d="M160.082 36.2447C159.973 36.2481 159.866 36.2192 159.774 36.1616C159.682 36.1041 159.609 36.0204 159.564 35.9213C159.519 35.8222 159.505 35.7121 159.523 35.6049C159.54 35.4976 159.59 35.3981 159.664 35.3189C159.739 35.2397 159.835 35.1844 159.941 35.1599C160.047 35.1354 160.157 35.1429 160.259 35.1814C160.361 35.2199 160.449 35.2877 160.512 35.3762C160.575 35.4647 160.61 35.5699 160.614 35.6786C160.618 35.8241 160.564 35.9653 160.465 36.0714C160.365 36.1774 160.228 36.2398 160.082 36.2447Z" fill="#F2C58B"/>
<path d="M157.348 18.8781C162.01 19.7721 166.003 19.3806 166.266 18.0038C166.529 16.6269 162.963 14.7861 158.301 13.8921C153.639 12.9981 149.646 13.3896 149.383 14.7665C149.12 16.1433 152.686 17.9842 157.348 18.8781Z" fill="#42331D"/>
<path d="M149.649 34.2484C150.006 34.4849 150.486 34.3877 150.723 34.0312C150.959 33.6747 150.861 33.194 150.505 32.9575C150.148 32.721 149.668 32.8183 149.432 33.1747C149.195 33.5312 149.293 34.0119 149.649 34.2484Z" fill="#42331D"/>
<path d="M151.728 36.5179C152.084 36.7544 152.565 36.6572 152.801 36.3007C153.037 35.9443 152.94 35.4636 152.583 35.2271C152.227 34.9906 151.746 35.0878 151.51 35.4443C151.273 35.8007 151.371 36.2814 151.728 36.5179Z" fill="#42331D"/>
<path d="M153.132 33.9554C153.488 34.192 153.969 34.0947 154.205 33.7382C154.441 33.3818 154.344 32.9011 153.987 32.6646C153.631 32.4281 153.15 32.5253 152.914 32.8818C152.678 33.2382 152.775 33.7189 153.132 33.9554Z" fill="#42331D"/>
<path d="M151.397 32.0244C151.618 32.1707 151.915 32.1106 152.061 31.8901C152.208 31.6695 152.147 31.3722 151.927 31.2258C151.706 31.0795 151.409 31.1397 151.263 31.3602C151.117 31.5807 151.177 31.8781 151.397 32.0244Z" fill="#42331D"/>
<path d="M156.799 37.8301C156.694 37.9418 156.558 38.02 156.409 38.0547C156.26 38.0894 156.104 38.0791 155.961 38.0251C155.817 37.9711 155.693 37.8758 155.604 37.7513C155.515 37.6267 155.465 37.4786 155.459 37.3255C155.454 37.1724 155.495 37.0213 155.576 36.8912C155.656 36.7612 155.774 36.658 155.913 36.5948C156.053 36.5315 156.208 36.5111 156.359 36.5359C156.51 36.5608 156.65 36.63 156.762 36.7346C156.837 36.8042 156.896 36.8877 156.939 36.9804C156.981 37.0731 157.004 37.1732 157.007 37.275C157.011 37.3767 156.994 37.4781 156.958 37.5734C156.922 37.6686 156.868 37.7559 156.799 37.8301Z" fill="#42331D"/>
<path d="M159.124 37.4796C159.037 37.5725 158.917 37.627 158.789 37.6311C158.662 37.6352 158.539 37.5886 158.446 37.5016C158.353 37.4146 158.298 37.2942 158.294 37.167C158.29 37.0398 158.336 36.9162 158.423 36.8233C158.51 36.7305 158.631 36.676 158.758 36.6719C158.821 36.6698 158.884 36.6802 158.942 36.7024C159.001 36.7246 159.055 36.7583 159.101 36.8014C159.147 36.8444 159.185 36.8962 159.211 36.9536C159.237 37.011 159.251 37.073 159.253 37.1359C159.255 37.1989 159.245 37.2617 159.223 37.3207C159.2 37.3796 159.167 37.4336 159.124 37.4796Z" fill="#42331D"/>
<path d="M149.511 36.6358C149.731 36.7821 150.029 36.7219 150.175 36.5014C150.321 36.2809 150.261 35.9835 150.04 35.8372C149.819 35.6909 149.522 35.751 149.376 35.9715C149.23 36.1921 149.29 36.4894 149.511 36.6358Z" fill="#42331D"/>
<path d="M151.835 34.458C152.056 34.6043 152.353 34.5442 152.499 34.3236C152.645 34.1031 152.585 33.8058 152.364 33.6595C152.144 33.5131 151.846 33.5733 151.7 33.7938C151.554 34.0143 151.614 34.3117 151.835 34.458Z" fill="#42331D"/>
<path d="M156.911 35.4412C156.769 35.4452 156.628 35.4074 156.507 35.3324C156.385 35.2574 156.289 35.1485 156.229 35.0192C156.186 34.9303 156.162 34.8332 156.16 34.7345C156.156 34.6388 156.172 34.5433 156.206 34.4537C156.239 34.364 156.29 34.2819 156.356 34.212C156.421 34.1422 156.5 34.0859 156.587 34.0464C156.674 34.007 156.769 33.9852 156.864 33.9822C156.881 33.9803 156.897 33.9802 156.914 33.9821C157.101 33.9919 157.277 34.0733 157.406 34.2095C157.535 34.3456 157.606 34.5261 157.606 34.7135C157.605 34.9009 157.533 35.0809 157.403 35.2161C157.274 35.3514 157.097 35.4317 156.91 35.4402L156.911 35.4412Z" fill="#42331D"/>
<path d="M154.306 35.9535C154.662 36.19 155.143 36.0928 155.379 35.7363C155.615 35.3798 155.518 34.8991 155.161 34.6626C154.805 34.4261 154.324 34.5233 154.088 34.8798C153.852 35.2363 153.949 35.717 154.306 35.9535Z" fill="#42331D"/>
<path d="M153.405 38.175C153.673 38.3528 154.034 38.2797 154.211 38.0117C154.389 37.7438 154.316 37.3825 154.048 37.2047C153.78 37.0269 153.419 37.1 153.241 37.368C153.063 37.6359 153.137 37.9972 153.405 38.175Z" fill="#42331D"/>
<path d="M155.71 33.389C156.066 33.6255 156.547 33.5283 156.783 33.1718C157.02 32.8154 156.922 32.3347 156.565 32.0982C156.209 31.8617 155.728 31.9589 155.492 32.3154C155.256 32.6718 155.353 33.1525 155.71 33.389Z" fill="#42331D"/>
<path d="M153.875 31.9552C154.021 32.0522 154.218 32.0123 154.315 31.8661C154.412 31.7199 154.372 31.5227 154.226 31.4257C154.079 31.3286 153.882 31.3685 153.785 31.5148C153.689 31.661 153.729 31.8582 153.875 31.9552Z" fill="#42331D"/>
<path d="M158.568 33.3429C158.472 33.3459 158.377 33.3204 158.296 33.2697C158.215 33.219 158.15 33.1453 158.111 33.0579C158.071 32.9706 158.059 32.8735 158.075 32.779C158.09 32.6845 158.134 32.5969 158.199 32.5271C158.265 32.4573 158.35 32.4085 158.443 32.3869C158.536 32.3654 158.634 32.372 158.723 32.4059C158.813 32.4399 158.891 32.4996 158.946 32.5776C159.002 32.6556 159.033 32.7484 159.036 32.8441C159.038 32.9077 159.028 32.9711 159.006 33.0307C158.983 33.0902 158.949 33.1447 158.906 33.1911C158.862 33.2375 158.81 33.2748 158.752 33.3008C158.694 33.3269 158.631 33.3412 158.568 33.3429Z" fill="#42331D"/>
<path d="M156.447 31.2471C156.683 31.4039 157.002 31.3395 157.158 31.1031C157.315 30.8668 157.25 30.5481 157.014 30.3913C156.778 30.2345 156.459 30.299 156.302 30.5353C156.146 30.7717 156.21 31.0904 156.447 31.2471Z" fill="#42331D"/>
<path d="M159.49 34.8761C159.345 34.8809 159.203 34.8428 159.08 34.7665C158.957 34.6903 158.86 34.5794 158.8 34.4478C158.741 34.3163 158.721 34.17 158.745 34.0275C158.768 33.885 158.834 33.7527 158.932 33.6473C159.031 33.542 159.159 33.4683 159.299 33.4356C159.44 33.4029 159.587 33.4126 159.722 33.4637C159.857 33.5147 159.974 33.6046 160.058 33.7221C160.143 33.8396 160.19 33.9794 160.194 34.1238C160.198 34.2195 160.182 34.3149 160.148 34.4046C160.115 34.4942 160.064 34.5764 159.998 34.6462C159.933 34.7161 159.854 34.7724 159.767 34.8118C159.68 34.8513 159.585 34.8731 159.49 34.8761Z" fill="#42331D"/>
<path d="M160.082 36.2447C159.973 36.2481 159.866 36.2192 159.774 36.1616C159.682 36.1041 159.609 36.0204 159.564 35.9213C159.519 35.8222 159.505 35.7121 159.523 35.6049C159.54 35.4976 159.59 35.3981 159.664 35.3189C159.739 35.2397 159.835 35.1844 159.941 35.1599C160.047 35.1354 160.157 35.1429 160.259 35.1814C160.361 35.2199 160.449 35.2877 160.512 35.3762C160.575 35.4647 160.61 35.5699 160.614 35.6786C160.618 35.8241 160.564 35.9653 160.465 36.0714C160.365 36.1774 160.228 36.2398 160.082 36.2447Z" fill="#42331D"/>
<path d="M162.759 10.2744L160.645 9.78516L159.028 16.7946L161.143 17.2838L162.759 10.2744Z" fill="#BE9BC8"/>
<path d="M161.628 10.3342C162.212 10.4692 162.717 10.4424 162.756 10.2742C162.794 10.106 162.352 9.86016 161.768 9.72507C161.184 9.58998 160.679 9.61682 160.641 9.78501C160.602 9.9532 161.044 10.1991 161.628 10.3342Z" fill="#A580B2"/>
<path d="M160.013 17.3439C160.597 17.479 161.102 17.4522 161.14 17.284C161.179 17.1158 160.737 16.8699 160.153 16.7348C159.569 16.5998 159.064 16.6266 159.025 16.7948C158.987 16.963 159.429 17.2088 160.013 17.3439Z" fill="#BE9BC8"/>
<path d="M156.222 35.015L156.909 33.9788C157.039 33.9833 157.165 34.0223 157.275 34.0918C157.384 34.1613 157.474 34.2588 157.533 34.3743C157.593 34.4897 157.62 34.619 157.613 34.7486C157.606 34.8783 157.564 35.0037 157.493 35.1119C157.421 35.2201 157.322 35.3072 157.205 35.3642C157.088 35.4212 156.959 35.446 156.829 35.4361C156.7 35.4263 156.575 35.382 156.469 35.308C156.362 35.234 156.277 35.1328 156.222 35.015Z" fill="#42331D"/>
<path d="M158.075 32.8786C158.072 32.7832 158.098 32.6891 158.148 32.6082C158.199 32.5273 158.272 32.4633 158.359 32.4241C158.446 32.385 158.543 32.3725 158.637 32.3883C158.731 32.4041 158.819 32.4474 158.888 32.5128C158.958 32.5782 159.006 32.6627 159.028 32.7557C159.049 32.8487 159.043 32.946 159.009 33.0352C158.975 33.1244 158.916 33.2016 158.838 33.2571C158.76 33.3125 158.668 33.3437 158.573 33.3467C158.445 33.3502 158.321 33.3029 158.228 33.2152C158.134 33.1275 158.08 33.0065 158.075 32.8786Z" fill="#42331D"/>
<path d="M156.763 36.7337C156.875 36.8387 156.953 36.9744 156.988 37.1237C157.022 37.273 157.012 37.4293 156.958 37.5726C156.904 37.716 156.808 37.84 156.683 37.929C156.559 38.018 156.41 38.0679 156.257 38.0725C156.104 38.0771 155.953 38.0362 155.823 37.9549C155.693 37.8735 155.59 37.7555 155.527 37.6157C155.464 37.4759 155.444 37.3205 155.47 37.1694C155.495 37.0183 155.565 36.8781 155.67 36.7666C155.811 36.6175 156.005 36.5302 156.21 36.5241C156.415 36.5179 156.614 36.5933 156.763 36.7337Z" fill="#42331D"/>
<path d="M160.195 34.1244C160.199 34.2683 160.161 34.4102 160.085 34.5324C160.009 34.6545 159.898 34.7513 159.767 34.8106C159.636 34.8698 159.49 34.8889 159.348 34.8653C159.206 34.8418 159.075 34.7767 158.97 34.6782C158.865 34.5798 158.791 34.4524 158.758 34.3122C158.725 34.172 158.735 34.0253 158.786 33.8906C158.836 33.7558 158.926 33.6391 159.042 33.5552C159.159 33.4713 159.299 33.424 159.442 33.4191C159.635 33.4136 159.823 33.4846 159.964 33.6167C160.105 33.7488 160.188 33.9313 160.195 34.1244Z" fill="#42331D"/>
<path d="M159.093 36.7978C159.14 36.8406 159.177 36.8922 159.203 36.9494C159.229 37.0067 159.244 37.0685 159.246 37.1314C159.248 37.1943 159.238 37.2571 159.216 37.316C159.193 37.3748 159.16 37.4288 159.117 37.4746C159.03 37.5675 158.909 37.622 158.782 37.6261C158.655 37.6302 158.532 37.5836 158.439 37.4966C158.346 37.4096 158.291 37.2892 158.287 37.162C158.283 37.0348 158.329 36.9112 158.416 36.8183C158.459 36.7723 158.511 36.7353 158.568 36.7093C158.626 36.6833 158.688 36.669 158.75 36.6671C158.813 36.6652 158.876 36.6757 158.935 36.6982C158.994 36.7206 159.048 36.7545 159.093 36.7978Z" fill="#42331D"/>
<path d="M159.513 35.7115C159.51 35.6029 159.539 35.4959 159.597 35.4038C159.654 35.3117 159.738 35.2388 159.837 35.1942C159.936 35.1497 160.046 35.1354 160.153 35.1533C160.26 35.1712 160.36 35.2205 160.439 35.2948C160.518 35.3692 160.573 35.4654 160.598 35.5712C160.623 35.677 160.615 35.7877 160.577 35.8893C160.539 35.9909 160.471 36.0789 160.383 36.1422C160.295 36.2054 160.19 36.2411 160.081 36.2447C160.009 36.2471 159.937 36.2352 159.869 36.2097C159.801 36.1841 159.739 36.1455 159.687 36.096C159.634 36.0464 159.592 35.9869 159.562 35.921C159.532 35.855 159.516 35.7838 159.513 35.7115Z" fill="#42331D"/>
<path d="M218.473 47.9392C224.508 46.6342 230.814 47.7629 236.025 51.0807C241.247 54.3988 244.961 59.6351 246.343 65.6478C247.598 71.0882 246.996 75.9041 245.02 80.047C243.063 84.1551 239.817 87.4646 235.978 90.0628C228.348 95.2364 218.06 97.8128 209.461 98.2791C208.458 98.3352 207.462 98.0755 206.614 97.5363C205.765 96.9971 205.106 96.2054 204.729 95.2722C201.485 87.2813 199.427 76.8575 200.843 67.7381C201.555 63.1529 203.162 58.8024 206.036 55.2737C208.933 51.7194 213.024 49.124 218.473 47.9392ZM217.796 65.3884C218.896 63.6509 220.64 62.4223 222.645 61.9729C224.649 61.5235 226.749 61.8902 228.484 62.9922C230.218 64.0943 231.444 65.8414 231.893 67.8492C232.342 69.8571 231.976 71.9612 230.876 73.6988C229.776 75.4363 228.032 76.6649 226.027 77.1142C224.023 77.5636 221.923 77.1969 220.188 76.0949C218.454 74.9929 217.227 73.2458 216.779 71.2379C216.33 69.23 216.696 67.1259 217.796 65.3884Z" fill="#B41E32"/>
<path d="M213.996 62.8245C213.967 62.7172 213.955 62.6147 213.959 62.5195L213.996 62.8245Z" fill="#B76028"/>
<path d="M236.542 69.5324L236.461 69.7031C235.648 70.9898 230.398 70.6004 224.393 68.7697C218.389 66.939 213.812 64.3338 213.853 62.808L213.882 62.6199L236.542 69.5324Z" fill="#B76028"/>
<path d="M236.487 69.3248L213.997 62.5497C214.453 61.066 219.856 61.3796 226.066 63.2504C232.276 65.1212 236.943 67.84 236.487 69.3248Z" fill="#B76028"/>
<path d="M236.443 69.7327L236.406 69.4277C236.454 69.554 236.466 69.6566 236.443 69.7327Z" fill="#B76028"/>
<path d="M222.702 56.0168L221.52 55.6562L217.927 67.4981L219.109 67.8587L222.702 56.0168Z" fill="#EDD398"/>
<path d="M218.455 67.6901L217.268 67.3333L219.617 59.7157L220.963 55.3567L222.149 55.7108L220.782 60.1448L218.455 67.6901Z" fill="#FFE6A9"/>
<path d="M228.21 61.8966L227.023 61.2754L220.824 73.1575L222.011 73.7787L228.21 61.8966Z" fill="#EDD398"/>
<path d="M221.455 73.36L220.295 72.7565L224.197 65.3092L226.429 61.0474L227.589 61.6534L225.319 65.9864L221.455 73.36Z" fill="#FFE6A9"/>
<path d="M233.1 60.1017L231.914 59.4805L225.715 71.3625L226.901 71.9837L233.1 60.1017Z" fill="#EDD398"/>
<path d="M226.352 71.6896L225.189 71.0882L229.174 63.5352L231.455 59.214L232.618 59.8155L230.298 64.2104L226.352 71.6896Z" fill="#FFE6A9"/>
<path d="M232.389 62.5664L231.117 62.1504L226.969 74.8977L228.241 75.3137L232.389 62.5664Z" fill="#EDD398"/>
<path d="M227.531 75.1102L226.259 74.6936L228.891 66.6005L230.397 61.9683L231.67 62.3835L230.136 67.0943L227.531 75.1102Z" fill="#FFE6A9"/>
<path d="M230.376 58.1502L229.096 57.7598L225.204 70.588L226.484 70.9784L230.376 58.1502Z" fill="#EDD398"/>
<path d="M225.953 70.7927L224.676 70.408L227.181 62.2355L228.615 57.5593L229.891 57.944L228.435 62.6999L225.953 70.7927Z" fill="#FFE6A9"/>
<path d="M227.767 58.0955L226.486 57.7051L222.594 70.5334L223.875 70.9237L227.767 58.0955Z" fill="#EDD398"/>
<path d="M223.307 70.6498L222.035 70.2588L224.457 62.1914L225.845 57.5745L227.116 57.9655L225.707 62.6611L223.307 70.6498Z" fill="#FFE6A9"/>
<path d="M219.786 57.2583L218.561 57.0996L216.984 69.3762L218.21 69.5349L219.786 57.2583Z" fill="#EDD398"/>
<path d="M217.568 69.5245L216.344 69.367L217.367 61.5546L217.953 57.0819L219.177 57.2367L218.582 61.7847L217.568 69.5245Z" fill="#FFE6A9"/>
<path d="M217.466 57.7603L216.24 57.6016L214.664 69.8782L215.89 70.0369L217.466 57.7603Z" fill="#EDD398"/>
<path d="M215.301 69.9489L214.078 69.794L215.099 61.9798L215.686 57.5076L216.911 57.6636L216.315 62.2099L215.301 69.9489Z" fill="#FFE6A9"/>
<path d="M234.747 61.3123L233.467 60.9219L229.575 73.7502L230.855 74.1405L234.747 61.3123Z" fill="#EDD398"/>
<path d="M230.35 73.9797L229.037 73.5664L231.457 65.3277L232.841 60.6121L234.153 61.0242L232.744 65.819L230.35 73.9797Z" fill="#FFE6A9"/>
<path d="M238.008 64.824L236.605 64.0449L230.1 75.805L231.503 76.584L238.008 64.824Z" fill="#EDD398"/>
<path d="M231.502 74.621L230.129 73.8737L234.236 66.4287L236.587 62.168L237.959 62.9167L235.569 67.2468L231.502 74.621Z" fill="#FFE6A9"/>
<path d="M223.982 58.2984L222.898 57.7031L216.961 68.5563L218.045 69.1515L223.982 58.2984Z" fill="#EDD398"/>
<path d="M217.495 68.9118L216.41 68.3144L220.172 61.427L222.324 57.4871L223.408 58.0834L221.221 62.0911L217.495 68.9118Z" fill="#FFE6A9"/>
<path d="M237.726 59.8887L236.553 59.2441L228.523 73.9218L229.697 74.5663L237.726 59.8887Z" fill="#EDD398"/>
<path d="M229.1 74.1645L227.967 73.5531L233.123 64.2673L236.075 58.953L237.208 59.5644L234.206 64.9689L229.1 74.1645Z" fill="#FFE6A9"/>
<path d="M225.748 56.4757L224.201 56.1758L221.523 70.0771L223.07 70.377L225.748 56.4757Z" fill="#EDD398"/>
<path d="M222.333 70.1319L220.798 69.8369L222.504 61.0472L223.481 56.0159L225.017 56.312L224.023 61.4269L222.333 70.1319Z" fill="#FFE6A9"/>
<path d="M223.257 60.2532L221.807 60.3633L222.802 73.3995L224.253 73.2894L223.257 60.2532Z" fill="#EDD398"/>
<path d="M223.678 73.3399L222.221 73.4456L221.56 65.1176L221.182 60.3503L222.642 60.2443L223.026 65.0907L223.678 73.3399Z" fill="#FFE6A9"/>
<path d="M221.762 63.0602L220.436 63.2715L222.336 75.1935L223.663 74.9822L221.762 63.0602Z" fill="#EDD398"/>
<path d="M223.117 75.1093L221.793 75.3162L220.564 67.7626L219.86 63.4404L221.182 63.235L221.899 67.6296L223.117 75.1093Z" fill="#FFE6A9"/>
<path d="M236.392 69.6912L229.224 85.1577C228.983 85.6688 228.568 86.076 228.052 86.3054C227.536 86.5348 226.954 86.5712 226.412 86.4079L213.056 82.3162C212.512 82.1508 212.045 81.7942 211.742 81.3123C211.439 80.8304 211.32 80.2557 211.407 79.6947L213.995 62.8245C213.967 64.3358 218.495 66.9155 224.437 68.7383C230.379 70.5611 235.589 70.9619 236.392 69.6912Z" fill="#D16B28"/>
</svg>
