<svg width="40" height="41" viewBox="0 0 40 41" fill="none" xmlns="http://www.w3.org/2000/svg">
<rect y="0.40625" width="40" height="40" rx="20"/>
<path d="M24.1602 25.6303L26.4259 28.8261C26.4259 28.8261 27.4266 29.63 26.8772 30.666C26.3277 31.702 28.4009 32.0181 28.5482 31.0562C28.6954 30.0943 28.7974 30.2016 28.7974 30.2016C28.7974 30.2016 30.5345 30.7284 30.778 29.6378C30.9933 28.6622 30.5382 27.8057 29.7452 28.1023C28.9522 28.3988 26.6279 25.0918 26.6279 25.0918L24.1602 25.6303Z" fill="#CEC3BC"/>
<path d="M13.1493 10.3789C8.5561 13.003 8.97276 20.8093 16.4384 22.8364C21.7403 24.2763 23.6435 25.168 23.8606 25.8099C24.0777 26.4517 25.4938 27.9794 25.8601 28.0321C26.2264 28.0848 27.7086 28.3072 27.9805 27.716C28.2524 27.1249 29.2399 27.6438 27.3933 25.646C27.2177 25.4509 26.1056 23.9505 25.6676 21.1097C25.2295 18.269 22.7391 4.90033 13.1493 10.3789Z" fill="#AD6F36"/>
</svg>
