<svg width="48" height="49" viewBox="0 0 48 49" fill="none" xmlns="http://www.w3.org/2000/svg">
<path d="M0 24.1035C0 37.3414 10.7621 48.1035 24 48.1035C37.2379 48.1035 48 37.3414 48 24.1035C48 10.8656 37.2379 0.103516 24 0.103516C10.7621 0.103516 0 10.8656 0 24.1035ZM29.7095 12.533C30.5179 13.3414 30.5179 14.6046 29.7095 15.3625L20.9684 24.1035L29.6589 32.794C30.0632 33.1982 30.2653 33.7035 30.2653 34.2088C30.2653 34.714 30.0632 35.2193 29.6589 35.6235C28.8505 36.4319 27.5874 36.4319 26.8295 35.6235L16.7242 25.5183C15.9158 24.7098 15.9158 23.4467 16.7242 22.6888L26.88 12.533C27.6379 11.7751 28.9011 11.7751 29.7095 12.533Z" fill="#555555"/>
</svg>
