<svg width="48" height="48" viewBox="0 0 48 48" fill="none" xmlns="http://www.w3.org/2000/svg">
<path d="M48 24C48 37.2379 37.2379 48 24 48C10.7621 48 7.7486e-07 37.2379 7.7486e-07 24C7.7486e-07 10.7621 10.7621 0 24 0C37.2379 0 48 10.7621 48 24ZM18.2905 12.4295C17.4821 13.2379 17.4821 14.5011 18.2905 15.2589L27.0316 24L18.3411 32.6905C17.9368 33.0947 17.7347 33.6 17.7347 34.1053C17.7347 34.6105 17.9368 35.1158 18.3411 35.52C19.1495 36.3284 20.4126 36.3284 21.1705 35.52L31.2758 25.4147C32.0842 24.6063 32.0842 23.3432 31.2758 22.5853L21.12 12.4295C20.3621 11.6716 19.0989 11.6716 18.2905 12.4295Z" fill="#555555"/>
</svg>
