<svg width="48" height="49" viewBox="0 0 48 49" fill="none" xmlns="http://www.w3.org/2000/svg">
<path d="M48 24.1035C48 37.3414 37.2379 48.1035 24 48.1035C10.7621 48.1035 0 37.3414 0 24.1035C0 10.8656 10.7621 0.103516 24 0.103516C37.2379 0.103516 48 10.8656 48 24.1035ZM18.2905 12.533C17.4821 13.3414 17.4821 14.6046 18.2905 15.3625L27.0316 24.1035L18.3411 32.794C17.9368 33.1982 17.7347 33.7035 17.7347 34.2088C17.7347 34.714 17.9368 35.2193 18.3411 35.6235C19.1495 36.4319 20.4126 36.4319 21.1705 35.6235L31.2758 25.5183C32.0842 24.7098 32.0842 23.4467 31.2758 22.6888L21.12 12.533C20.3621 11.7751 19.0989 11.7751 18.2905 12.533Z" fill="#B41E32"/>
</svg>
