<svg width="48" height="48" viewBox="0 0 48 48" fill="none" xmlns="http://www.w3.org/2000/svg">
<path d="M0 24C0 37.2379 10.7621 48 24 48C37.2379 48 48 37.2379 48 24C48 10.7621 37.2379 0 24 0C10.7621 0 0 10.7621 0 24ZM29.7095 12.4295C30.5179 13.2379 30.5179 14.5011 29.7095 15.2589L20.9684 24L29.6589 32.6905C30.0632 33.0947 30.2653 33.6 30.2653 34.1053C30.2653 34.6105 30.0632 35.1158 29.6589 35.52C28.8505 36.3284 27.5874 36.3284 26.8295 35.52L16.7242 25.4147C15.9158 24.6063 15.9158 23.3432 16.7242 22.5853L26.88 12.4295C27.6379 11.6716 28.9011 11.6716 29.7095 12.4295Z" fill="#B41E32"/>
</svg>
