<svg width="40" height="41" viewBox="0 0 40 41" fill="none" xmlns="http://www.w3.org/2000/svg">
<rect y="0.40625" width="40" height="40" rx="20" fill="white"/>
<path d="M16.7451 10.1855C16.3519 10.2688 15.9761 10.4191 15.634 10.63C15.552 10.5854 15.482 10.5217 15.4298 10.4444C15.3776 10.367 15.3447 10.2782 15.334 10.1855H16.7451Z" fill="#EBFCFB"/>
<path d="M24.3572 10.63C24.0151 10.4191 23.6392 10.2688 23.2461 10.1855H24.6661C24.6544 10.2791 24.6202 10.3684 24.5664 10.4458C24.5126 10.5233 24.4408 10.5865 24.3572 10.63V10.63Z" fill="#EBFCFB"/>
<path d="M20.0002 8.85156C17.3002 8.85156 15.1113 9.44934 15.1113 10.1849H15.3336C15.3452 10.2785 15.3794 10.3678 15.4332 10.4452C15.487 10.5226 15.5588 10.5858 15.6424 10.6293C15.9845 10.4185 16.3604 10.2681 16.7536 10.1849C17.8176 9.93671 18.9077 9.81807 20.0002 9.83156C21.0957 9.81735 22.1889 9.93599 23.2558 10.1849C23.6489 10.2681 24.0248 10.4185 24.3669 10.6293C24.4488 10.5847 24.5189 10.5211 24.5711 10.4437C24.6233 10.3664 24.6562 10.2776 24.6669 10.1849H24.8891C24.8891 9.44934 22.7002 8.85156 20.0002 8.85156Z" fill="#E2F2F0"/>
<path d="M24.8891 10.1855C24.8891 10.3767 24.7424 10.5589 24.4758 10.7233C24.2141 10.8754 23.934 10.9933 23.6424 11.0744C22.455 11.3915 21.2291 11.5411 20.0002 11.5189C18.7714 11.5411 17.5454 11.3915 16.358 11.0744C16.0664 10.9933 15.7864 10.8754 15.5247 10.7233C15.258 10.5589 15.1113 10.3767 15.1113 10.1855H15.3336C15.3452 10.2791 15.3794 10.3684 15.4332 10.4458C15.487 10.5233 15.5588 10.5865 15.6424 10.63C15.9845 10.8409 16.3604 10.9912 16.7536 11.0744C17.8176 11.3226 18.9077 11.4413 20.0002 11.4278C21.0957 11.442 22.1889 11.3233 23.2558 11.0744C23.6489 10.9912 24.0248 10.8409 24.3669 10.63C24.4488 10.5854 24.5189 10.5217 24.5711 10.4444C24.6233 10.367 24.6562 10.2782 24.6669 10.1855H24.8891Z" fill="#E2F2F0"/>
<path d="M24.6673 10.1856C24.6557 10.2791 24.6215 10.3685 24.5677 10.4459C24.5139 10.5233 24.4421 10.5865 24.3584 10.63C24.0163 10.4191 23.6405 10.2688 23.2473 10.1856C22.1833 9.93739 21.0932 9.81875 20.0007 9.83225C18.9052 9.81804 17.812 9.93668 16.7451 10.1856C16.3519 10.2688 15.9761 10.4191 15.634 10.63C15.552 10.5854 15.482 10.5217 15.4298 10.4444C15.3776 10.367 15.3447 10.2783 15.334 10.1856C15.334 9.49891 17.4229 8.94336 20.0007 8.94336C22.5784 8.94336 24.6673 9.49891 24.6673 10.1856Z" fill="#D4E8E5"/>
<path opacity="0.5" d="M24.8891 10.1855V30.63H24.5891C24.6379 30.566 24.6651 30.4882 24.6669 30.4078C24.6639 30.3126 24.6277 30.2214 24.5647 30.15C23.8602 29.6522 22.0824 29.2967 20.0002 29.2967C17.918 29.2967 16.1402 29.6522 15.4358 30.15C15.3727 30.2214 15.3366 30.3126 15.3336 30.4078C15.3353 30.4882 15.3625 30.566 15.4113 30.63H15.1113V10.1855C15.1113 10.3767 15.258 10.5589 15.5247 10.7233C15.7864 10.8754 16.0664 10.9933 16.358 11.0744C17.5454 11.3915 18.7714 11.5411 20.0002 11.5189C21.2291 11.5411 22.455 11.3915 23.6424 11.0744C23.934 10.9933 24.2141 10.8754 24.4758 10.7233C24.7424 10.5589 24.8891 10.3767 24.8891 10.1855Z" fill="#EBFCFB"/>
<path d="M24.6673 11.0742V30.4076C24.6643 30.3123 24.6282 30.2212 24.5651 30.1498C23.8607 29.652 22.0829 29.2964 20.0007 29.2964C17.9184 29.2964 16.1407 29.652 15.4362 30.1498C15.3731 30.2212 15.337 30.3123 15.334 30.4076V11.0742H16.3584C17.5459 11.3913 18.7718 11.5409 20.0007 11.5187C21.2295 11.5409 22.4554 11.3913 23.6429 11.0742H24.6673Z" fill="#C49A31"/>
<path d="M24.3573 10.629C24.0152 10.8399 23.6393 10.9902 23.2461 11.0734C22.1821 11.3216 21.092 11.4403 19.9995 11.4268C18.904 11.441 17.8108 11.3223 16.7439 11.0734C16.3508 10.9902 15.9749 10.8399 15.6328 10.629C15.9749 10.4181 16.3508 10.2678 16.7439 10.1846C17.8108 9.93565 18.904 9.81701 19.9995 9.83122C21.095 9.81701 22.1881 9.93565 23.255 10.1846C23.6451 10.2687 24.0179 10.4191 24.3573 10.629V10.629Z" fill="#D5AB44"/>
<path d="M24.6673 11.0738C24.6673 11.7604 22.5784 12.316 20.0007 12.316C17.4229 12.316 15.334 11.7604 15.334 11.0738C15.3389 11.005 15.3585 10.938 15.3914 10.8775C15.4244 10.8169 15.47 10.7641 15.5251 10.7227C15.7868 10.8747 16.0668 10.9927 16.3584 11.0738C17.5459 11.3908 18.7718 11.5404 20.0007 11.5182C21.2295 11.5404 22.4554 11.3908 23.6429 11.0738C23.9345 10.9927 24.2145 10.8747 24.4762 10.7227C24.5313 10.7641 24.5769 10.8169 24.6099 10.8775C24.6428 10.938 24.6624 11.005 24.6673 11.0738V11.0738Z" fill="#D4AB44"/>
<path d="M23.3779 12.7551C23.3779 12.7551 22.489 11.8662 22.3135 11.8285C22.1379 11.7907 20.9512 11.8618 20.9112 11.9929C20.8712 12.124 21.9601 12.964 21.9601 12.964L23.3779 12.7551Z" fill="#DDE8E8" fill-opacity="0.8"/>
<path d="M21.535 14.4341C21.535 14.4341 20.5572 13.5897 20.5306 13.4541C20.5039 13.3186 20.9106 11.9941 20.9106 11.9941L21.9994 12.9586L21.535 14.4341Z" fill="#E6EFEF" fill-opacity="0.8"/>
<path d="M21.5359 14.4332C21.7337 14.4932 22.7582 14.2309 22.8693 14.1176C22.9804 14.0043 23.4759 12.8554 23.3648 12.7487C23.2537 12.642 21.967 12.9554 21.967 12.9554C21.967 12.9554 21.3337 14.3709 21.5359 14.4332Z" fill="#D7E2E2" fill-opacity="0.8"/>
<path d="M23.6242 17.296C23.6242 17.296 22.5286 16.1849 22.3042 16.1449C22.0797 16.1049 20.6131 16.1849 20.562 16.3494C20.5108 16.5138 21.8664 17.556 21.8664 17.556L23.6242 17.296Z" fill="#DDE8E8" fill-opacity="0.8"/>
<path d="M21.3344 19.3765C21.3344 19.3765 20.1233 18.3299 20.0877 18.161C20.0522 17.9921 20.5588 16.3477 20.5588 16.3477L21.8922 17.5454L21.3344 19.3765Z" fill="#E6EFEF" fill-opacity="0.8"/>
<path d="M21.3341 19.3758C21.5808 19.4513 22.8519 19.1247 22.983 18.9869C23.1141 18.8491 23.7385 17.418 23.5985 17.2869C23.4585 17.1558 21.8652 17.5425 21.8652 17.5425C21.8652 17.5425 21.0919 19.2958 21.3341 19.3758Z" fill="#D7E2E2" fill-opacity="0.8"/>
<path d="M19.2734 14.3676C19.2734 14.3676 18.1512 14.2787 18.0067 14.3676C17.8623 14.4565 17.0978 15.1832 17.1489 15.2965C17.2 15.4099 18.4334 15.341 18.4334 15.341L19.2734 14.3676Z" fill="#DDE8E8" fill-opacity="0.8"/>
<path d="M19.0062 16.5902C19.0062 16.5902 17.8462 16.5902 17.7462 16.5147C17.6462 16.4391 17.1484 15.2969 17.1484 15.2969L18.4484 15.3191L19.0062 16.5902Z" fill="#E6EFEF" fill-opacity="0.8"/>
<path d="M19.0075 16.5886C19.1786 16.5153 19.7186 15.7331 19.7275 15.5953C19.7364 15.4575 19.3986 14.3797 19.2586 14.3731C19.1186 14.3664 18.4297 15.3331 18.4297 15.3331C18.4297 15.3331 18.8364 16.6642 19.0075 16.5886Z" fill="#D7E2E2" fill-opacity="0.8"/>
<path d="M18.5755 19.4961C18.5755 19.4961 17.4644 19.6516 17.3355 19.7628C17.2067 19.8739 16.6244 20.7583 16.6978 20.8516C16.7711 20.945 17.9622 20.6294 17.9622 20.6294L18.5755 19.4961Z" fill="#DDE8E8" fill-opacity="0.8"/>
<path d="M18.7884 21.7271C18.7884 21.7271 17.655 21.9738 17.5417 21.9204C17.4284 21.8671 16.6973 20.8515 16.6973 20.8515L17.9728 20.5938L18.7884 21.7271Z" fill="#E6EFEF" fill-opacity="0.8"/>
<path d="M18.7881 21.7281C18.9393 21.6192 19.3015 20.7392 19.2793 20.6014C19.257 20.4636 18.6993 19.4903 18.5615 19.5081C18.4237 19.5258 17.957 20.6192 17.957 20.6192C17.957 20.6192 18.637 21.8369 18.7881 21.7281Z" fill="#D7E2E2" fill-opacity="0.8"/>
<path d="M24.5644 30.1485C23.86 29.6507 22.0822 29.2952 20 29.2952C17.9178 29.2952 16.14 29.6507 15.4355 30.1485C15.88 29.5841 17.7555 29.1641 20 29.1641C22.2444 29.1641 24.1178 29.5841 24.5644 30.1485Z" fill="#D5AB44"/>
<path opacity="0.5" d="M24.8891 30.6284C24.8891 31.364 22.7002 31.9618 20.0002 31.9618C17.3002 31.9618 15.1113 31.364 15.1113 30.6284C15.1173 30.5497 15.1402 30.4731 15.1786 30.4041C15.2169 30.335 15.2698 30.2751 15.3336 30.2284C15.3647 30.2018 15.398 30.1751 15.4358 30.1484C15.3727 30.2198 15.3366 30.311 15.3336 30.4062C15.3353 30.4867 15.3625 30.5645 15.4113 30.6284C15.8047 31.2084 17.7091 31.6484 20.0002 31.6484C22.2913 31.6484 24.1958 31.204 24.5891 30.6284C24.6379 30.5645 24.6651 30.4867 24.6669 30.4062C24.6639 30.311 24.6277 30.2198 24.5647 30.1484C24.6024 30.1751 24.6358 30.2018 24.6669 30.2284C24.7306 30.2751 24.7835 30.335 24.8219 30.4041C24.8602 30.4731 24.8832 30.5497 24.8891 30.6284V30.6284Z" fill="#DAEFED"/>
<path opacity="0.5" d="M24.6673 30.408C24.6656 30.4884 24.6383 30.5662 24.5895 30.6302C24.1962 31.2102 22.2918 31.6502 20.0007 31.6502C17.7095 31.6502 15.8051 31.2102 15.4118 30.6302C15.363 30.5662 15.3357 30.4884 15.334 30.408C15.337 30.3128 15.3731 30.2216 15.4362 30.1502C16.1407 29.6524 17.9184 29.2969 20.0007 29.2969C22.0829 29.2969 23.8607 29.6524 24.5651 30.1502C24.6282 30.2216 24.6643 30.3128 24.6673 30.408V30.408Z" fill="#D5AB44"/>
<path opacity="0.5" d="M24.8891 10.1855V30.63H24.5891C24.6379 30.566 24.6651 30.4882 24.6669 30.4078C24.6639 30.3126 24.6277 30.2214 24.5647 30.15C23.8602 29.6522 22.0824 29.2967 20.0002 29.2967C17.918 29.2967 16.1402 29.6522 15.4358 30.15C15.3727 30.2214 15.3366 30.3126 15.3336 30.4078C15.3353 30.4882 15.3625 30.566 15.4113 30.63H15.1113V10.1855C15.1113 10.3767 15.258 10.5589 15.5247 10.7233C15.7864 10.8754 16.0664 10.9933 16.358 11.0744C17.5454 11.3915 18.7714 11.5411 20.0002 11.5189C21.2291 11.5411 22.455 11.3915 23.6424 11.0744C23.934 10.9933 24.2141 10.8754 24.4758 10.7233C24.7424 10.5589 24.8891 10.3767 24.8891 10.1855Z" fill="#EBFCFB"/>
</svg>
