<svg width="40" height="41" viewBox="0 0 40 41" fill="none" xmlns="http://www.w3.org/2000/svg">
<rect y="0.40625" width="40" height="40" rx="20" fill="white"/>
<path d="M13.3092 12.1967L31.0013 18.1175L3.38347 20.4935L13.3092 12.1967Z" fill="#5F3D16"/>
<path d="M3.46844 22.2513L30.9286 19.9399L31.001 18.1188L3.38316 20.4948L3.46844 22.2513Z" fill="#4C3016"/>
<path d="M3.61856 25.2017L30.823 22.9104L30.8935 21.089L3.53172 23.443L3.61856 25.2017Z" fill="#4C3016"/>
<path d="M3.54226 23.7495L30.8649 21.4485L30.936 19.7668L3.45729 21.9911L3.54226 23.7495Z" fill="#372413"/>
<path d="M3.71102 28.0906L30.7059 25.8173L30.7762 23.9978L3.62604 26.3322L3.71102 28.0906Z" fill="#4C3016"/>
<path d="M3.63815 26.6389L30.7495 24.3556L30.8186 22.6737L3.55131 24.8802L3.63815 26.6389Z" fill="#372413"/>
<path d="M12.6513 14.2157C12.1639 14.2255 11.8123 14.1633 11.812 13.486C11.8166 12.6469 13.036 11.4749 13.036 11.4749L13.0691 11.507C12.9394 11.731 12.2123 13.0184 12.3949 13.7518C12.4255 13.931 12.5159 14.0945 12.6513 14.2157Z" fill="#7F6656"/>
<path d="M14.2379 13.4306C14.2538 13.6258 14.2009 13.8203 14.0884 13.9805C13.9428 14.1485 13.7009 14.19 13.4124 14.1991C13.2876 14.2021 13.1559 14.2 13.0286 14.2064C12.9014 14.2127 12.771 14.2148 12.6443 14.2174C12.5096 14.0959 12.4199 13.9325 12.3897 13.7537C12.2071 13.0204 12.9335 11.7367 13.0639 11.5089C13.269 11.6968 14.2483 12.6747 14.2379 13.4306Z" fill="#9B816F"/>
<path d="M11.6031 15.1456C11.1153 15.1572 10.7638 15.095 10.7635 14.4177C10.7662 13.5783 11.9856 12.4062 11.9856 12.4062L12.0206 12.4386C11.8893 12.6605 11.1619 13.9498 11.3467 14.6816C11.3764 14.8611 11.467 15.0249 11.6031 15.1456Z" fill="#7F6656"/>
<path d="M13.196 14.368C13.2124 14.5632 13.1594 14.7579 13.0465 14.9179C12.9028 15.0861 12.6611 15.1258 12.3708 15.1346L11.987 15.1419C11.8563 15.1458 11.7309 15.1524 11.6026 15.1529C11.468 15.0318 11.3788 14.8683 11.3499 14.6895C11.1651 13.9577 11.8919 12.6721 12.0238 12.4465C12.2193 12.6348 13.2005 13.6131 13.196 14.368Z" fill="#9B816F"/>
<path d="M10.1657 16.4062C9.64374 16.4161 9.2679 16.35 9.27106 15.6274C9.2741 14.7268 10.5737 13.472 10.5737 13.472L10.6102 13.5066C10.4706 13.7443 9.69256 15.1231 9.88976 15.9085C9.92196 16.1011 10.0194 16.2768 10.1657 16.4062V16.4062Z" fill="#7F6656"/>
<path d="M11.8726 15.5709C11.8894 15.7798 11.8323 15.988 11.7112 16.1591C11.5548 16.3464 11.2929 16.3808 10.9887 16.3932C10.8561 16.3968 10.7148 16.3951 10.567 16.3982L10.165 16.4121C10.0209 16.2821 9.92554 16.1068 9.89464 15.9153C9.69744 15.1298 10.4755 13.7511 10.6151 13.5133C10.8265 13.7099 11.877 14.7567 11.8726 15.5709Z" fill="#9B816F"/>
<path d="M8.77856 17.6528C8.24885 17.6634 7.86557 17.5961 7.86896 16.8602C7.87379 15.9484 9.19934 14.6748 9.19934 14.6748L9.23588 14.7093C9.09354 14.9524 8.30255 16.352 8.50385 17.1477C8.53499 17.3425 8.63195 17.5208 8.77856 17.6528V17.6528Z" fill="#7F6656"/>
<path d="M10.517 16.799C10.5332 17.011 10.4756 17.2221 10.3541 17.3965C10.1956 17.5853 9.93494 17.6238 9.6198 17.6325L9.19223 17.6385L8.78427 17.6533C8.63766 17.5213 8.54071 17.343 8.50956 17.1482C8.30856 16.3507 9.10017 14.9473 9.2416 14.7098C9.45367 14.9142 10.5205 15.9788 10.517 16.799Z" fill="#9B816F"/>
<path d="M7.45034 18.7724C6.90698 18.7846 6.50317 18.714 6.51732 17.9587C6.52045 17.0218 7.88243 15.712 7.88243 15.712L7.92053 15.7487C7.77543 15.9971 6.96293 17.4353 7.1681 18.2545C7.20071 18.4542 7.30023 18.6368 7.45034 18.7724V18.7724Z" fill="#7F6656"/>
<path d="M9.22915 17.8952C9.24701 18.1131 9.18774 18.3304 9.0617 18.5092C8.90014 18.7051 8.6302 18.7421 8.3073 18.7515C8.16883 18.7561 8.02162 18.7554 7.86823 18.7575L7.44879 18.7724C7.29868 18.6368 7.19916 18.4542 7.16654 18.2546C6.96138 17.4354 7.77388 15.9971 7.91898 15.7488C8.13791 15.958 9.23133 17.0595 9.22915 17.8952Z" fill="#9B816F"/>
<path d="M5.97476 19.8368C5.39879 19.8495 4.97634 19.776 4.97932 18.971C4.98457 17.9733 6.4327 16.5797 6.4327 16.5797L6.47424 16.6189C6.31899 16.8828 5.45331 18.4139 5.66344 19.2856C5.70071 19.4997 5.81066 19.6943 5.97476 19.8368V19.8368Z" fill="#7F6656"/>
<path d="M7.86657 18.904C7.88638 19.1363 7.82341 19.3681 7.68879 19.5584C7.51582 19.7659 7.23005 19.8061 6.88291 19.8116C6.73481 19.8165 6.57829 19.8144 6.41498 19.8187C6.25166 19.8231 6.10886 19.8308 5.97069 19.8335C5.81333 19.6892 5.70951 19.4959 5.67615 19.285C5.45669 18.4118 6.32237 16.8807 6.48695 16.6183C6.70475 16.8465 7.87087 18.0074 7.86657 18.904Z" fill="#9B816F"/>
</svg>
