<svg width="32" height="33" viewBox="0 0 32 33" fill="none" xmlns="http://www.w3.org/2000/svg">
<path d="M19.7327 11.2142L21.3327 12.8142L12.266 21.8809L10.666 20.2809L19.7327 11.2142ZM5.33268 5.88086H26.666C28.146 5.88086 29.3327 7.06753 29.3327 8.54753V13.8809C28.6254 13.8809 27.9472 14.1618 27.4471 14.6619C26.947 15.162 26.666 15.8403 26.666 16.5475C26.666 17.2548 26.947 17.933 27.4471 18.4331C27.9472 18.9332 28.6254 19.2142 29.3327 19.2142V24.5475C29.3327 26.0275 28.146 27.2142 26.666 27.2142H5.33268C4.62544 27.2142 3.94716 26.9332 3.44706 26.4331C2.94697 25.933 2.66602 25.2548 2.66602 24.5475V19.2142C4.14602 19.2142 5.33268 18.0275 5.33268 16.5475C5.33268 15.8403 5.05173 15.162 4.55163 14.6619C4.05154 14.1618 3.37326 13.8809 2.66602 13.8809V8.54753C2.66602 7.84028 2.94697 7.162 3.44706 6.66191C3.94716 6.16181 4.62544 5.88086 5.33268 5.88086ZM5.33268 8.54753V11.9342C6.14292 12.4014 6.81582 13.0737 7.28369 13.8836C7.75155 14.6934 7.99788 15.6122 7.99788 16.5475C7.99788 17.4828 7.75155 18.4016 7.28369 19.2115C6.81582 20.0213 6.14292 20.6937 5.33268 21.1609V24.5475H26.666V21.1609C25.8558 20.6937 25.1829 20.0213 24.715 19.2115C24.2471 18.4016 24.0008 17.4828 24.0008 16.5475C24.0008 15.6122 24.2471 14.6934 24.715 13.8836C25.1829 13.0737 25.8558 12.4014 26.666 11.9342V8.54753H5.33268ZM12.666 11.2142C13.7727 11.2142 14.666 12.1075 14.666 13.2142C14.666 14.3209 13.7727 15.2142 12.666 15.2142C11.5593 15.2142 10.666 14.3209 10.666 13.2142C10.666 12.1075 11.5593 11.2142 12.666 11.2142ZM19.3327 17.8809C20.4393 17.8809 21.3327 18.7742 21.3327 19.8809C21.3327 20.9875 20.4393 21.8809 19.3327 21.8809C18.226 21.8809 17.3327 20.9875 17.3327 19.8809C17.3327 18.7742 18.226 17.8809 19.3327 17.8809Z" fill="#B41E32"/>
</svg>
