<svg width="32" height="33" viewBox="0 0 32 33" fill="none" xmlns="http://www.w3.org/2000/svg">
<path d="M23.0333 27.5469L27.6667 22.9469L26.2667 21.5469L23.0333 24.7135L21.7333 23.4135L20.3333 24.8469L23.0333 27.5469ZM8 12.5469H24V9.88021H8V12.5469ZM24 31.2135C22.1556 31.2135 20.5836 30.5633 19.284 29.2629C17.9844 27.9624 17.3342 26.3904 17.3333 24.5469C17.3324 22.7033 17.9827 21.1313 19.284 19.8309C20.5853 18.5304 22.1573 17.8802 24 17.8802C25.8427 17.8802 27.4151 18.5304 28.7173 19.8309C30.0196 21.1313 30.6693 22.7033 30.6667 24.5469C30.664 26.3904 30.0138 27.9629 28.716 29.2642C27.4182 30.5655 25.8462 31.2153 24 31.2135ZM4 29.8802V7.21354C4 6.48021 4.26133 5.85265 4.784 5.33088C5.30667 4.8091 5.93422 4.54776 6.66667 4.54688H25.3333C26.0667 4.54688 26.6947 4.80821 27.2173 5.33088C27.74 5.85354 28.0009 6.4811 28 7.21354V16.1135C27.5778 15.9135 27.1444 15.7469 26.7 15.6135C26.2556 15.4802 25.8 15.3802 25.3333 15.3135V7.21354H6.66667V25.9469H14.7667C14.8778 26.6358 15.0502 27.2913 15.284 27.9135C15.5178 28.5358 15.8231 29.1247 16.2 29.6802L16 29.8802L14 27.8802L12 29.8802L10 27.8802L8 29.8802L6 27.8802L4 29.8802ZM8 23.2135H14.7667C14.8333 22.7469 14.9333 22.2913 15.0667 21.8469C15.2 21.4024 15.3667 20.9691 15.5667 20.5469H8V23.2135ZM8 17.8802H17.4667C18.3111 17.058 19.2947 16.4078 20.4173 15.9295C21.54 15.4513 22.7342 15.2127 24 15.2135H8V17.8802Z" fill="#B41E32"/>
</svg>
