<svg width="24" height="25" viewBox="0 0 24 25" fill="none" xmlns="http://www.w3.org/2000/svg">
<g clip-path="url(#clip0_2623_51175)">
<path d="M12 0.332031C5.37264 0.332031 0 5.70467 0 12.332C0 17.9596 3.87456 22.6818 9.10128 23.9788V15.9992H6.62688V12.332H9.10128V10.7519C9.10128 6.66755 10.9498 4.77443 14.9597 4.77443C15.72 4.77443 17.0318 4.92371 17.5685 5.07251V8.39651C17.2853 8.36675 16.7933 8.35187 16.1822 8.35187C14.2147 8.35187 13.4544 9.09731 13.4544 11.0351V12.332H17.3741L16.7006 15.9992H13.4544V24.2442C19.3963 23.5266 24.0005 18.4674 24.0005 12.332C24 5.70467 18.6274 0.332031 12 0.332031Z" fill="#232323"/>
</g>
<defs>
<clipPath id="clip0_2623_51175">
<rect width="24" height="24" fill="white" transform="translate(0 0.332031)"/>
</clipPath>
</defs>
</svg>
