<svg width="24" height="25" viewBox="0 0 24 25" fill="none" xmlns="http://www.w3.org/2000/svg">
<g clip-path="url(#clip0_2623_51174)">
<path d="M12 2.49297C15.2063 2.49297 15.5859 2.50703 16.8469 2.56328C18.0188 2.61484 18.6516 2.81172 19.0734 2.97578C19.6313 3.19141 20.0344 3.45391 20.4516 3.87109C20.8734 4.29297 21.1313 4.69141 21.3469 5.24922C21.5109 5.67109 21.7078 6.30859 21.7594 7.47578C21.8156 8.74141 21.8297 9.12109 21.8297 12.3227C21.8297 15.5289 21.8156 15.9086 21.7594 17.1695C21.7078 18.3414 21.5109 18.9742 21.3469 19.3961C21.1313 19.9539 20.8687 20.357 20.4516 20.7742C20.0297 21.1961 19.6313 21.4539 19.0734 21.6695C18.6516 21.8336 18.0141 22.0305 16.8469 22.082C15.5813 22.1383 15.2016 22.1523 12 22.1523C8.79375 22.1523 8.41406 22.1383 7.15313 22.082C5.98125 22.0305 5.34844 21.8336 4.92656 21.6695C4.36875 21.4539 3.96563 21.1914 3.54844 20.7742C3.12656 20.3523 2.86875 19.9539 2.65313 19.3961C2.48906 18.9742 2.29219 18.3367 2.24063 17.1695C2.18438 15.9039 2.17031 15.5242 2.17031 12.3227C2.17031 9.11641 2.18438 8.73672 2.24063 7.47578C2.29219 6.30391 2.48906 5.67109 2.65313 5.24922C2.86875 4.69141 3.13125 4.28828 3.54844 3.87109C3.97031 3.44922 4.36875 3.19141 4.92656 2.97578C5.34844 2.81172 5.98594 2.61484 7.15313 2.56328C8.41406 2.50703 8.79375 2.49297 12 2.49297ZM12 0.332031C8.74219 0.332031 8.33438 0.346094 7.05469 0.402344C5.77969 0.458594 4.90313 0.664844 4.14375 0.960156C3.35156 1.26953 2.68125 1.67734 2.01563 2.34766C1.34531 3.01328 0.9375 3.68359 0.628125 4.47109C0.332812 5.23516 0.126563 6.10703 0.0703125 7.38203C0.0140625 8.66641 0 9.07422 0 12.332C0 15.5898 0.0140625 15.9977 0.0703125 17.2773C0.126563 18.5523 0.332812 19.4289 0.628125 20.1883C0.9375 20.9805 1.34531 21.6508 2.01563 22.3164C2.68125 22.982 3.35156 23.3945 4.13906 23.6992C4.90313 23.9945 5.775 24.2008 7.05 24.257C8.32969 24.3133 8.7375 24.3273 11.9953 24.3273C15.2531 24.3273 15.6609 24.3133 16.9406 24.257C18.2156 24.2008 19.0922 23.9945 19.8516 23.6992C20.6391 23.3945 21.3094 22.982 21.975 22.3164C22.6406 21.6508 23.0531 20.9805 23.3578 20.193C23.6531 19.4289 23.8594 18.557 23.9156 17.282C23.9719 16.0023 23.9859 15.5945 23.9859 12.3367C23.9859 9.07891 23.9719 8.67109 23.9156 7.39141C23.8594 6.11641 23.6531 5.23984 23.3578 4.48047C23.0625 3.68359 22.6547 3.01328 21.9844 2.34766C21.3188 1.68203 20.6484 1.26953 19.8609 0.964844C19.0969 0.669531 18.225 0.463281 16.95 0.407031C15.6656 0.346094 15.2578 0.332031 12 0.332031Z" fill="#232323"/>
<path d="M12 6.16797C8.59688 6.16797 5.83594 8.92891 5.83594 12.332C5.83594 15.7352 8.59688 18.4961 12 18.4961C15.4031 18.4961 18.1641 15.7352 18.1641 12.332C18.1641 8.92891 15.4031 6.16797 12 6.16797ZM12 16.3305C9.79219 16.3305 8.00156 14.5398 8.00156 12.332C8.00156 10.1242 9.79219 8.33359 12 8.33359C14.2078 8.33359 15.9984 10.1242 15.9984 12.332C15.9984 14.5398 14.2078 16.3305 12 16.3305Z" fill="#232323"/>
<path d="M19.8469 5.92344C19.8469 6.72032 19.2 7.3625 18.4078 7.3625C17.6109 7.3625 16.9688 6.71563 16.9688 5.92344C16.9688 5.12656 17.6156 4.48438 18.4078 4.48438C19.2 4.48438 19.8469 5.13125 19.8469 5.92344Z" fill="#232323"/>
</g>
<defs>
<clipPath id="clip0_2623_51174">
<rect width="24" height="24" fill="white" transform="translate(0 0.332031)"/>
</clipPath>
</defs>
</svg>
