<svg width="24" height="25" viewBox="0 0 24 25" fill="none" xmlns="http://www.w3.org/2000/svg">
<g clip-path="url(#clip0_2623_51173)">
<path d="M22.2234 0.332031H1.77187C0.792187 0.332031 0 1.10547 0 2.06172V22.5977C0 23.5539 0.792187 24.332 1.77187 24.332H22.2234C23.2031 24.332 24 23.5539 24 22.6023V2.06172C24 1.10547 23.2031 0.332031 22.2234 0.332031ZM7.12031 20.7836H3.55781V9.32734H7.12031V20.7836ZM5.33906 7.76641C4.19531 7.76641 3.27188 6.84297 3.27188 5.70391C3.27188 4.56484 4.19531 3.64141 5.33906 3.64141C6.47813 3.64141 7.40156 4.56484 7.40156 5.70391C7.40156 6.83828 6.47813 7.76641 5.33906 7.76641ZM20.4516 20.7836H16.8937V15.2148C16.8937 13.8883 16.8703 12.1773 15.0422 12.1773C13.1906 12.1773 12.9094 13.6258 12.9094 15.1211V20.7836H9.35625V9.32734H12.7687V10.893H12.8156C13.2891 9.99297 14.4516 9.04141 16.1813 9.04141C19.7859 9.04141 20.4516 11.4133 20.4516 14.4977V20.7836Z" fill="#232323"/>
</g>
<defs>
<clipPath id="clip0_2623_51173">
<rect width="24" height="24" fill="white" transform="translate(0 0.332031)"/>
</clipPath>
</defs>
</svg>
