<svg width="40" height="41" viewBox="0 0 40 41" fill="none" xmlns="http://www.w3.org/2000/svg">
<g clip-path="url(#clip0_2590_4624)">
<rect y="0.40625" width="40" height="40" rx="20" fill="white"/>
<path d="M7.11133 20.3852C7.11133 20.3566 7.11133 20.3283 7.11133 20.3003C7.11133 19.8225 7.34838 19.3624 7.78587 18.9326H7.7996C7.8972 18.9272 7.99469 18.9449 8.08516 18.9843C8.11875 19.0009 8.14775 19.0265 8.16937 19.0586C8.19543 19.0992 8.20946 19.1471 8.20964 19.1963C8.22062 19.505 7.89388 20.0502 7.81608 20.6617C7.81608 20.6793 7.8115 20.6969 7.80967 20.7154C7.8031 20.7803 7.79974 20.8456 7.7996 20.9108C7.80902 21.2116 7.87111 21.5078 7.98266 21.7842L8.01469 21.8692L7.9735 21.834C7.95428 21.8184 7.93598 21.8018 7.91767 21.7852L7.86367 21.7363L7.81242 21.6875C7.77855 21.6552 7.74469 21.622 7.71357 21.5898C7.68245 21.5575 7.65774 21.5292 7.6312 21.4989C7.53297 21.389 7.44443 21.2696 7.36669 21.1424L7.3438 21.1033C7.30977 21.0448 7.2792 20.9841 7.25228 20.9216C7.23855 20.8903 7.22574 20.859 7.21384 20.8239C7.20743 20.8063 7.20102 20.7887 7.19553 20.7711C7.19004 20.7535 7.18363 20.735 7.17814 20.7174C7.15519 20.6392 7.13836 20.5592 7.1278 20.4781C7.1278 20.4634 7.1278 20.4497 7.1278 20.4351C7.1278 20.4204 7.1278 20.4067 7.1278 20.3931C7.1282 20.3905 7.1282 20.3878 7.1278 20.3852H7.11133Z" fill="#BF4E49"/>
<path d="M8.15455 22.2584C8.25706 22.5632 8.42913 23.333 7.97974 23.333C7.84886 23.333 7.68319 23.333 7.49648 23.333C6.37163 23.3164 4.29307 22.4293 4.45416 20.793V20.6953C4.6006 21.9487 6.20962 22.3316 7.24387 22.3561C7.45895 22.3561 7.64933 22.3561 7.79302 22.3561C7.98523 22.3522 8.09689 22.3199 8.15455 22.2584Z" fill="#353535"/>
<path d="M33.1916 20.3845C33.1916 20.3845 33.1916 20.3933 33.1916 20.3972C33.1916 20.4012 33.1916 20.4256 33.1916 20.4393C33.1916 20.4529 33.1916 20.4676 33.1916 20.4822C33.181 20.5634 33.1642 20.6434 33.1413 20.7216C33.1358 20.7392 33.1303 20.7567 33.1239 20.7753C33.1175 20.7939 33.112 20.8105 33.1056 20.8281C33.0937 20.8603 33.0809 20.8916 33.0671 20.9258C33.0402 20.9883 33.0096 21.049 32.9756 21.1075L32.9527 21.1465C32.875 21.2738 32.7864 21.3932 32.6882 21.5031C32.6614 21.5337 32.6339 21.564 32.6058 21.594C32.5747 21.6272 32.5408 21.6604 32.507 21.6917L32.4557 21.7405L32.4017 21.7893C32.3834 21.806 32.3651 21.8226 32.3459 21.8382L32.2791 21.8949L32.2196 21.9427C32.1601 21.9906 32.0969 22.0404 32.032 22.0854L31.9212 22.1625C31.805 22.2426 31.6814 22.3218 31.5551 22.398L31.4782 22.4429C30.7087 22.8643 29.9006 23.1999 29.0665 23.4442C28.9485 23.4804 28.8286 23.5156 28.7059 23.5507L28.6199 23.5752L28.4533 23.6211C28.3462 23.6504 28.2373 23.6787 28.1275 23.707C27.8858 23.7676 27.6387 23.8262 27.3843 23.8829L27.2799 23.9044C27.0548 23.9532 26.8247 23.9995 26.5898 24.0431C26.4718 24.0656 26.3537 24.0871 26.2338 24.1076L26.0306 24.1418C25.9391 24.1574 25.8476 24.1711 25.756 24.1857C25.584 24.2131 25.4101 24.2388 25.2343 24.2629C24.9048 24.3091 24.5692 24.3505 24.2275 24.387C24.0866 24.4026 23.9447 24.4173 23.801 24.4309C23.3379 24.4749 22.8638 24.511 22.3815 24.5384C22.0968 24.554 21.8085 24.5677 21.5175 24.5775H21.4571C21.2529 24.5833 21.047 24.5892 20.8402 24.5921C20.6168 24.596 20.392 24.598 20.1656 24.598C19.9392 24.598 19.7144 24.596 19.4911 24.5921C19.2842 24.5921 19.0783 24.5833 18.8742 24.5775H18.8138C18.5227 24.5677 18.2344 24.554 17.9498 24.5384L17.5672 24.5149L17.4665 24.5081L17.2588 24.4925L17.0812 24.4788L16.954 24.4681L16.5348 24.4309C16.3911 24.4173 16.2492 24.4026 16.1083 24.387L15.9618 24.3713L15.7431 24.3459L15.604 24.3293H15.5829L15.4529 24.3127H15.4282L15.1958 24.2815L15.085 24.2668L14.848 24.2326L14.5633 24.1896L14.4333 24.1691L14.2924 24.1457L14.0892 24.1115C13.9693 24.091 13.8512 24.0695 13.7332 24.047C13.4976 24.0034 13.2676 23.9571 13.0431 23.9083L12.9387 23.8868C12.6843 23.8301 12.4372 23.7715 12.1955 23.7109C12.0857 23.6826 11.9768 23.6543 11.8697 23.625L11.7031 23.5791L11.6171 23.5546C11.4945 23.5195 11.3746 23.4843 11.2565 23.4482C10.42 23.2024 9.60968 22.8648 8.83837 22.441L8.76148 22.396C8.6306 22.3198 8.50704 22.2407 8.39538 22.1606L8.28463 22.0834L8.20135 22.0228C8.16565 21.9965 8.13087 21.9691 8.09701 21.9417L8.03751 21.8939L8.01189 21.8724L7.9707 21.8372C7.95148 21.8216 7.93317 21.805 7.91487 21.7884L7.86087 21.7395L7.80961 21.6907C7.77575 21.6584 7.74189 21.6252 7.71077 21.593C7.67965 21.5608 7.65494 21.5324 7.62839 21.5021C7.53017 21.3922 7.44162 21.2728 7.36388 21.1456L7.341 21.1065C7.30697 21.048 7.2764 20.9873 7.24948 20.9248C7.23575 20.8935 7.22293 20.8623 7.21103 20.8271C7.20463 20.8095 7.19822 20.7919 7.19273 20.7743C7.18724 20.7567 7.18083 20.7382 7.17534 20.7206C7.15239 20.6424 7.13555 20.5624 7.125 20.4813C7.125 20.4666 7.125 20.4529 7.125 20.4383C7.125 20.4236 7.125 20.4099 7.125 20.3963C7.12539 20.3937 7.12539 20.391 7.125 20.3885V20.3885C7.15886 19.7154 7.50026 19.2718 8.09609 18.9876C8.1327 18.9709 8.17023 18.9534 8.20958 18.9377C8.3548 18.875 8.50369 18.8225 8.65531 18.7804C10.8519 18.1865 15.1793 18.8361 20.1546 18.8361C25.13 18.8361 29.4528 18.1845 31.6512 18.7804C32.5967 19.0344 33.1486 19.52 33.1916 20.3845Z" fill="#353535"/>
<path d="M33.194 20.3004C33.194 20.3291 33.194 20.3574 33.194 20.3854C33.194 20.3854 33.194 20.3942 33.194 20.3981H32.5533C32.558 20.353 32.5605 20.3077 32.5606 20.2623C32.5606 19.7377 32.2403 19.2375 31.6582 18.7793C29.8185 17.3306 25.363 16.3087 20.1588 16.3087C14.9547 16.3087 10.4919 17.3306 8.65495 18.7813C8.49482 18.9053 8.34591 19.0449 8.21013 19.1984C8.15655 19.2574 8.10671 19.32 8.06094 19.386C7.86893 19.634 7.76033 19.9436 7.7525 20.2652C7.75263 20.3106 7.75508 20.3559 7.75982 20.401H7.11914C7.11953 20.3984 7.11953 20.3958 7.11914 20.3932V20.3932C7.11914 20.3646 7.11914 20.3362 7.11914 20.3082C7.11914 19.8305 7.35619 19.3704 7.79369 18.9405C7.90435 18.8322 8.02078 18.7307 8.1424 18.6367C10.1212 17.0932 14.7579 16.0098 20.1616 16.0098C27.3546 16.002 33.194 17.9265 33.194 20.3004Z" fill="#444444"/>
<path d="M19.8757 30.8495C26.1185 30.8495 31.1792 29.7341 31.1792 28.3583C31.1792 26.9825 26.1185 25.8672 19.8757 25.8672C13.633 25.8672 8.57227 26.9825 8.57227 28.3583C8.57227 29.7341 13.633 30.8495 19.8757 30.8495Z" fill="#CECECE"/>
<path d="M20.1518 24.2138C27.0011 24.2138 32.5535 22.4442 32.5535 20.2612C32.5535 18.0782 27.0011 16.3086 20.1518 16.3086C13.3025 16.3086 7.75 18.0782 7.75 20.2612C7.75 22.4442 13.3025 24.2138 20.1518 24.2138Z" fill="#C6C6C6"/>
<path d="M7.75586 20.3962C7.75586 20.3962 12.7513 18.6309 13.9723 18.4424C15.1933 18.2538 19.8043 18.5801 20.4707 18.3447C21.137 18.1093 24.4017 18.4219 26.969 18.8332C27.9328 18.9875 32.5521 19.1467 32.5521 20.2595C32.5521 21.3722 31.9755 25.2368 19.8199 24.2814C7.66433 23.326 8.31234 23.327 7.75586 20.3962Z" fill="#47201A"/>
<path d="M17.0686 19.4029C17.0686 19.9216 15.8055 20.3974 14.5342 20.3974C13.263 20.3974 12.4648 19.9216 12.4648 19.4029C12.4648 19.0121 13.0598 18.3215 13.9036 18.0137C14.0921 17.944 14.2874 17.8971 14.4857 17.874C14.5666 17.864 14.6478 17.8585 14.7292 17.8574H14.7667C14.872 17.8573 14.9771 17.8641 15.0816 17.8779C16.2046 18.0264 17.0686 18.9281 17.0686 19.4029Z" fill="#4F2518"/>
<path d="M15.0803 17.8779C15.0555 17.9957 15.0206 18.1109 14.976 18.2218C14.9082 18.3928 14.8296 18.5586 14.7407 18.7181C14.4497 19.2417 14.0726 19.6657 13.9637 19.3482C13.8786 19.0971 14.0488 18.7425 14.2785 18.4123C14.3892 18.2555 14.508 18.1054 14.6346 17.9629C14.6657 17.9258 14.6962 17.8906 14.7261 17.8574H14.7636C14.8695 17.8572 14.9753 17.8641 15.0803 17.8779V17.8779Z" fill="#F4F4F4"/>
<path d="M15.6856 18.9467C15.5575 19.0834 15.142 18.9467 14.742 18.7191C14.5827 18.6292 14.4297 18.527 14.2844 18.4133C14.1348 18.3092 14.0068 18.1736 13.9082 18.0147C14.0967 17.9449 14.292 17.8981 14.4903 17.875C14.5418 17.9018 14.5919 17.9315 14.6404 17.9639C14.7592 18.0425 14.8732 18.1289 14.9818 18.2228C15.2328 18.4452 15.4681 18.6872 15.6856 18.9467V18.9467Z" fill="#F4F4F4"/>
<path d="M20.3709 11.266C20.0771 12.6855 18.9138 12.157 18.8241 13.3947C18.7344 14.6325 17.3816 13.3801 17.464 14.6901C17.5464 16.0002 16.8901 15.54 16.9432 16.3079C16.9963 17.0757 17.1675 18.0165 17.1675 18.0165C17.1675 18.0165 16.351 19.8668 16.4444 20.5223C16.5378 21.1778 16.3767 21.9877 16.2284 22.5621C16.0801 23.1365 16.4783 23.6133 16.4783 23.6133C16.4783 23.6133 17.0347 22.2661 17.5189 21.087C18.0031 19.9078 17.6104 17.8455 18.8589 17.2653C20.1073 16.685 21.7328 16.7182 21.5607 14.992C21.3886 13.2658 22.4879 11.8981 22.7624 11.4096C23.037 10.9212 22.1693 10.1836 22.1693 10.1836C22.1693 10.1836 20.5402 10.4386 20.3709 11.266Z" fill="#0E5110"/>
<path d="M20.8119 12.6309C20.8119 12.6309 17.9096 16.0296 17.8172 17.7245C17.7247 19.4195 17.5664 20.4599 17.5664 20.4599C17.5664 20.4599 18.5732 16.6851 19.1123 15.7589C19.6514 14.8328 20.8119 12.6309 20.8119 12.6309Z" fill="#377C37"/>
<path d="M21.502 13.2427C21.4105 14.6924 20.1841 14.3525 20.2664 15.5873C20.3488 16.8221 18.8377 15.7993 19.0995 17.0829C19.3612 18.3666 18.6501 18.013 18.8084 18.7642C18.9668 19.5155 19.2661 20.4191 19.2661 20.4191C19.2661 20.4191 18.7169 22.3778 18.9 23.0118C19.083 23.6459 19.0354 24.4772 18.9677 25.0634C18.9 25.6495 19.3603 26.0637 19.3603 26.0637C19.3603 26.0637 19.7264 24.6433 20.0404 23.4016C20.3543 22.16 19.6834 20.1778 20.8385 19.41C21.9935 18.6421 23.6053 18.4174 23.1971 16.7361C22.7889 15.0549 23.6868 13.5299 23.8909 13.0043C24.095 12.4787 23.1376 11.8848 23.1376 11.8848C23.1376 11.8848 21.5588 12.3976 21.502 13.2427Z" fill="#0E5110"/>
<path d="M22.1302 14.5234C22.1302 14.5234 19.7286 18.3412 19.8714 20.0323C20.0141 21.7233 20.0032 22.7725 20.0032 22.7725C20.0032 22.7725 20.4791 18.8776 20.8809 17.8801C21.2827 16.8827 22.1302 14.5234 22.1302 14.5234Z" fill="#377C37"/>
<path d="M23.0936 14.8979C23.0158 16.0956 22.0054 15.8152 22.074 16.838C22.1427 17.8609 20.8942 17.0129 21.1102 18.0728C21.3262 19.1328 20.7359 18.8407 20.8695 19.463C21.0032 20.0853 21.2466 20.8307 21.2466 20.8307C21.2466 20.8307 20.789 22.4475 20.9428 22.9711C21.0965 23.4947 21.0544 24.1805 20.9986 24.6651C20.9428 25.1496 21.3217 25.4915 21.3217 25.4915C21.3217 25.4915 21.6228 24.3192 21.8846 23.2925C22.1463 22.2658 21.5889 20.6333 22.5426 19.9974C23.4963 19.3614 24.8308 19.1777 24.4903 17.7895C24.1498 16.4013 24.8948 15.1421 25.0633 14.7074C25.2317 14.2726 24.4409 13.7832 24.4409 13.7832C24.4409 13.7832 23.1394 14.2003 23.0936 14.8979Z" fill="#0E5110"/>
<path d="M23.6126 15.959C23.6126 15.959 21.6292 19.1105 21.7473 20.5065C21.8653 21.9025 21.8534 22.77 21.8534 22.77C21.8534 22.77 22.2488 19.556 22.5801 18.7295C22.9115 17.903 23.6126 15.959 23.6126 15.959Z" fill="#377C37"/>
<path d="M24.8907 12.8521C24.7992 14.3018 23.5727 13.9618 23.6551 15.1967C23.7375 16.4315 22.2264 15.4086 22.4881 16.6923C22.7499 17.976 22.0388 17.6223 22.1971 18.3736C22.3554 19.1248 22.6547 20.0285 22.6547 20.0285C22.6547 20.0285 22.1056 21.9872 22.2886 22.6212C22.4717 23.2552 22.4241 24.0866 22.3564 24.6727C22.2886 25.2589 22.749 25.6731 22.749 25.6731C22.749 25.6731 23.1151 24.2527 23.429 23.011C23.743 21.7693 23.0721 19.7872 24.2271 19.0193C25.3822 18.2515 26.994 18.0268 26.5858 16.3455C26.1776 14.6642 27.0754 13.1393 27.2795 12.6137C27.4836 12.0881 26.5263 11.4941 26.5263 11.4941C26.5263 11.4941 24.9475 12.007 24.8907 12.8521Z" fill="#0E5110"/>
<path d="M25.5169 14.1348C25.5169 14.1348 23.1153 17.9526 23.2581 19.6436C23.4009 21.3346 23.3899 22.3838 23.3899 22.3838C23.3899 22.3838 23.8658 18.4889 24.2676 17.4915C24.6694 16.494 25.5169 14.1348 25.5169 14.1348Z" fill="#377C37"/>
<path d="M26.4803 14.5092C26.4025 15.7069 25.3921 15.4265 25.4607 16.4493C25.5294 17.4722 24.281 16.6242 24.497 17.6842C24.713 18.7441 24.1226 18.452 24.2563 19.0743C24.3899 19.6966 24.6333 20.442 24.6333 20.442C24.6333 20.442 24.1757 22.0588 24.3295 22.5824C24.4832 23.1061 24.4411 23.7919 24.3853 24.2764C24.3295 24.761 24.7084 25.1029 24.7084 25.1029C24.7084 25.1029 25.0095 23.9306 25.2713 22.9038C25.533 21.8771 24.9756 20.2447 25.9293 19.6087C26.883 18.9727 28.2175 18.7891 27.877 17.4009C27.5365 16.0127 28.2816 14.7534 28.45 14.3187C28.6184 13.884 27.8276 13.3945 27.8276 13.3945C27.8276 13.3945 26.5261 13.8117 26.4803 14.5092Z" fill="#0E5110"/>
<path d="M26.9993 15.5684C26.9993 15.5684 25.0159 18.7199 25.134 20.1159C25.252 21.5119 25.2401 22.3794 25.2401 22.3794C25.2401 22.3794 25.6355 19.1654 25.9669 18.3389C26.2982 17.5124 26.9993 15.5684 26.9993 15.5684Z" fill="#377C37"/>
<path d="M17.1924 13.8598C17.2574 15.1366 18.3365 14.8572 18.2468 15.9485C18.1571 17.0397 19.4998 16.1575 19.2536 17.282C19.0074 18.4064 19.6362 18.1074 19.4861 18.7659C19.336 19.4243 19.0614 20.2147 19.0614 20.2147C19.0614 20.2147 19.519 21.9458 19.3497 22.4997C19.1804 23.0536 19.2106 23.7853 19.2582 24.3031C19.3058 24.8208 18.8994 25.1823 18.8994 25.1823C18.8994 25.1823 18.5983 23.9269 18.3374 22.8299C18.0766 21.7328 18.6962 20.0027 17.6913 19.3071C16.6863 18.6115 15.2741 18.381 15.6557 16.9098C16.0374 15.4385 15.2704 14.0816 15.0974 13.6156C14.9244 13.1496 15.7756 12.6387 15.7756 12.6387C15.7756 12.6387 17.1549 13.1154 17.1924 13.8598Z" fill="#0E5110"/>
<path d="M16.623 14.9766C16.623 14.9766 18.6824 18.3723 18.5332 19.8611C18.384 21.35 18.3831 22.2692 18.3831 22.2692C18.3831 22.2692 18.017 18.8383 17.6756 17.9522C17.3342 17.0662 16.623 14.9766 16.623 14.9766Z" fill="#377C37"/>
<path d="M19.3301 24.4464C19.3301 24.4464 21.4526 19.3401 22.1674 18.7324" stroke="#EFE6DA" stroke-width="1.62984" stroke-miterlimit="10"/>
<path d="M22.3904 18.9399C22.3373 19.062 22.1836 18.9995 22.0005 18.9087C21.8175 18.8178 21.6729 18.7328 21.726 18.6156C21.779 18.4984 21.9712 18.4681 22.1552 18.5589C22.3392 18.6498 22.4435 18.8178 22.3904 18.9399Z" fill="#EFE6DA"/>
<path d="M19.8535 25.383C19.8535 25.383 21.501 20.0823 22.16 19.4023" stroke="#EFE6DA" stroke-width="1.62984" stroke-miterlimit="10"/>
<path d="M22.399 19.5917C22.3569 19.7197 22.1986 19.6718 22.0082 19.6005C21.8178 19.5292 21.6668 19.4598 21.708 19.3328C21.7492 19.2058 21.9386 19.1609 22.1299 19.2351C22.3212 19.3094 22.4411 19.4657 22.399 19.5917Z" fill="#EFE6DA"/>
<path d="M18.7969 25.0334C18.7969 25.0334 20.4443 19.7327 21.1024 19.0527" stroke="#EFE6DA" stroke-width="1.62984" stroke-miterlimit="10"/>
<path d="M21.3426 19.2403C21.3005 19.3683 21.1422 19.3214 20.9518 19.2491C20.7614 19.1768 20.6095 19.1094 20.6516 18.9815C20.6937 18.8535 20.8822 18.8095 21.0726 18.8838C21.263 18.958 21.3847 19.1133 21.3426 19.2403Z" fill="#EFE6DA"/>
<path d="M19.877 26.3654C19.877 26.3654 21.5244 21.0637 22.1834 20.3848" stroke="#EFE6DA" stroke-width="1.62984" stroke-miterlimit="10"/>
<path d="M22.4247 20.5726C22.3826 20.6996 22.2243 20.6527 22.033 20.5814C21.8417 20.5101 21.6916 20.4407 21.7337 20.3137C21.7758 20.1867 21.9643 20.1408 22.1547 20.216C22.3451 20.2912 22.4659 20.4417 22.4247 20.5726Z" fill="#EFE6DA"/>
<path d="M20.2852 25.9123C20.2852 25.9123 21.9326 20.6116 22.5916 19.9316" stroke="#EFE6DA" stroke-width="1.62984" stroke-miterlimit="10"/>
<path d="M22.83 20.1229C22.7889 20.2509 22.6305 20.2031 22.4392 20.1317C22.2479 20.0604 22.0978 19.9911 22.1399 19.8641C22.182 19.7371 22.3697 19.6921 22.561 19.7664C22.7523 19.8406 22.8721 19.9959 22.83 20.1229Z" fill="#EFE6DA"/>
<path d="M18.5469 24.4768C18.5469 24.4768 20.1943 19.176 20.8533 18.4961" stroke="#EFE6DA" stroke-width="1.62984" stroke-miterlimit="10"/>
<path d="M21.0905 18.6818C21.0493 18.8097 20.8909 18.7619 20.6996 18.6905C20.5083 18.6192 20.3582 18.5508 20.3994 18.4229C20.4406 18.2949 20.6301 18.2509 20.8214 18.3252C21.0127 18.3994 21.1326 18.5557 21.0905 18.6818Z" fill="#EFE6DA"/>
<path d="M20.1719 25.1007C20.1719 25.1007 22.2944 19.9953 23.0092 19.3867" stroke="#EFE6DA" stroke-width="1.62984" stroke-miterlimit="10"/>
<path d="M23.2322 19.6001C23.1791 19.7222 23.0254 19.6597 22.8423 19.5688C22.6593 19.478 22.5147 19.393 22.5678 19.2757C22.6208 19.1585 22.813 19.1282 22.9961 19.2191C23.1791 19.3099 23.2853 19.478 23.2322 19.6001Z" fill="#EFE6DA"/>
<path d="M19.207 24.8488C19.207 24.8488 20.9213 19.5735 21.5867 18.9004" stroke="#EFE6DA" stroke-width="1.62984" stroke-miterlimit="10"/>
<path d="M21.8239 19.0933C21.7809 19.2203 21.6226 19.1705 21.4331 19.0933C21.2437 19.0162 21.0926 18.9487 21.1366 18.8217C21.1805 18.6947 21.369 18.6527 21.5585 18.7241C21.748 18.7954 21.867 18.9663 21.8239 19.0933Z" fill="#EFE6DA"/>
<path d="M20.0938 25.4309C20.0938 25.4309 21.808 20.1555 22.4734 19.4824" stroke="#EFE6DA" stroke-width="1.62984" stroke-miterlimit="10"/>
<path d="M22.7146 19.6734C22.6715 19.8004 22.5132 19.7506 22.3237 19.6734C22.1343 19.5962 21.9833 19.5288 22.0272 19.4018C22.0711 19.2748 22.2597 19.2328 22.4491 19.3041C22.6386 19.3754 22.7585 19.5464 22.7146 19.6734Z" fill="#EFE6DA"/>
<path d="M19.3438 25.7483C19.3438 25.7483 20.9912 20.4475 21.6502 19.7676" stroke="#EFE6DA" stroke-width="1.62984" stroke-miterlimit="10"/>
<path d="M21.8896 19.953C21.8475 20.081 21.6891 20.0331 21.4978 19.9618C21.3065 19.8905 21.1564 19.8211 21.1985 19.6941C21.2406 19.5671 21.4292 19.5222 21.6196 19.5964C21.8099 19.6707 21.9307 19.828 21.8896 19.953Z" fill="#EFE6DA"/>
<path d="M19.1191 25.8284C19.1191 25.8284 20.2632 20.3958 20.8581 19.6465" stroke="#EFE6DA" stroke-width="1.62984" stroke-miterlimit="10"/>
<path d="M21.1164 19.8029C21.0862 19.9339 20.9233 19.9065 20.7238 19.8577C20.5242 19.8088 20.3668 19.76 20.3961 19.6291C20.4254 19.4982 20.6112 19.4337 20.8107 19.4796C21.0102 19.5255 21.1466 19.673 21.1164 19.8029Z" fill="#EFE6DA"/>
<path d="M18.2988 25.4953C18.2988 25.4953 19.9463 20.1936 20.6044 19.5137" stroke="#EFE6DA" stroke-width="1.62984" stroke-miterlimit="10"/>
<path d="M20.8426 19.7035C20.8005 19.8305 20.6422 19.7836 20.4518 19.7122C20.2614 19.6409 20.1095 19.5716 20.1516 19.4446C20.1937 19.3176 20.3822 19.2717 20.5726 19.3469C20.763 19.4221 20.8847 19.5755 20.8426 19.7035Z" fill="#EFE6DA"/>
<path d="M18.6953 25.636C18.6953 25.636 19.8394 20.2034 20.4343 19.4551" stroke="#EFE6DA" stroke-width="1.62984" stroke-miterlimit="10"/>
<path d="M20.6938 19.6107C20.6645 19.7406 20.5007 19.7084 20.3021 19.6654C20.1034 19.6224 19.9442 19.5677 19.9744 19.4358C20.0046 19.3039 20.1895 19.2404 20.3881 19.2863C20.5867 19.3323 20.724 19.4798 20.6938 19.6107Z" fill="#EFE6DA"/>
<path d="M18.7422 26.1252C18.7422 26.1252 20.3897 20.8235 21.0477 20.1445" stroke="#EFE6DA" stroke-width="1.62984" stroke-miterlimit="10"/>
<path d="M21.284 20.3324C21.2419 20.4594 21.0836 20.4125 20.8932 20.3412C20.7028 20.2698 20.5509 20.2005 20.593 20.0735C20.6351 19.9465 20.8236 19.9006 21.014 19.9758C21.2044 20.051 21.3289 20.2054 21.284 20.3324Z" fill="#EFE6DA"/>
<path d="M18.5156 25.7777C18.5156 25.7777 19.2963 20.2552 18.9989 19.3301" stroke="#EFE6DA" stroke-width="1.62984" stroke-miterlimit="10"/>
<path d="M18.7062 19.3823C18.6898 19.5161 18.8508 19.5503 19.0513 19.5776C19.2517 19.605 19.4174 19.6177 19.432 19.4799C19.4467 19.3422 19.2993 19.2152 19.0989 19.1869C18.8984 19.1585 18.7227 19.2484 18.7062 19.3823Z" fill="#EFE6DA"/>
<path d="M18.752 25.4496C18.752 25.4496 19.5327 19.9261 19.2352 19.002" stroke="#EFE6DA" stroke-width="1.62984" stroke-miterlimit="10"/>
<path d="M18.9426 19.0522C18.9261 19.186 19.0863 19.2212 19.2867 19.2476C19.4872 19.2739 19.6528 19.2876 19.6684 19.1499C19.6839 19.0121 19.5357 18.8851 19.3352 18.8568C19.1348 18.8285 18.959 18.9183 18.9426 19.0522Z" fill="#EFE6DA"/>
<path d="M19.1855 25.9809C19.1855 25.9809 19.9663 20.4574 19.6688 19.5332" stroke="#EFE6DA" stroke-width="1.62984" stroke-miterlimit="10"/>
<path d="M19.3762 19.5854C19.3597 19.7192 19.5208 19.7544 19.7212 19.7808C19.9217 19.8071 20.0873 19.8208 20.102 19.6831C20.1166 19.5453 19.9702 19.4183 19.7697 19.39C19.5693 19.3617 19.3926 19.4515 19.3762 19.5854Z" fill="#EFE6DA"/>
<path d="M18.4473 25.0784C18.4473 25.0784 19.5904 19.6458 20.1863 18.8965" stroke="#EFE6DA" stroke-width="1.62984" stroke-miterlimit="10"/>
<path d="M20.4447 19.056C20.4145 19.1859 20.2507 19.1537 20.0521 19.1107C19.8534 19.0677 19.6942 19.013 19.7244 18.8811C19.7546 18.7492 19.9395 18.6857 20.1381 18.7317C20.3367 18.7776 20.474 18.9251 20.4447 19.056Z" fill="#EFE6DA"/>
<path d="M17.4082 22.9816C17.4082 22.9816 19.5307 17.8752 20.2455 17.2676" stroke="#EFE6DA" stroke-width="1.62984" stroke-miterlimit="10"/>
<path d="M20.4666 17.4751C20.4135 17.5972 20.2598 17.5347 20.0767 17.4438C19.8937 17.353 19.749 17.268 19.8021 17.1507C19.8552 17.0335 20.0474 17.0032 20.2314 17.0941C20.4154 17.1849 20.5197 17.353 20.4666 17.4751Z" fill="#EFE6DA"/>
<path d="M17.9316 23.9182C17.9316 23.9182 19.5791 18.6174 20.2381 17.9375" stroke="#EFE6DA" stroke-width="1.62984" stroke-miterlimit="10"/>
<path d="M20.4771 18.1249C20.435 18.2529 20.2767 18.205 20.0863 18.1337C19.8959 18.0624 19.7449 17.993 19.7861 17.866C19.8273 17.739 20.0168 17.6941 20.2081 17.7683C20.3993 17.8426 20.5192 17.9989 20.4771 18.1249Z" fill="#EFE6DA"/>
<path d="M16.875 23.5666C16.875 23.5666 18.5225 18.2659 19.1805 17.5859" stroke="#EFE6DA" stroke-width="1.62984" stroke-miterlimit="10"/>
<path d="M19.4207 17.7755C19.3786 17.9035 19.2203 17.8566 19.0299 17.7843C18.8396 17.712 18.6876 17.6446 18.7297 17.5166C18.7718 17.3886 18.9604 17.3447 19.1507 17.4189C19.3411 17.4932 19.4628 17.6485 19.4207 17.7755Z" fill="#EFE6DA"/>
<path d="M17.9551 24.8987C17.9551 24.8987 19.6025 19.5969 20.2615 18.918" stroke="#EFE6DA" stroke-width="1.62984" stroke-miterlimit="10"/>
<path d="M20.5009 19.1058C20.4588 19.2328 20.3004 19.1859 20.1092 19.1146C19.9179 19.0433 19.7678 18.9739 19.8099 18.8469C19.852 18.7199 20.0405 18.674 20.2309 18.7492C20.4213 18.8244 20.5421 18.9749 20.5009 19.1058Z" fill="#EFE6DA"/>
<path d="M18.3633 24.4475C18.3633 24.4475 20.0107 19.1467 20.6697 18.4668" stroke="#EFE6DA" stroke-width="1.62984" stroke-miterlimit="10"/>
<path d="M20.9101 18.6561C20.8689 18.7841 20.7106 18.7363 20.5193 18.6649C20.328 18.5936 20.1779 18.5243 20.22 18.3973C20.2621 18.2703 20.4497 18.2253 20.641 18.2996C20.8323 18.3738 20.9522 18.5291 20.9101 18.6561Z" fill="#EFE6DA"/>
<path d="M16.625 23.0119C16.625 23.0119 18.2725 17.7112 18.9315 17.0312" stroke="#EFE6DA" stroke-width="1.62984" stroke-miterlimit="10"/>
<path d="M19.1705 17.2189C19.1293 17.3468 18.971 17.299 18.7797 17.2277C18.5884 17.1563 18.4383 17.088 18.4795 16.96C18.5207 16.832 18.7102 16.788 18.9014 16.8623C19.0927 16.9365 19.2126 17.0928 19.1705 17.2189Z" fill="#EFE6DA"/>
<path d="M18.25 23.6359C18.25 23.6359 20.3725 18.5305 21.0873 17.9219" stroke="#EFE6DA" stroke-width="1.62984" stroke-miterlimit="10"/>
<path d="M21.3104 18.1333C21.2573 18.2554 21.1035 18.1929 20.9205 18.102C20.7374 18.0112 20.5928 17.9262 20.6459 17.8089C20.699 17.6917 20.8912 17.6614 21.0742 17.7523C21.2573 17.8431 21.3634 18.0112 21.3104 18.1333Z" fill="#EFE6DA"/>
<path d="M17.2852 23.3859C17.2852 23.3859 18.9994 18.1106 19.6648 17.4375" stroke="#EFE6DA" stroke-width="1.62984" stroke-miterlimit="10"/>
<path d="M19.9021 17.6265C19.859 17.7535 19.7007 17.7037 19.5112 17.6265C19.3218 17.5494 19.1708 17.4819 19.2147 17.3549C19.2586 17.2279 19.4472 17.1859 19.6366 17.2573C19.8261 17.3286 19.9451 17.4995 19.9021 17.6265Z" fill="#EFE6DA"/>
<path d="M18.1738 23.9641C18.1738 23.9641 19.8881 18.6887 20.5535 18.0156" stroke="#EFE6DA" stroke-width="1.62984" stroke-miterlimit="10"/>
<path d="M20.7907 18.2086C20.7477 18.3356 20.5894 18.2857 20.3999 18.2086C20.2105 18.1314 20.0594 18.064 20.1034 17.937C20.1473 17.81 20.3358 17.768 20.5253 17.8393C20.7148 17.9106 20.8347 18.0816 20.7907 18.2086Z" fill="#EFE6DA"/>
<path d="M17.4199 24.2834C17.4199 24.2834 19.0674 18.9827 19.7264 18.3027" stroke="#EFE6DA" stroke-width="1.62984" stroke-miterlimit="10"/>
<path d="M19.9657 18.4882C19.9236 18.6162 19.7653 18.5683 19.574 18.497C19.3827 18.4257 19.2326 18.3563 19.2747 18.2293C19.3168 18.1023 19.5054 18.0574 19.6957 18.1316C19.8861 18.2058 20.0069 18.3631 19.9657 18.4882Z" fill="#EFE6DA"/>
<path d="M17.1973 24.3616C17.1973 24.3616 18.3413 18.929 18.9363 18.1797" stroke="#EFE6DA" stroke-width="1.62984" stroke-miterlimit="10"/>
<path d="M19.1945 18.3381C19.1643 18.469 19.0014 18.4417 18.8019 18.3928C18.6024 18.344 18.4449 18.2951 18.4742 18.1642C18.5035 18.0333 18.6893 17.9688 18.8888 18.0147C19.0884 18.0607 19.2247 18.2082 19.1945 18.3381Z" fill="#EFE6DA"/>
<path d="M16.377 24.0305C16.377 24.0305 18.0244 18.7288 18.6825 18.0488" stroke="#EFE6DA" stroke-width="1.62984" stroke-miterlimit="10"/>
<path d="M18.9227 18.2367C18.8806 18.3637 18.7223 18.3168 18.5319 18.2455C18.3415 18.1741 18.1896 18.1048 18.2317 17.9778C18.2738 17.8508 18.4623 17.8049 18.6527 17.8801C18.8431 17.9553 18.9648 18.1087 18.9227 18.2367Z" fill="#EFE6DA"/>
<path d="M16.7734 24.1692C16.7734 24.1692 17.9175 18.7366 18.5124 17.9883" stroke="#EFE6DA" stroke-width="1.62984" stroke-miterlimit="10"/>
<path d="M18.7719 18.1458C18.7426 18.2758 18.5788 18.2435 18.3802 18.2005C18.1816 18.1576 18.0223 18.1028 18.0525 17.971C18.0827 17.8391 18.2676 17.7756 18.4662 17.8215C18.6648 17.8674 18.8021 18.0149 18.7719 18.1458Z" fill="#EFE6DA"/>
<path d="M16.8203 24.6584C16.8203 24.6584 18.4678 19.3567 19.1259 18.6777" stroke="#EFE6DA" stroke-width="1.62984" stroke-miterlimit="10"/>
<path d="M19.3621 18.8656C19.32 18.9926 19.1617 18.9457 18.9713 18.8744C18.781 18.803 18.629 18.7337 18.6711 18.6067C18.7132 18.4797 18.9018 18.4338 19.0921 18.509C19.2825 18.5842 19.407 18.7386 19.3621 18.8656Z" fill="#EFE6DA"/>
<path d="M16.5918 24.3109C16.5918 24.3109 17.3725 18.7884 17.0751 17.8633" stroke="#EFE6DA" stroke-width="1.62984" stroke-miterlimit="10"/>
<path d="M16.7824 17.9155C16.7659 18.0493 16.927 18.0835 17.1275 18.1108C17.3279 18.1382 17.4936 18.1509 17.5082 18.0131C17.5229 17.8754 17.3755 17.7484 17.1751 17.7201C16.9746 17.6917 16.7989 17.7816 16.7824 17.9155Z" fill="#EFE6DA"/>
<path d="M16.832 23.9828C16.832 23.9828 17.6127 18.4593 17.3153 17.5352" stroke="#EFE6DA" stroke-width="1.62984" stroke-miterlimit="10"/>
<path d="M17.0227 17.5873C17.0062 17.7212 17.1663 17.7563 17.3668 17.7827C17.5672 17.8091 17.7329 17.8228 17.7485 17.685C17.764 17.5473 17.6157 17.4203 17.4153 17.3919C17.2149 17.3636 17.0391 17.4535 17.0227 17.5873Z" fill="#EFE6DA"/>
<path d="M17.2637 24.516C17.2637 24.516 18.0444 18.9925 17.7469 18.0684" stroke="#EFE6DA" stroke-width="1.62984" stroke-miterlimit="10"/>
<path d="M17.4543 18.1205C17.4378 18.2544 17.5989 18.2895 17.7993 18.3159C17.9998 18.3423 18.1654 18.356 18.1801 18.2182C18.1947 18.0805 18.0483 17.9535 17.8478 17.9251C17.6474 17.8968 17.4708 17.9867 17.4543 18.1205Z" fill="#EFE6DA"/>
<path d="M16.5254 23.6136C16.5254 23.6136 17.6686 18.1809 18.2644 17.4316" stroke="#EFE6DA" stroke-width="1.62984" stroke-miterlimit="10"/>
<path d="M18.5209 17.5892C18.4907 17.7191 18.3268 17.6869 18.1282 17.6439C17.9296 17.6009 17.7704 17.5462 17.8006 17.4143C17.8308 17.2824 18.0157 17.2189 18.2143 17.2649C18.4129 17.3108 18.5502 17.4583 18.5209 17.5892Z" fill="#EFE6DA"/>
<path d="M28.3701 18.4177C28.3967 18.283 28.4322 18.1505 28.4763 18.0211C28.652 17.4975 28.9339 17.0579 29.0913 17.0227C29.1635 17.0063 29.2383 17.0083 29.3096 17.0287C29.3808 17.0491 29.4466 17.0872 29.5014 17.1399C29.3458 17.4197 29.2046 17.7083 29.0785 18.0045C28.7124 18.8446 29.2158 19.2999 29.6432 19.5177C29.9352 19.6662 30.7342 19.5998 31.2129 19.5422C31.2597 19.7032 31.2743 19.8729 31.2559 20.0404C31.2138 20.4312 31.1022 20.6119 30.3645 20.6197C30.3123 20.6197 30.2592 20.6197 30.2061 20.6197C29.9829 20.612 29.7616 20.5729 29.548 20.5035C29.548 20.5035 29.548 20.5035 29.548 20.5035C29.3968 20.4539 29.2522 20.3836 29.1179 20.2944C28.96 20.19 28.8198 20.0579 28.7033 19.9036C28.6058 19.7766 28.5239 19.6367 28.4598 19.4875C28.4342 19.4288 28.4095 19.3653 28.3875 19.2999C28.3461 19.1743 28.3241 19.0423 28.3225 18.9091C28.3201 18.7439 28.336 18.5789 28.3701 18.4177V18.4177Z" fill="#F4D3CE"/>
<path d="M29.9448 19.8654C30.1956 19.838 30.148 20.0803 30.1819 20.4291C30.1874 20.4945 30.1956 20.557 30.2039 20.6176C29.9807 20.6099 29.7594 20.5709 29.5458 20.5014C29.5458 20.5014 29.5458 20.5014 29.5458 20.5014C29.5311 20.1721 29.7041 19.8918 29.9448 19.8654Z" fill="#E88C80"/>
<path d="M28.6992 19.8995C28.8173 19.6866 29.0269 19.5791 29.198 19.6553C29.3893 19.7423 29.2658 19.8956 29.1614 20.1614C29.144 20.2043 29.1285 20.2483 29.1138 20.2893C28.9561 20.1852 28.8159 20.0535 28.6992 19.8995V19.8995Z" fill="#E88C80"/>
<path d="M28.3223 18.9078C28.3887 18.8609 28.4675 18.8379 28.5471 18.8423C28.6266 18.8467 28.7028 18.8782 28.7643 18.9322C28.9044 19.0797 28.7451 19.1696 28.5657 19.364C28.5291 19.4031 28.4934 19.4451 28.4596 19.4842C28.4339 19.4256 28.4092 19.3621 28.3872 19.2966C28.346 19.1716 28.3241 19.0403 28.3223 18.9078V18.9078Z" fill="#E88C80"/>
<path d="M28.3691 18.4192C28.3957 18.2845 28.4312 18.152 28.4753 18.0226C28.6584 18.0089 28.813 18.1203 28.8222 18.2698C28.8313 18.4192 28.7069 18.389 28.5238 18.4026C28.4698 18.4065 28.4167 18.4144 28.3691 18.4192Z" fill="#E88C80"/>
<path d="M29.0776 18.0052C29.2037 17.709 29.3448 17.4204 29.5004 17.1406C29.5343 17.1691 29.5614 17.2057 29.5795 17.2475C29.5976 17.2892 29.6063 17.335 29.6048 17.3809C29.5837 17.5763 29.4025 17.5529 29.2982 18.5239C29.1938 19.495 30.4185 19.2508 30.7919 19.198C31.0097 19.1677 31.1461 19.3279 31.212 19.5429C30.7333 19.6005 29.9306 19.6669 29.6423 19.5184C29.2149 19.3006 28.7115 18.8453 29.0776 18.0052Z" fill="#EAC8C5"/>
<path d="M29.6042 17.3805C29.6042 17.3805 30.5268 16.5101 30.3758 16.1965C30.3172 16.0744 29.7983 16.429 29.7781 16.6156C29.7781 16.6156 30.0335 15.9581 29.942 15.9474C29.8504 15.9366 29.088 16.7748 29.0898 17.022L29.6042 17.3805Z" fill="#D15F56"/>
<path d="M29.6842 16.3086C29.6842 16.3086 29.4554 16.7795 29.4453 17.0442Z" fill="#BF4E49"/>
<path d="M30.0936 16.5781C30.0936 16.5781 29.6726 16.8595 29.5371 17.0812Z" fill="#BF4E49"/>
<path d="M29.0322 19.5617C29.0594 19.4291 29.0949 19.2985 29.1384 19.1709C29.3141 18.6463 29.596 18.2067 29.7543 18.1725C29.8258 18.1552 29.9 18.1561 29.9711 18.1751C30.0422 18.1941 30.1081 18.2307 30.1634 18.2819C30.0074 18.5616 29.866 18.8502 29.7397 19.1465C29.3736 19.9876 29.8779 20.4419 30.3044 20.6607C30.5964 20.8092 31.3963 20.7428 31.875 20.6852C31.9211 20.846 31.9354 21.0153 31.9171 21.1824C31.8759 21.5732 31.7642 21.7539 31.0256 21.7617C30.9735 21.7617 30.9213 21.7617 30.8682 21.7617C30.6449 21.7543 30.4236 21.7148 30.2101 21.6445C30.0588 21.5956 29.9142 21.5256 29.78 21.4364C29.6218 21.3321 29.4813 21.2 29.3644 21.0456C29.2674 20.9188 29.1859 20.7792 29.1219 20.6304C29.0963 20.5709 29.0715 20.5074 29.0487 20.4419C29.0075 20.3162 28.9859 20.1842 28.9846 20.0511C28.9823 19.8866 28.9983 19.7223 29.0322 19.5617V19.5617Z" fill="#F4D3CE"/>
<path d="M30.608 21.0081C30.8588 20.9798 30.8121 21.2221 30.845 21.5718C30.8514 21.6363 30.8597 21.6988 30.8679 21.7603C30.6446 21.7529 30.4233 21.7134 30.2098 21.6431C30.2098 21.6431 30.2098 21.6431 30.2098 21.6431C30.1952 21.3139 30.3682 21.0335 30.608 21.0081Z" fill="#E88C80"/>
<path d="M29.3633 21.0416C29.4823 20.8296 29.6919 20.7211 29.8621 20.7983C30.0534 20.8843 29.9307 21.0386 29.8255 21.3043C29.809 21.3473 29.7935 21.3903 29.7788 21.4323C29.6206 21.328 29.4801 21.1959 29.3633 21.0416V21.0416Z" fill="#E88C80"/>
<path d="M28.9844 20.0505C29.0506 20.0035 29.1293 19.9805 29.2087 19.9849C29.2882 19.9893 29.3642 20.0209 29.4255 20.0749C29.5656 20.2215 29.4072 20.3113 29.2278 20.5057C29.1912 20.5458 29.1555 20.5868 29.1217 20.6269C29.096 20.5673 29.0713 20.5038 29.0484 20.4383C29.0076 20.3136 28.986 20.1826 28.9844 20.0505V20.0505Z" fill="#E88C80"/>
<path d="M29.0312 19.562C29.0585 19.4293 29.0939 19.2988 29.1374 19.1712C29.3205 19.1566 29.4751 19.2689 29.4852 19.4184C29.4953 19.5678 29.369 19.5366 29.1859 19.5503L29.0312 19.562Z" fill="#E88C80"/>
<path d="M29.7396 19.1458C29.8656 18.8496 30.0067 18.561 30.1624 18.2812C30.1961 18.3101 30.2231 18.3469 30.2412 18.3888C30.2593 18.4307 30.2681 18.4765 30.2668 18.5225C30.2457 18.7179 30.0636 18.6945 29.9602 19.6646C29.8567 20.6346 31.0777 20.3914 31.4548 20.3425C31.6726 20.3123 31.8081 20.4725 31.8749 20.6884C31.3962 20.746 30.5935 20.8124 30.3043 20.6639C29.8778 20.4402 29.3735 19.9869 29.7396 19.1458Z" fill="#EAC8C5"/>
<path d="M30.2683 18.5241C30.2683 18.5241 31.1899 17.6527 31.0398 17.3401C30.9804 17.217 30.4623 17.5716 30.4422 17.7582C30.4422 17.7582 30.6966 17.1017 30.606 17.09C30.5154 17.0782 29.7521 17.9174 29.7539 18.1646L30.2683 18.5241Z" fill="#D15F56"/>
<path d="M30.3463 17.4531C30.3463 17.4531 30.1184 17.923 30.1074 18.1878Z" fill="#BF4E49"/>
<path d="M30.7567 17.7207C30.7567 17.7207 30.3357 18.0011 30.2012 18.2238Z" fill="#BF4E49"/>
<path d="M27.206 18.9306C27.233 18.7963 27.2685 18.6642 27.3122 18.535C27.4879 18.0104 27.7698 17.5708 27.9273 17.5366C27.9995 17.52 28.0744 17.5219 28.1458 17.5421C28.2172 17.5623 28.2832 17.6002 28.3382 17.6528C28.1822 17.9325 28.0407 18.2211 27.9145 18.5174C27.5483 19.3585 28.0527 19.8128 28.4792 20.0316C28.7711 20.1801 29.5702 20.1137 30.0498 20.056C30.0958 20.2169 30.1102 20.3862 30.0919 20.5533C30.0507 20.944 29.9381 21.1248 29.2004 21.1326C29.1482 21.1326 29.0961 21.1326 29.0421 21.1326C28.8188 21.1251 28.5974 21.0856 28.384 21.0154C28.384 21.0154 28.384 21.0154 28.384 21.0154C28.2326 20.9665 28.088 20.8965 27.9538 20.8073C27.7956 20.703 27.6551 20.5709 27.5383 20.4165C27.4413 20.2896 27.3598 20.1501 27.2957 20.0013C27.2692 19.9417 27.2454 19.8782 27.2225 19.8128C27.1814 19.6871 27.1598 19.5551 27.1584 19.422C27.156 19.2568 27.172 19.0918 27.206 18.9306Z" fill="#F4D3CE"/>
<path d="M28.7826 20.3792C29.0334 20.3509 28.9867 20.5931 29.0197 20.9429C29.0261 21.0074 29.0343 21.0699 29.0417 21.1314C28.8184 21.1239 28.597 21.0845 28.3836 21.0142C28.3836 21.0142 28.3836 21.0142 28.3836 21.0142C28.3699 20.685 28.5419 20.4046 28.7826 20.3792Z" fill="#E88C80"/>
<path d="M27.5391 20.4146C27.658 20.2026 27.8676 20.0942 28.0379 20.1713C28.2292 20.2573 28.1065 20.4117 28.0013 20.6774C27.9848 20.7204 27.9692 20.7634 27.9546 20.8054C27.7964 20.7011 27.6559 20.5689 27.5391 20.4146V20.4146Z" fill="#E88C80"/>
<path d="M27.1602 19.4216C27.2264 19.3746 27.3051 19.3516 27.3845 19.356C27.464 19.3604 27.54 19.392 27.6013 19.446C27.7413 19.5926 27.5821 19.6824 27.4036 19.8768C27.367 19.9169 27.3313 19.9579 27.2974 19.998C27.2709 19.9384 27.2471 19.8749 27.2242 19.8094C27.1834 19.6847 27.1618 19.5537 27.1602 19.4216V19.4216Z" fill="#E88C80"/>
<path d="M27.2051 18.9301C27.2321 18.7959 27.2676 18.6637 27.3112 18.5345C27.4943 18.5198 27.649 18.6322 27.659 18.7816C27.6691 18.9311 27.5428 18.8999 27.3598 18.9135L27.2051 18.9301Z" fill="#E88C80"/>
<path d="M27.9154 18.5169C28.0417 18.2206 28.1831 17.932 28.3391 17.6523C28.3728 17.6812 28.3998 17.718 28.4179 17.7599C28.436 17.8018 28.4448 17.8475 28.4435 17.8936C28.4224 18.089 28.2403 18.0656 28.1369 19.0357C28.0334 20.0057 29.2562 19.7625 29.6306 19.7097C29.8484 19.6794 29.9839 19.8397 30.0507 20.0556C29.5711 20.1132 28.7693 20.1796 28.4801 20.0311C28.0536 19.8123 27.5493 19.358 27.9154 18.5169Z" fill="#EAC8C5"/>
<path d="M28.4411 17.8932C28.4411 17.8932 29.3627 17.0218 29.2126 16.7092C29.1531 16.5861 28.6351 16.9407 28.615 17.1273C28.615 17.1273 28.8694 16.4708 28.7788 16.4591C28.6882 16.4474 27.924 17.2866 27.9258 17.5337L28.4411 17.8932Z" fill="#D15F56"/>
<path d="M28.526 16.834C28.526 16.834 28.2981 17.3039 28.2871 17.5686Z" fill="#BF4E49"/>
<path d="M28.9384 17.1016C28.9384 17.1016 28.5164 17.3829 28.3828 17.6076Z" fill="#BF4E49"/>
<path d="M24.9561 20.5447C24.9562 20.631 24.9464 20.717 24.9268 20.8007C24.8823 20.9739 24.8006 21.1337 24.6881 21.2673C24.5756 21.401 24.4355 21.5048 24.2788 21.5705C24.1307 21.6353 23.9721 21.6684 23.812 21.6682C23.1805 21.6682 22.668 21.1651 22.668 20.5447C22.668 19.9498 22.9206 19.1038 23.748 19.1214C23.7828 19.1214 23.8203 19.1214 23.8578 19.1282C24.0056 19.1437 24.1514 19.1765 24.2926 19.2259C24.9525 19.4545 24.9561 20.0211 24.9561 20.5447Z" fill="#CEBFBE"/>
<path d="M25.4131 20.4468C25.4129 20.5984 25.3817 20.7481 25.3216 20.8854C25.186 20.8807 25.0521 20.852 24.9253 20.8004C24.9448 20.7167 24.9547 20.6308 24.9546 20.5445C24.9546 20.0209 24.9546 19.4543 24.291 19.2208C24.3071 19.1576 24.327 19.0956 24.3505 19.0352C25.4076 19.1622 25.4131 19.8333 25.4131 20.4468Z" fill="#B2A4A4"/>
<path d="M24.9568 20.9351C24.9569 21.0213 24.9471 21.1073 24.9275 21.191C24.7257 21.1145 24.5504 20.9743 24.4249 20.789C24.2993 20.6037 24.2295 20.3821 24.2246 20.1535C24.2245 19.9703 24.2475 19.7879 24.2933 19.6113C24.9532 19.8448 24.9568 20.4114 24.9568 20.9351Z" fill="#CEBFBE"/>
<path d="M26.5126 19.7628C26.5126 20.3832 26.0001 20.8863 25.3685 20.8863H25.3237C25.3838 20.7489 25.415 20.5992 25.4152 20.4476C25.4152 19.8341 25.4097 19.163 24.3535 19.036C24.5119 18.6228 24.834 18.2857 25.4152 18.3521C26.5071 18.4625 26.5126 19.1425 26.5126 19.7628Z" fill="#CEBFBE"/>
<path d="M27.3356 20.7398C27.3354 20.8914 27.3042 21.0411 27.2441 21.1784C27.1085 21.1737 26.9745 21.1449 26.8478 21.0934C26.8673 21.0097 26.8771 20.9237 26.877 20.8375C26.877 20.3138 26.877 19.7472 26.2135 19.5137C26.2217 19.4815 25.7485 19.4288 25.7787 19.4161C26.1448 19.3184 26.0533 19.3184 26.273 19.3184C27.3301 19.4551 27.3356 20.1263 27.3356 20.7398Z" fill="#D1CBCB"/>
<path d="M26.2144 19.513C26.0733 19.4636 25.9275 19.4308 25.7797 19.4153C25.7422 19.4153 25.7046 19.4085 25.6699 19.4085C24.8461 19.3909 24.5898 20.2369 24.5898 20.8318C24.5898 21.4522 25.1024 21.9553 25.7339 21.9553C25.894 21.9556 26.0526 21.9224 26.2007 21.8576C26.3573 21.7919 26.4975 21.6881 26.6099 21.5544C26.7224 21.4208 26.8042 21.261 26.8487 21.0878C26.8682 21.0041 26.8781 20.9181 26.878 20.8318C26.878 20.3131 26.8743 19.7465 26.2144 19.513Z" fill="#8C8585"/>
<path d="M28.4345 20.0558C28.4345 20.6761 27.9219 21.1792 27.2904 21.1792H27.2456C27.3057 21.0419 27.3369 20.8922 27.3371 20.7406C27.3371 20.1271 27.3316 19.456 26.2754 19.329C26.4337 18.9157 26.7559 18.5787 27.3371 18.6451C28.429 18.7555 28.4345 19.4354 28.4345 20.0558Z" fill="#E8E6E6"/>
<path opacity="0.53" d="M27.9446 20.7589C25.6455 20.3887 24.4986 20.4952 22.9427 21.179C21.2769 21.9107 18.9448 23.0957 19.0071 23.719C19.0693 24.3423 19.8125 23.4025 20.1182 23.6369C20.4239 23.8714 25.218 22.2351 26.5772 22.3884C27.9364 22.5418 30.3902 21.1536 27.9446 20.7589Z" fill="#994633"/>
<path d="M28.5339 20.9297C26.2348 20.5555 25.3516 20.5389 23.7746 21.5256C22.1976 22.5123 20.1712 22.6461 20.2298 23.2977C20.2883 23.9493 20.3863 23.7442 20.6874 23.9884C20.9885 24.2326 25.7982 22.4927 27.1574 22.6422C28.5165 22.7917 30.9786 21.3273 28.5339 20.9297Z" fill="#BC5C3F"/>
<path d="M24.9524 21.4414C24.9122 21.3798 25.8393 21.1483 26.783 21.1082C27.5838 21.0711 28.4075 21.1942 28.5091 21.3515C27.9058 21.2303 27.2925 21.175 26.6786 21.1864C25.8045 21.2235 24.9881 21.498 24.9524 21.4414Z" fill="#EFDBD3"/>
<path d="M21.76 22.7366C21.7463 22.7777 22.3183 22.6477 22.8693 22.426C23.3397 22.2365 23.7983 21.961 23.8331 21.8574C23.5024 22.0736 23.1556 22.2601 22.7961 22.4152C22.2918 22.6223 21.7719 22.6995 21.76 22.7366Z" fill="#EFDBD3"/>
<path d="M25.9727 21.7392C25.9773 21.8203 26.2006 21.7744 26.4779 21.7578C26.7552 21.7411 26.9777 21.6601 26.9731 21.5809C26.9685 21.5018 26.7452 21.5458 26.4679 21.5624C26.1905 21.579 25.969 21.6581 25.9727 21.7392Z" fill="#EFDBD3"/>
<path d="M24.8615 21.7977C24.8661 21.8788 25.0308 21.8367 25.2358 21.825C25.4409 21.8133 25.602 21.7371 25.602 21.656C25.602 21.5749 25.4326 21.6169 25.2276 21.6296C25.0226 21.6423 24.8551 21.7176 24.8615 21.7977Z" fill="#EFDBD3"/>
<path d="M25.2638 22.3406C25.2683 22.4217 25.4331 22.3797 25.6381 22.367C25.8431 22.3543 26.0042 22.2801 26.0042 22.199C26.0042 22.1179 25.8358 22.1599 25.6308 22.1726C25.4258 22.1853 25.2592 22.2605 25.2638 22.3406Z" fill="#EFDBD3"/>
<path d="M23.9996 22.3535C24.0188 22.4317 24.1726 22.3535 24.3721 22.3027C24.5716 22.2519 24.7172 22.1406 24.6989 22.0624C24.6806 21.9842 24.5259 22.0624 24.3263 22.1132C24.1268 22.164 23.9813 22.2754 23.9996 22.3535Z" fill="#EFDBD3"/>
<path d="M22.966 22.7867C22.9907 22.8629 23.1225 22.7809 23.2964 22.7174C23.4703 22.6539 23.592 22.5396 23.571 22.4634C23.5499 22.3872 23.4145 22.4634 23.2406 22.5327C23.0667 22.6021 22.9413 22.7086 22.966 22.7867Z" fill="#EFDBD3"/>
<path d="M21.1378 23.3058C21.1534 23.3849 21.2934 23.3224 21.4737 23.2833C21.654 23.2442 21.7886 23.1485 21.7739 23.0694C21.7593 22.9902 21.6183 23.0528 21.438 23.0918C21.2577 23.1309 21.1232 23.2266 21.1378 23.3058Z" fill="#EFDBD3"/>
<path d="M22.0797 23.1271C22.0943 23.2063 22.1895 23.1535 22.3131 23.1271C22.4367 23.1007 22.5264 23.0138 22.5108 22.9317C22.4952 22.8497 22.401 22.9054 22.2774 22.9317C22.1538 22.9581 22.0651 23.048 22.0797 23.1271Z" fill="#EFDBD3"/>
<path d="M22.6177 23.3003C22.636 23.3785 22.7285 23.3208 22.8511 23.2866C22.9738 23.2524 23.058 23.1635 23.0397 23.0844C23.0214 23.0053 22.9289 23.0639 22.8063 23.0981C22.6836 23.1323 22.5994 23.2221 22.6177 23.3003Z" fill="#EFDBD3"/>
<path d="M27.0263 22.2709C27.0144 22.351 27.1179 22.3363 27.2451 22.3578C27.3723 22.3793 27.4812 22.3324 27.4931 22.2523C27.505 22.1722 27.4016 22.1869 27.2744 22.1654C27.1471 22.1439 27.0382 22.1908 27.0263 22.2709Z" fill="#EFDBD3"/>
<path d="M23.7569 22.9296C23.7697 23.0088 23.9116 22.9502 24.0928 22.916C24.274 22.8818 24.4113 22.7899 24.3976 22.7098C24.3839 22.6297 24.2429 22.6893 24.0617 22.7235C23.8805 22.7577 23.7423 22.8495 23.7569 22.9296Z" fill="#EFDBD3"/>
<path d="M27.6917 21.8978C27.6633 22.0649 27.9113 22.0434 28.2042 22.0991C28.4971 22.1548 28.7534 22.0639 28.7836 21.8978C28.8138 21.7318 28.7104 21.5969 28.4175 21.5413C28.1246 21.4856 27.72 21.7308 27.6917 21.8978Z" fill="#EFDBD3"/>
<path d="M26.2437 21.2729C23.9262 21.0541 23.0448 21.0981 21.5255 22.1883C20.0062 23.2785 17.9954 23.5501 18.0933 24.1959C18.1912 24.8416 18.2763 24.6316 18.5939 24.8543C18.9115 25.0771 23.605 23.0148 24.9715 23.0763C26.3379 23.1379 28.7066 21.5064 26.2437 21.2729Z" fill="#BC5C3F"/>
<path d="M22.7026 22.0242C22.6596 21.9655 23.5703 21.6764 24.5057 21.5689C25.3029 21.4771 26.133 21.5455 26.2447 21.6949C25.6347 21.6144 25.0186 21.6006 24.4059 21.6539C23.5401 21.7487 22.742 22.0779 22.7026 22.0242Z" fill="#EFDBD3"/>
<path d="M19.592 23.5345C19.581 23.5756 20.1411 23.4085 20.682 23.1487C21.1397 22.9279 21.5808 22.6231 21.6092 22.5176C21.2921 22.7558 20.9568 22.9653 20.607 23.1438C20.1127 23.3851 19.602 23.4964 19.592 23.5345Z" fill="#EFDBD3"/>
<path d="M23.7385 22.2528C23.7477 22.3329 23.9682 22.2724 24.2437 22.2372C24.5192 22.202 24.7371 22.1083 24.7279 22.0281C24.7188 21.948 24.4982 22.0076 24.2227 22.0428C23.9472 22.078 23.7303 22.1727 23.7385 22.2528Z" fill="#EFDBD3"/>
<path d="M22.6312 22.3895C22.6404 22.4696 22.8015 22.4169 23.0056 22.3895C23.2097 22.3622 23.3717 22.2772 23.3589 22.1942C23.3461 22.1111 23.1886 22.1668 22.9845 22.1942C22.7804 22.2215 22.6221 22.3094 22.6312 22.3895Z" fill="#EFDBD3"/>
<path d="M23.0648 22.9013C23.0739 22.9814 23.2359 22.9286 23.44 22.9013C23.6441 22.8739 23.8061 22.7889 23.7933 22.7059C23.7805 22.6228 23.6222 22.6785 23.4181 22.7059C23.2139 22.7332 23.0565 22.8212 23.0648 22.9013Z" fill="#EFDBD3"/>
<path d="M21.8052 23.0013C21.829 23.0784 21.9782 22.9925 22.1713 22.9251C22.3644 22.8577 22.5063 22.7404 22.4825 22.6633C22.4587 22.5861 22.3104 22.672 22.1164 22.7395C21.9223 22.8069 21.7823 22.9241 21.8052 23.0013Z" fill="#EFDBD3"/>
<path d="M20.7993 23.4997C20.8286 23.5749 20.9549 23.4841 21.1251 23.4088C21.2953 23.3336 21.4088 23.2135 21.3805 23.1363C21.3521 23.0591 21.2249 23.1529 21.0546 23.2281C20.8844 23.3033 20.7709 23.4255 20.7993 23.4997Z" fill="#EFDBD3"/>
<path d="M19.0039 24.1429C19.024 24.2211 19.1604 24.1488 19.3379 24.098C19.5155 24.0472 19.6436 23.9427 19.6244 23.8645C19.6052 23.7864 19.4679 23.8587 19.2903 23.9095C19.1128 23.9603 18.9846 24.0648 19.0039 24.1429Z" fill="#EFDBD3"/>
<path d="M19.933 23.9001C19.9531 23.9783 20.0437 23.9187 20.1664 23.8835C20.289 23.8483 20.3714 23.7575 20.3494 23.6793C20.3275 23.6012 20.2387 23.6598 20.1161 23.695C19.9934 23.7301 19.9119 23.822 19.933 23.9001Z" fill="#EFDBD3"/>
<path d="M20.482 24.0391C20.5058 24.1163 20.5937 24.0518 20.7145 24.0108C20.8353 23.9697 20.914 23.873 20.8902 23.7958C20.8664 23.7187 20.7786 23.7832 20.6577 23.8242C20.5369 23.8652 20.461 23.958 20.482 24.0391Z" fill="#EFDBD3"/>
<path d="M24.8207 22.7138C24.8134 22.7949 24.9186 22.7734 25.044 22.7861C25.1694 22.7988 25.2783 22.7451 25.2856 22.664C25.2929 22.5829 25.1877 22.6044 25.0623 22.5917C24.9369 22.579 24.828 22.6337 24.8207 22.7138Z" fill="#EFDBD3"/>
<path d="M21.5935 23.5908C21.6109 23.6699 21.7491 23.6015 21.9285 23.5546C22.1079 23.5078 22.2378 23.4081 22.2204 23.329C22.2031 23.2498 22.0639 23.3192 21.8855 23.3651C21.707 23.411 21.5752 23.5126 21.5935 23.5908Z" fill="#EFDBD3"/>
<path d="M25.4638 22.2985C25.4464 22.4675 25.6926 22.4294 25.9873 22.4656C26.282 22.5017 26.5364 22.3933 26.5538 22.2243C26.5712 22.0552 26.4623 21.9312 26.1676 21.8941C25.8729 21.8569 25.4821 22.1295 25.4638 22.2985Z" fill="#EFDBD3"/>
<path d="M29.7222 21.5659C27.4048 21.3471 26.5234 21.391 25.004 22.4813C23.4847 23.5715 21.4739 23.8431 21.5718 24.4888C21.6697 25.1346 21.7549 24.9245 22.0725 25.1473C22.39 25.37 27.0835 23.3078 28.45 23.3693C29.8165 23.4308 32.1852 21.7994 29.7222 21.5659Z" fill="#BC5C3F"/>
<path d="M26.1812 22.3191C26.1381 22.2605 27.0488 21.9713 27.9842 21.8638C28.7814 21.772 29.6115 21.8404 29.7232 21.9899C29.1132 21.9093 28.4971 21.8955 27.8845 21.9488C27.0186 22.0436 26.2205 22.3728 26.1812 22.3191Z" fill="#EFDBD3"/>
<path d="M23.0685 23.8275C23.0575 23.8685 23.6177 23.7015 24.1586 23.4416C24.6162 23.2209 25.0574 22.9161 25.0858 22.8105C24.7686 23.0488 24.4334 23.2582 24.0835 23.4368C23.5893 23.678 23.0786 23.7894 23.0685 23.8275Z" fill="#EFDBD3"/>
<path d="M27.2151 22.5458C27.2242 22.6259 27.4448 22.5653 27.7203 22.5302C27.9958 22.495 28.2136 22.4012 28.2045 22.3211C28.1953 22.241 27.9747 22.3006 27.6992 22.3358C27.4237 22.3709 27.2068 22.4657 27.2151 22.5458Z" fill="#EFDBD3"/>
<path d="M26.1098 22.6825C26.1189 22.7626 26.28 22.7099 26.4841 22.6825C26.6882 22.6552 26.8502 22.5702 26.8374 22.4871C26.8246 22.4041 26.6671 22.4598 26.463 22.4871C26.2589 22.5145 26.1006 22.6024 26.1098 22.6825Z" fill="#EFDBD3"/>
<path d="M26.5433 23.1942C26.5524 23.2743 26.7144 23.2216 26.9185 23.1942C27.1226 23.1669 27.2846 23.0819 27.2718 22.9988C27.259 22.9158 27.1007 22.9715 26.8966 22.9988C26.6925 23.0262 26.535 23.1141 26.5433 23.1942Z" fill="#EFDBD3"/>
<path d="M25.2817 23.2942C25.3055 23.3714 25.4547 23.2854 25.6479 23.218C25.841 23.1506 25.9828 23.0334 25.959 22.9562C25.9352 22.8791 25.787 22.965 25.5929 23.0324C25.3989 23.0998 25.2589 23.2171 25.2817 23.2942Z" fill="#EFDBD3"/>
<path d="M24.2758 23.7927C24.3051 23.8679 24.4314 23.777 24.6017 23.7018C24.7719 23.6266 24.8854 23.5064 24.857 23.4293C24.8286 23.3521 24.7014 23.4459 24.5312 23.5211C24.3609 23.5963 24.2475 23.7184 24.2758 23.7927Z" fill="#EFDBD3"/>
<path d="M22.4843 24.4359C22.5045 24.5141 22.6408 24.4418 22.8184 24.391C22.996 24.3402 23.1241 24.2356 23.1049 24.1575C23.0857 24.0793 22.9484 24.1516 22.7708 24.2024C22.5932 24.2532 22.4651 24.3578 22.4843 24.4359Z" fill="#EFDBD3"/>
<path d="M23.4115 24.1931C23.4317 24.2712 23.5223 24.2116 23.6449 24.1765C23.7676 24.1413 23.8499 24.0505 23.828 23.9723C23.806 23.8941 23.7172 23.9528 23.5946 23.9879C23.4719 24.0231 23.3905 24.1149 23.4115 24.1931Z" fill="#EFDBD3"/>
<path d="M23.9605 24.3321C23.9843 24.4092 24.0722 24.3448 24.193 24.3037C24.3138 24.2627 24.3925 24.166 24.3687 24.0888C24.3449 24.0116 24.2571 24.0761 24.1363 24.1171C24.0154 24.1582 23.9395 24.251 23.9605 24.3321Z" fill="#EFDBD3"/>
<path d="M28.2972 23.0068C28.2899 23.0878 28.3952 23.0663 28.5206 23.079C28.6459 23.0917 28.7549 23.038 28.7622 22.9569C28.7695 22.8759 28.6643 22.8973 28.5389 22.8846C28.4135 22.8719 28.3046 22.9267 28.2972 23.0068Z" fill="#EFDBD3"/>
<path d="M25.072 23.8838C25.0894 23.9629 25.2276 23.8945 25.407 23.8476C25.5864 23.8007 25.7164 23.7011 25.699 23.6219C25.6816 23.5428 25.5425 23.6122 25.364 23.6581C25.1855 23.704 25.0537 23.8056 25.072 23.8838Z" fill="#EFDBD3"/>
<path d="M28.9423 22.5915C28.9249 22.7605 29.1711 22.7224 29.4658 22.7585C29.7605 22.7947 30.015 22.6862 30.0323 22.5172C30.0497 22.3482 29.9408 22.2241 29.6461 22.187C29.3514 22.1499 28.9606 22.4225 28.9423 22.5915Z" fill="#EFDBD3"/>
<path opacity="0.53" d="M27.6917 22.1406C25.3917 21.7665 24.5094 21.7499 22.9324 22.7365C21.3554 23.7232 19.3235 23.86 19.3821 24.5087C19.4407 25.1573 19.5386 24.9551 19.8397 25.1993C20.1408 25.4436 24.9496 23.7017 26.3097 23.8541C27.6698 24.0065 30.1346 22.5392 27.6917 22.1406Z" fill="#994633"/>
<path d="M28.2585 22.4922C25.9594 22.118 25.0762 22.1014 23.4992 23.0881C21.9222 24.0748 19.8958 24.2086 19.9544 24.8602C20.0129 25.5118 20.1109 25.3067 20.412 25.5509C20.7131 25.7951 25.5228 24.0552 26.882 24.2047C28.2411 24.3542 30.7032 22.8898 28.2585 22.4922Z" fill="#BC5C3F"/>
<path d="M24.677 23.0039C24.6368 22.9423 25.5639 22.7157 26.5076 22.6707C27.3084 22.6336 28.1322 22.7567 28.2337 22.914C27.6304 22.7928 27.0171 22.7375 26.4032 22.7489C25.5292 22.786 24.7127 23.0605 24.677 23.0039Z" fill="#EFDBD3"/>
<path d="M21.4866 24.3011C21.4728 24.3421 22.0449 24.2122 22.5959 23.9904C23.0663 23.8009 23.5249 23.5254 23.5596 23.4219C23.229 23.638 22.8821 23.8246 22.5226 23.9797C22.0183 24.1868 21.4985 24.264 21.4866 24.3011Z" fill="#EFDBD3"/>
<path d="M25.6993 23.3017C25.7038 23.3828 25.9272 23.3369 26.2045 23.3203C26.4818 23.3036 26.7042 23.2226 26.6996 23.1434C26.6951 23.0643 26.4717 23.1083 26.1944 23.1249C25.9171 23.1415 25.6956 23.2206 25.6993 23.3017Z" fill="#EFDBD3"/>
<path d="M24.5861 23.3621C24.5907 23.4432 24.7554 23.4012 24.9605 23.3895C25.1655 23.3777 25.3266 23.3016 25.3266 23.2205C25.3266 23.1394 25.1572 23.1814 24.9522 23.1941C24.7472 23.2068 24.5797 23.282 24.5861 23.3621Z" fill="#EFDBD3"/>
<path d="M24.9884 23.9031C24.9929 23.9842 25.1577 23.9422 25.3627 23.9295C25.5677 23.9168 25.7288 23.8426 25.7288 23.7615C25.7288 23.6804 25.5604 23.7224 25.3554 23.7351C25.1504 23.7478 24.9838 23.823 24.9884 23.9031Z" fill="#EFDBD3"/>
<path d="M23.7242 23.918C23.7434 23.9961 23.8972 23.918 24.0967 23.8672C24.2962 23.8164 24.4418 23.705 24.4235 23.6268C24.4052 23.5487 24.2505 23.6269 24.051 23.6777C23.8514 23.7284 23.7059 23.8398 23.7242 23.918Z" fill="#EFDBD3"/>
<path d="M22.6926 24.3492C22.7173 24.4254 22.8491 24.3434 23.023 24.2799C23.1969 24.2164 23.3186 24.1021 23.2975 24.0259C23.2765 23.9497 23.141 24.0259 22.9671 24.0952C22.7932 24.1646 22.6679 24.2711 22.6926 24.3492Z" fill="#EFDBD3"/>
<path d="M20.8624 24.8683C20.878 24.9474 21.018 24.8849 21.1983 24.8458C21.3786 24.8067 21.5132 24.711 21.4985 24.6319C21.4839 24.5527 21.3429 24.6153 21.1626 24.6543C20.9823 24.6934 20.8478 24.7891 20.8624 24.8683Z" fill="#EFDBD3"/>
<path d="M21.8043 24.6896C21.819 24.7688 21.9141 24.716 22.0377 24.6896C22.1613 24.6632 22.251 24.5763 22.2354 24.4942C22.2198 24.4122 22.1256 24.4679 22.002 24.4942C21.8785 24.5206 21.7897 24.6105 21.8043 24.6896Z" fill="#EFDBD3"/>
<path d="M22.3443 24.8648C22.3626 24.9429 22.455 24.8853 22.5777 24.8511C22.7003 24.8169 22.7845 24.728 22.7662 24.6489C22.7479 24.5697 22.6555 24.6283 22.5328 24.6625C22.4102 24.6967 22.326 24.7866 22.3443 24.8648Z" fill="#EFDBD3"/>
<path d="M26.7509 23.8353C26.739 23.9154 26.8425 23.9008 26.9697 23.9223C27.0969 23.9438 27.2058 23.8969 27.2177 23.8168C27.2296 23.7367 27.1262 23.7513 26.999 23.7298C26.8717 23.7083 26.7628 23.7552 26.7509 23.8353Z" fill="#EFDBD3"/>
<path d="M23.4815 24.4921C23.4943 24.5713 23.6362 24.5127 23.8174 24.4785C23.9987 24.4443 24.1359 24.3524 24.1222 24.2723C24.1085 24.1922 23.9675 24.2518 23.7863 24.286C23.6051 24.3202 23.4669 24.412 23.4815 24.4921Z" fill="#EFDBD3"/>
<path d="M27.4163 23.4603C27.3879 23.6274 27.6359 23.6059 27.9288 23.6616C28.2217 23.7173 28.478 23.6264 28.5082 23.4603C28.5384 23.2943 28.435 23.1594 28.1421 23.1038C27.8492 23.0481 27.4447 23.2933 27.4163 23.4603Z" fill="#EFDBD3"/>
<path d="M17.6991 21.8895C17.6991 22.9641 16.4251 24.4022 14.9533 24.1228C13.5493 23.8561 12.1426 23.2484 12.1426 22.1689C12.1426 21.0894 13.7232 19.5176 15.1529 19.5176C16.5825 19.5176 17.6991 20.811 17.6991 21.8895Z" fill="#68321F"/>
<path d="M15.1532 19.8672C15.1532 19.8672 13.5186 21.4019 13.7803 22.1698C14.0421 22.9376 15.5422 20.2853 15.1532 19.8672Z" fill="#F4F4F4"/>
<path d="M15.9502 21.4658C15.9502 21.4658 14.4181 20.0883 13.652 20.3091C12.8859 20.5299 15.5328 21.797 15.9502 21.4658Z" fill="#F4F4F4"/>
<path opacity="0.15" d="M7.50195 20.4681C7.50195 20.4681 12.4974 18.7028 13.7184 18.5143C14.9394 18.3257 19.5504 18.651 20.2167 18.4166C20.8831 18.1821 24.1478 18.4937 26.7151 18.905C27.6789 19.0594 32.2982 19.2186 32.2982 20.3313C32.2982 21.444 31.7179 25.3087 19.5623 24.3494C7.40677 23.39 8.05843 23.3988 7.50195 20.4681Z" fill="#47201A"/>
<path d="M10.346 23.9872C10.2132 23.9872 8.80466 23.0005 8.64449 22.7172C8.48432 22.4339 8.21706 20.1577 8.35069 20.0151C8.48432 19.8725 10.2105 21.4306 10.2105 21.4306C10.2105 21.4306 10.4796 23.9872 10.346 23.9872Z" fill="#E2E2E2"/>
<path d="M13.364 22.5904C13.364 22.5904 10.48 23.9835 10.3437 23.9835C10.2073 23.9835 10.2109 21.4298 10.2109 21.4298C10.2109 21.4298 13.278 19.855 13.4144 19.9996C13.5507 20.1442 13.4144 22.5034 13.4144 22.5034C13.4136 22.5213 13.4086 22.5387 13.3998 22.5539C13.391 22.5692 13.3787 22.5817 13.364 22.5904V22.5904Z" fill="#E8EAE9"/>
<path d="M13.4148 20.0058L11.5742 18.8501C11.5444 18.8319 11.5106 18.8223 11.4763 18.8223C11.4419 18.8223 11.4081 18.8319 11.3783 18.8501C11.3783 18.8501 8.35156 19.871 8.35156 20.0127C8.35156 20.1543 10.2114 21.4302 10.2114 21.4302L13.4148 20.0058Z" fill="#EFEFEF"/>
<path d="M9.25 20.0208C9.25 20.0208 11.1867 19.127 11.4091 19.127C11.4091 19.127 9.28844 20.1342 9.25 20.0208Z" fill="#D8D8D8"/>
<path d="M9.61719 20.4124C9.61719 20.4124 11.4724 19.6152 11.6848 19.6152C11.6848 19.6152 9.6538 20.513 9.61719 20.4124Z" fill="#D8D8D8"/>
<path d="M10.3496 20.7044C10.3496 20.7044 12.2863 19.8105 12.5087 19.8105C12.5087 19.8105 10.3881 20.8177 10.3496 20.7044Z" fill="#D8D8D8"/>
<path d="M33.1929 20.4942C33.1929 23.5158 31.7285 29.7749 20.1505 29.7749C10.4432 29.7749 7.94184 25.8809 7.31305 22.7411C7.28651 22.6092 7.26363 22.4783 7.24349 22.3503C7.45858 22.3503 7.64895 22.3503 7.79265 22.3503C7.98119 22.3503 8.32808 22.2165 8.38574 22.1549C8.4434 22.0934 8.21184 22.1217 8.19353 22.0221C8.15784 21.9957 8.12306 21.9683 8.08919 21.941L8.0297 21.8931L8.00407 21.8716L7.96289 21.8365C7.94367 21.8208 7.92536 21.8042 7.90706 21.7876L7.85306 21.7388L7.8018 21.6899C7.76794 21.6577 7.73407 21.6245 7.70295 21.5922C7.67184 21.56 7.64712 21.5317 7.62058 21.5014C7.52235 21.3914 7.43381 21.2721 7.35607 21.1448L7.33319 21.1057C7.29915 21.0473 7.26858 20.9866 7.24166 20.924C7.22793 20.8928 7.21512 20.8615 7.20322 20.8263C7.19682 20.8087 7.19041 20.7912 7.18492 20.7736C7.17943 20.756 7.17302 20.7374 7.16753 20.7198C7.14458 20.6417 7.12774 20.5616 7.11719 20.4805C7.11719 20.4659 7.11719 20.4522 7.11719 20.4375C7.11719 20.4229 7.11719 20.4092 7.11719 20.3955C7.11758 20.3929 7.11758 20.3903 7.11719 20.3877C7.12451 20.3809 7.1419 20.3877 7.1602 20.3955C7.17851 20.4033 7.20505 20.4131 7.20597 20.3955C7.23434 20.884 7.50526 21.3509 7.98211 21.7847C8.04709 21.8443 8.11665 21.9039 8.19079 21.9625C9.38063 22.9081 11.5516 23.6809 14.302 24.1391C14.4502 24.1635 14.6022 24.1869 14.7596 24.2104L15.09 24.2592L15.2008 24.2739L15.4332 24.3051H15.4442L15.5742 24.3217H15.5952L15.7344 24.3383L15.9531 24.3637L16.0995 24.3794C16.2405 24.395 16.3824 24.4097 16.5261 24.4233L16.9452 24.4605L17.0725 24.4712C17.2018 24.4816 17.3318 24.4914 17.4624 24.5005L17.563 24.5074L17.9456 24.5308C18.2303 24.5464 18.5186 24.5601 18.8096 24.5699H18.87C19.0741 24.5757 19.2801 24.5816 19.4869 24.5845C19.7102 24.5884 19.9351 24.5904 20.1615 24.5904C20.3878 24.5904 20.6127 24.5884 20.836 24.5845C21.0429 24.5845 21.2488 24.5757 21.4529 24.5699H21.5133C21.8044 24.5601 22.0927 24.5464 22.3773 24.5308C22.8597 24.5034 23.3338 24.4673 23.7969 24.4233C23.9406 24.4097 24.0824 24.395 24.2234 24.3794C24.5669 24.3429 24.9025 24.3016 25.2302 24.2553C25.4059 24.2312 25.5798 24.2055 25.7519 24.1781C25.8434 24.1635 25.9349 24.1498 26.0265 24.1342L26.2296 24.1C26.3495 24.0795 26.4676 24.058 26.5857 24.0355C26.8212 23.9919 27.0512 23.9456 27.2758 23.8968L27.3801 23.8753C27.634 23.8186 27.8817 23.76 28.1233 23.6994C28.2331 23.6711 28.3421 23.6428 28.4491 23.6135L28.6157 23.5676L28.7018 23.5431C28.8244 23.508 28.9443 23.4728 29.0624 23.4367C29.8964 23.1923 30.7046 22.8568 31.4741 22.4353L31.5354 22.3943C31.6663 22.3181 31.7898 22.239 31.9015 22.1588L32.0123 22.0817C32.0772 22.0348 32.1404 21.984 32.1999 21.939C32.22 21.9234 32.2402 21.9078 32.2594 21.8912L32.3262 21.8345C32.3454 21.8189 32.3637 21.8023 32.382 21.7857L32.436 21.7368L32.4873 21.688C32.5211 21.6557 32.555 21.6225 32.5861 21.5903C32.6172 21.558 32.642 21.5297 32.6685 21.4994C32.7667 21.3895 32.8553 21.2701 32.933 21.1429L32.9559 21.1038C32.9899 21.0453 33.0205 20.9846 33.0474 20.9221C33.0611 20.8908 33.074 20.8595 33.0859 20.8244C33.0923 20.8068 33.0987 20.7892 33.1042 20.7716C33.1097 20.754 33.1161 20.7355 33.1216 20.7179C33.1445 20.6397 33.1613 20.5597 33.1719 20.4786C33.1719 20.4639 33.1719 20.4502 33.1719 20.4356C33.1719 20.4209 33.1719 20.4072 33.1719 20.3936C33.1719 20.3799 33.1719 20.3848 33.1719 20.3809C33.192 20.4199 33.1929 20.4571 33.1929 20.4942Z" fill="#353535"/>
<path d="M32.5429 20.3975C32.3177 22.5174 26.8545 24.2143 20.1484 24.2143C13.7251 24.2143 8.44224 22.6571 7.81071 20.6632C7.80518 20.6482 7.80059 20.6329 7.79698 20.6173C7.77635 20.5456 7.76195 20.472 7.75396 20.3975H7.11328C7.11328 20.4111 7.11328 20.4258 7.11328 20.4395C7.11328 20.4531 7.11328 20.4678 7.11328 20.4825C7.12384 20.5636 7.14067 20.6436 7.16362 20.7218C7.16911 20.7394 7.1746 20.757 7.18101 20.7755C7.18742 20.7941 7.19291 20.8107 7.19932 20.8283C7.21121 20.8605 7.22403 20.8918 7.23776 20.926C7.26468 20.9885 7.29525 21.0492 7.32928 21.1077L7.35216 21.1468C7.4299 21.274 7.51845 21.3934 7.61667 21.5033C7.64352 21.5339 7.67098 21.5642 7.69905 21.5942C7.73017 21.6274 7.76403 21.6606 7.7979 21.6919L7.84915 21.7407L7.90315 21.7896C7.92146 21.8062 7.93976 21.8228 7.95898 21.8384L8.00017 21.8736L8.0258 21.8951L8.08529 21.9429C8.11915 21.9703 8.15393 21.9977 8.18963 22.024L8.27292 22.0846C8.30861 22.111 8.34614 22.1364 8.38366 22.1618C8.4999 22.2419 8.62346 22.321 8.74977 22.3972L8.82665 22.4421C9.59614 22.8636 10.4043 23.1991 11.2384 23.4435C11.3564 23.4796 11.4763 23.5148 11.599 23.55L11.685 23.5744L11.8516 23.6203C11.9587 23.6496 12.0676 23.6779 12.1774 23.7063C12.419 23.7668 12.6662 23.8255 12.9206 23.8821L13.0249 23.9036C13.2501 23.9525 13.4801 23.9987 13.7151 24.0423C13.8331 24.0648 13.9512 24.0863 14.0711 24.1068L14.2743 24.141H14.2834L14.4152 24.1635L14.5452 24.184L14.8298 24.227L15.0669 24.2612L15.1776 24.2758L15.4101 24.3071H15.4275L15.562 24.3237H15.5831L15.7222 24.3403L15.941 24.3657L16.0874 24.3813C16.2284 24.397 16.3711 24.4116 16.5139 24.4253L16.9331 24.4624L17.2379 24.4868L17.5463 24.5093L17.9289 24.5327C18.2136 24.5484 18.5019 24.5621 18.7929 24.5718H18.8533C19.0574 24.5777 19.2634 24.5835 19.4702 24.5865C19.6935 24.5904 19.9184 24.5923 20.1448 24.5923C20.3711 24.5923 20.596 24.5904 20.8193 24.5865C21.0261 24.5865 21.2321 24.5777 21.4362 24.5718H21.4966C21.7876 24.5621 22.0759 24.5484 22.3606 24.5327C22.8429 24.5054 23.317 24.4692 23.7802 24.4253C23.9229 24.4116 24.0657 24.397 24.2067 24.3813C24.5502 24.3449 24.8858 24.3035 25.2135 24.2573C25.3892 24.2332 25.5631 24.2074 25.7352 24.1801C25.8267 24.1654 25.9182 24.1518 26.0097 24.1361L26.2129 24.1019C26.3328 24.0814 26.4509 24.0599 26.569 24.0375C26.8045 23.9938 27.0345 23.9476 27.2591 23.8987L27.3634 23.8772C27.6178 23.8206 27.865 23.762 28.1066 23.7014C28.2164 23.6731 28.3253 23.6447 28.4324 23.6154L28.599 23.5695L28.685 23.5451C28.8077 23.5099 28.9276 23.4747 29.0457 23.4386C29.8797 23.1943 30.6879 22.8587 31.4574 22.4373L31.5361 22.3953C31.667 22.3191 31.7905 22.2399 31.9022 22.1598L32.0129 22.0826C32.0779 22.0358 32.1411 21.985 32.2006 21.94L32.26 21.8921L32.3269 21.8355C32.3461 21.8199 32.3644 21.8032 32.3827 21.7866L32.4367 21.7378L32.4879 21.6889C32.5218 21.6567 32.5557 21.6235 32.5868 21.5913C32.6179 21.559 32.6426 21.5307 32.6692 21.5004C32.7674 21.3905 32.8559 21.2711 32.9337 21.1438L32.9566 21.1047C32.9906 21.0463 33.0212 20.9856 33.0481 20.923C33.0618 20.8918 33.0746 20.8605 33.0865 20.8254C33.0929 20.8078 33.0993 20.7902 33.1048 20.7726C33.1103 20.755 33.1167 20.7365 33.1222 20.7189C33.1452 20.6407 33.162 20.5607 33.1726 20.4795C33.1726 20.4649 33.1726 20.4512 33.1726 20.4365C33.1726 20.4219 33.1726 20.4082 33.1726 20.3945L32.5429 20.3975Z" fill="#444444"/>
<path d="M8.39059 22.1565C8.33293 22.218 7.98605 22.3519 7.7975 22.3519C7.65015 22.3519 7.45977 22.3519 7.24835 22.3519C6.2141 22.3304 4.60599 22.1565 4.45955 20.907C4.44578 20.7804 4.44578 20.6526 4.45955 20.526C4.5584 19.4739 6.87401 18.5419 7.7975 18.5419C7.9152 18.5291 8.03343 18.5598 8.13249 18.6288C8.01087 18.7229 7.89444 18.8243 7.78377 18.9327C7.34628 19.3625 7.10923 19.8226 7.10923 20.3003C7.10923 20.329 7.10923 20.3573 7.10923 20.3853C7.10962 20.3879 7.10962 20.3906 7.10923 20.3931C7.10923 20.4068 7.10923 20.4215 7.10923 20.4352C7.10923 20.4488 7.10923 20.4635 7.10923 20.4781C7.11978 20.5593 7.13662 20.6393 7.15957 20.7175C7.16506 20.7351 7.17055 20.7536 7.17696 20.7712C7.18336 20.7888 7.18886 20.8064 7.19526 20.824C7.20716 20.8562 7.21997 20.8875 7.2337 20.9217C7.26062 20.9842 7.29119 21.0449 7.32523 21.1034L7.34811 21.1424C7.42585 21.2697 7.51439 21.3891 7.61262 21.499C7.63947 21.5296 7.66693 21.5599 7.69499 21.5899C7.72611 21.6231 7.75998 21.6563 7.79384 21.6876L7.8451 21.7364L7.8991 21.7853C7.9174 21.8019 7.93571 21.8185 7.95493 21.8341L7.99611 21.8693L8.02174 21.8908C8.04096 21.9074 8.0611 21.923 8.08123 21.9386C8.1151 21.966 8.34208 22.0295 8.37778 22.0559C8.38632 22.0602 8.39372 22.0667 8.39931 22.0748C8.40489 22.083 8.40848 22.0925 8.40976 22.1025C8.41103 22.1125 8.40994 22.1226 8.4066 22.1321C8.40325 22.1415 8.39775 22.1499 8.39059 22.1565V22.1565Z" fill="#444444"/>
<path d="M32.069 22.2584C31.9665 22.5632 31.799 23.333 32.2438 23.333C32.3747 23.333 32.5404 23.333 32.7271 23.333C33.8519 23.3164 35.9305 22.4293 35.7694 20.793V20.6953C35.623 21.9487 34.0139 22.3316 32.9797 22.3561C32.7646 22.3561 32.5742 22.3561 32.4305 22.3561C32.2383 22.3522 32.1267 22.3199 32.069 22.2584Z" fill="#353535"/>
<path d="M31.8359 22.1555C31.8936 22.2171 32.2404 22.3509 32.429 22.3509C32.5763 22.3509 32.7667 22.3509 32.9781 22.3509C34.0124 22.3294 35.6205 22.1555 35.7669 20.906C35.7807 20.7795 35.7807 20.6516 35.7669 20.525C35.6635 19.4758 33.3479 18.5438 32.4244 18.5438C32.3067 18.5311 32.1885 18.5618 32.0894 18.6308C32.211 18.7248 32.3275 18.8263 32.4381 18.9346C32.8756 19.3645 33.1127 19.8246 33.1127 20.3023C33.1127 20.331 33.1127 20.3593 33.1127 20.3873C33.1123 20.3899 33.1123 20.3925 33.1127 20.3951C33.1127 20.4088 33.1127 20.4234 33.1127 20.4371C33.1127 20.4508 33.1127 20.4654 33.1081 20.4801C33.0975 20.5612 33.0807 20.6413 33.0578 20.7194C33.0523 20.737 33.0468 20.7556 33.0404 20.7732C33.034 20.7908 33.0285 20.8083 33.0221 20.8259C33.0102 20.8582 32.9974 20.8894 32.9836 20.9236C32.9567 20.9862 32.9261 21.0469 32.8921 21.1053L32.8692 21.1444C32.7915 21.2717 32.7029 21.391 32.6047 21.501C32.5779 21.5316 32.5504 21.5619 32.5223 21.5918C32.4912 21.625 32.4574 21.6583 32.4235 21.6895L32.3722 21.7384L32.3182 21.7872C32.2999 21.8038 32.2816 21.8204 32.2624 21.8361L32.2212 21.8712L32.1956 21.8927C32.1764 21.9093 32.1562 21.925 32.1361 21.9406C32.116 21.9562 31.8752 22.0314 31.8396 22.0578C31.8321 22.0631 31.826 22.0702 31.8217 22.0785C31.8173 22.0869 31.8149 22.0961 31.8145 22.1057C31.8141 22.1152 31.8159 22.1247 31.8196 22.1333C31.8233 22.142 31.8289 22.1496 31.8359 22.1555V22.1555Z" fill="#444444"/>
<path d="M8.18463 21.9641C8.1892 21.9836 8.19378 22.0032 8.19744 22.0217C8.16174 21.9954 8.12696 21.968 8.0931 21.9407L8.03361 21.8928L8.00798 21.8713L7.96679 21.8361C7.94757 21.8205 7.92927 21.8039 7.91096 21.7873L7.85696 21.7384L7.80571 21.6896C7.77184 21.6573 7.73798 21.6241 7.70686 21.5919C7.67574 21.5597 7.65103 21.5313 7.62449 21.501C7.52626 21.3911 7.43772 21.2717 7.35998 21.1445L7.3371 21.1054C7.30306 21.0469 7.27249 20.9862 7.24557 20.9237C7.23184 20.8924 7.21903 20.8612 7.20713 20.826C7.20072 20.8084 7.19431 20.7908 7.18882 20.7732C7.18333 20.7557 7.17692 20.7371 7.17143 20.7195C7.14849 20.6413 7.13165 20.5613 7.12109 20.4802C7.12109 20.4655 7.12109 20.4518 7.12109 20.4372C7.12109 20.4225 7.12109 20.4088 7.12109 20.3952C7.12149 20.3926 7.12149 20.3899 7.12109 20.3874V20.3874C7.12109 20.3587 7.12109 20.3304 7.12109 20.3024C7.12109 19.8247 7.35815 19.3645 7.79564 18.9347C7.90631 18.8263 8.02274 18.7249 8.14435 18.6309C8.22032 18.6973 8.23588 18.8018 8.20842 18.9366C8.2011 18.9747 8.19103 19.0167 8.17913 19.0607C8.15168 19.1584 8.11232 19.2678 8.07022 19.386C7.95306 19.7133 7.80937 20.1099 7.80937 20.5251C7.80937 20.5573 7.80937 20.5886 7.80937 20.6228C7.80937 20.657 7.80937 20.6892 7.81669 20.7205C7.86062 21.2343 8.105 21.672 8.18463 21.9641Z" fill="#444444"/>
</g>
<defs>
<clipPath id="clip0_2590_4624">
<rect y="0.40625" width="40" height="40" rx="20" fill="white"/>
</clipPath>
</defs>
</svg>
