<svg width="200" height="38" viewBox="0 0 200 38" fill="none" xmlns="http://www.w3.org/2000/svg">
<path d="M26.9017 37L35.4234 0.520112H49.8986L50.9493 19.0811H51.3578L58.9457 0.520112H73.4209L69.1017 37H57.4865L59.9379 19.3146H59.5293L52.2334 37H43.77L42.5443 19.3146H42.2525L38.4586 37H26.9017ZM33.0303 3.14666L8.57423 0.520112H33.614L33.0303 3.14666ZM31.6879 8.74997L7.23177 6.12342H32.3299L31.6879 8.74997ZM30.4038 14.3533L5.88931 11.7267H30.9875L30.4038 14.3533ZM29.0613 19.9566L4.54685 17.33H29.7034L29.0613 19.9566ZM27.7772 25.5599L3.20439 22.9334H28.3609L27.7772 25.5599ZM26.4348 31.1632L1.86193 28.5367H27.0768L26.4348 31.1632ZM25.1507 36.8249L0.519472 34.1983H25.7344L25.1507 36.8249Z" fill="#BE2434"/>
<path d="M83.3189 37.4002C81.5846 37.3113 80.117 36.8666 78.9163 36.0661C77.7156 35.2434 76.8484 34.1539 76.3148 32.7975C75.7811 31.4412 75.6588 29.8958 75.9479 28.1614C76.237 26.4493 76.8484 24.9596 77.7823 23.6921C78.7384 22.4247 79.9169 21.4575 81.3177 20.7904C82.7408 20.1234 84.2973 19.8454 85.9872 19.9566C87.6548 20.0233 89.0445 20.4569 90.1563 21.2574C91.2681 22.0356 92.0463 23.1363 92.491 24.5593C92.9357 25.9824 92.9802 27.6834 92.6244 29.6623H80.2504C80.1837 30.5517 80.2838 31.3189 80.5506 31.9637C80.8397 32.5863 81.251 33.0643 81.7847 33.3979C82.3183 33.7314 82.952 33.9093 83.6858 33.9315C84.6419 33.976 85.498 33.7759 86.254 33.3312C87.0322 32.8865 87.6215 32.3083 88.0217 31.5968L91.6238 33.2978C91.0679 34.3206 90.3342 35.1433 89.4225 35.7659C88.5109 36.3885 87.5214 36.8221 86.4541 37.0667C85.409 37.3335 84.364 37.4447 83.3189 37.4002ZM80.8174 26.7273H88.522C88.4775 25.66 88.2107 24.815 87.7215 24.1924C87.2546 23.5476 86.4875 23.203 85.4202 23.1585C84.3529 23.114 83.419 23.4142 82.6185 24.059C81.8403 24.7038 81.2399 25.5933 80.8174 26.7273ZM105.853 37L106.186 33.8982L108.454 20.3235H112.857L110.055 37H105.853ZM101.017 37.4002C99.5046 37.4002 98.2261 37.0556 97.181 36.3663C96.136 35.6548 95.3688 34.6764 94.8797 33.4312C94.4127 32.1638 94.2682 30.6963 94.4461 29.0286C94.5795 27.739 94.8685 26.5383 95.3132 25.4265C95.7802 24.3147 96.3805 23.3475 97.1143 22.5248C97.8703 21.7021 98.7375 21.0684 99.7158 20.6237C100.694 20.1567 101.784 19.9232 102.984 19.9232C104.474 19.9232 105.653 20.279 106.52 20.9905C107.409 21.7021 108.021 22.6804 108.354 23.9256C108.71 25.1486 108.788 26.5827 108.588 28.2282C108.454 29.7179 108.165 31.0298 107.721 32.1638C107.298 33.2978 106.742 34.2539 106.053 35.0322C105.386 35.8104 104.619 36.3996 103.752 36.7999C102.907 37.2001 101.995 37.4002 101.017 37.4002ZM102.451 33.3645C103.118 33.3645 103.718 33.22 104.252 32.9309C104.808 32.6419 105.286 32.2528 105.686 31.7636C106.109 31.2522 106.431 30.6852 106.653 30.0626C106.898 29.4177 107.042 28.7618 107.087 28.0947C107.198 26.8718 106.942 25.8823 106.32 25.1263C105.697 24.3703 104.863 23.9923 103.818 23.9923C103.129 23.9923 102.495 24.1368 101.917 24.4259C101.361 24.715 100.872 25.1041 100.45 25.5933C100.027 26.0602 99.6825 26.605 99.4157 27.2276C99.1711 27.8501 99.0265 28.5061 98.9821 29.1954C98.9154 30.3961 99.1933 31.3967 99.8159 32.1972C100.461 32.9754 101.339 33.3645 102.451 33.3645ZM113.847 37L117.783 13.6529H122.185L118.249 37H113.847ZM122.721 37L126.623 13.6529H134.094C136.429 13.6751 138.43 14.1976 140.098 15.2205C141.766 16.2433 142.978 17.6552 143.734 19.4563C144.49 21.2351 144.667 23.2808 144.267 25.5933C144 27.2831 143.456 28.8285 142.633 30.2293C141.81 31.6079 140.765 32.8086 139.498 33.8315C138.252 34.8321 136.841 35.6103 135.262 36.1662C133.683 36.7221 131.993 37 130.192 37H122.721ZM127.991 32.7308H130.759C131.826 32.7308 132.86 32.5418 133.861 32.1638C134.862 31.7636 135.762 31.2188 136.563 30.5295C137.385 29.818 138.063 29.0064 138.597 28.0947C139.153 27.1609 139.52 26.1491 139.698 25.0596C139.942 23.681 139.831 22.4692 139.364 21.4241C138.897 20.3568 138.141 19.5119 137.096 18.8893C136.073 18.2445 134.839 17.9221 133.394 17.9221H130.459L127.991 32.7308ZM157.348 37L157.682 33.8982L159.95 20.3235H164.352L161.551 37H157.348ZM152.512 37.4002C151 37.4002 149.721 37.0556 148.676 36.3663C147.631 35.6548 146.864 34.6764 146.375 33.4312C145.908 32.1638 145.763 30.6963 145.941 29.0286C146.075 27.739 146.364 26.5383 146.809 25.4265C147.275 24.3147 147.876 23.3475 148.61 22.5248C149.366 21.7021 150.233 21.0684 151.211 20.6237C152.189 20.1567 153.279 19.9232 154.48 19.9232C155.969 19.9232 157.148 20.279 158.015 20.9905C158.905 21.7021 159.516 22.6804 159.85 23.9256C160.205 25.1486 160.283 26.5827 160.083 28.2282C159.95 29.7179 159.661 31.0298 159.216 32.1638C158.793 33.2978 158.237 34.2539 157.548 35.0322C156.881 35.8104 156.114 36.3996 155.247 36.7999C154.402 37.2001 153.49 37.4002 152.512 37.4002ZM153.946 33.3645C154.613 33.3645 155.213 33.22 155.747 32.9309C156.303 32.6419 156.781 32.2528 157.181 31.7636C157.604 31.2522 157.926 30.6852 158.149 30.0626C158.393 29.4177 158.538 28.7618 158.582 28.0947C158.693 26.8718 158.438 25.8823 157.815 25.1263C157.192 24.3703 156.359 23.9923 155.314 23.9923C154.624 23.9923 153.991 24.1368 153.412 24.4259C152.857 24.715 152.367 25.1041 151.945 25.5933C151.522 26.0602 151.178 26.605 150.911 27.2276C150.666 27.8501 150.522 28.5061 150.477 29.1954C150.411 30.3961 150.689 31.3967 151.311 32.1972C151.956 32.9754 152.834 33.3645 153.946 33.3645ZM171.379 37.4002C170.201 37.4002 169.155 37.2335 168.244 36.8999C167.354 36.5442 166.643 36.0772 166.109 35.4991C165.576 34.921 165.242 34.2539 165.109 33.4979L168.944 32.1638C169.144 32.8531 169.511 33.3534 170.045 33.6647C170.579 33.9538 171.123 34.0983 171.679 34.0983C172.146 34.0983 172.591 34.0205 173.013 33.8648C173.436 33.7092 173.78 33.4868 174.047 33.1978C174.314 32.9087 174.448 32.5418 174.448 32.0971C174.448 31.6746 174.27 31.33 173.914 31.0632C173.558 30.7963 173.002 30.5517 172.246 30.3294L170.845 29.9625C169.578 29.629 168.611 29.1064 167.944 28.3949C167.299 27.6611 166.976 26.8051 166.976 25.8267C166.976 24.626 167.299 23.581 167.944 22.6915C168.588 21.8021 169.467 21.124 170.579 20.657C171.713 20.1678 173.024 19.9232 174.514 19.9232C176.293 19.9232 177.638 20.2679 178.55 20.9572C179.484 21.6242 180.095 22.5137 180.384 23.6254L176.649 24.9262C176.515 24.3258 176.226 23.9034 175.782 23.6588C175.337 23.392 174.737 23.2585 173.981 23.2585C173.291 23.2585 172.691 23.4475 172.179 23.8255C171.668 24.1813 171.412 24.626 171.412 25.1597C171.412 25.471 171.59 25.76 171.946 26.0268C172.302 26.2937 172.847 26.5271 173.58 26.7273L174.914 27.0608C176.338 27.4166 177.405 27.9947 178.116 28.7952C178.85 29.5956 179.217 30.5406 179.217 31.6302C179.217 32.8753 178.85 33.9315 178.116 34.7987C177.383 35.6436 176.415 36.2885 175.215 36.7332C174.036 37.1779 172.758 37.4002 171.379 37.4002ZM181.433 37L185.302 13.6529H189.705L185.836 37H181.433ZM192.44 37L193.874 28.4283L198.343 28.0947L196.842 37H192.44ZM193.874 28.4283C194.074 27.3165 194.096 26.4493 193.941 25.8267C193.785 25.1819 193.496 24.7261 193.073 24.4593C192.673 24.1924 192.162 24.059 191.539 24.059C190.383 24.0368 189.438 24.3926 188.704 25.1263C187.97 25.8378 187.492 26.8829 187.27 28.2615L185.802 28.2282C186.091 26.4493 186.592 24.9484 187.303 23.7255C188.037 22.4803 188.926 21.5353 189.972 20.8905C191.017 20.2457 192.162 19.9232 193.407 19.9232C195.453 19.9232 196.909 20.5458 197.776 21.791C198.666 23.0362 198.888 24.9373 198.443 27.4944L198.31 28.4283H193.874Z" fill="#232323"/>
</svg>
