<svg width="32" height="33" viewBox="0 0 32 33" fill="none" xmlns="http://www.w3.org/2000/svg">
<path d="M15.9993 5.87956C21.8807 5.87956 26.666 10.6649 26.666 16.5462C26.666 22.4276 21.8807 27.2129 15.9993 27.2129C10.118 27.2129 5.33268 22.4276 5.33268 16.5462C5.33268 10.6649 10.118 5.87956 15.9993 5.87956ZM15.9993 3.21289C8.63535 3.21289 2.66602 9.18222 2.66602 16.5462C2.66602 23.9102 8.63535 29.8796 15.9993 29.8796C23.3633 29.8796 29.3327 23.9102 29.3327 16.5462C29.3327 9.18222 23.3633 3.21289 15.9993 3.21289ZM21.066 21.0796L17.3327 16.1022V9.87956H14.666V16.9902L18.9327 22.6782L21.066 21.0796Z" fill="#B41E32"/>
</svg>
