<svg width="40" height="41" viewBox="0 0 40 41" fill="none" xmlns="http://www.w3.org/2000/svg">
<g clip-path="url(#clip0_2590_4891)">
<rect y="0.40625" width="40" height="40" rx="20" fill="white"/>
<path d="M9.58077 14.3673C8.27662 15.487 6.47006 15.1923 6.6856 17.3897C6.90115 19.587 13.2544 26.3962 20.1038 27.446C26.7052 28.4602 31.3821 28.4385 31.5542 23.0296C31.7264 17.6207 23.3448 19.4707 20.8156 18.3403C18.2864 17.2098 13.7475 10.7914 9.58077 14.3673Z" fill="#EDBC68"/>
<path d="M17.1841 22.3805C23.1137 24.4478 33.0853 26.6738 33.3308 22.4652C33.5032 19.4845 24.8458 22.1464 18.59 19.6555C12.3342 17.1645 10.6844 11.7683 8.5251 13.0438C6.36578 14.3193 11.1831 20.2886 17.1841 22.3805Z" fill="#BA4E27"/>
<path d="M10.4453 15.5751C10.4453 15.5751 12.0848 14.6085 11.9331 15.3608C11.7813 16.1131 11.0708 18.3392 12.1483 18.2899C13.2258 18.2405 16.6146 16.3937 15.7291 18.091C14.8436 19.7883 15.4489 21.6552 16.1657 20.9969C16.8824 20.3387 18.042 19.0452 18.1782 19.9409C18.3145 20.8366 18.0915 22.5154 19.1706 22.2132C20.2496 21.9111 19.731 20.8381 20.8735 20.9352C22.016 21.0324 21.564 23.1336 22.3412 23.1783C23.1183 23.223 23.4403 21.6028 24.6634 21.629C25.8864 21.6552 25.7842 23.6331 26.9066 23.7363C28.029 23.8396 27.1001 22.1516 28.8898 21.7847" stroke="#F9D12E" stroke-width="3.28412" stroke-miterlimit="10" stroke-linecap="round"/>
</g>
<defs>
<clipPath id="clip0_2590_4891">
<rect y="0.40625" width="40" height="40" rx="20" fill="white"/>
</clipPath>
</defs>
</svg>
