<svg width="116" height="20" viewBox="0 0 116 20" fill="none" xmlns="http://www.w3.org/2000/svg">
<g clip-path="url(#clip0_2604_6509)">
<path d="M9.07088 1.05375C9.41462 0.237291 10.5854 0.237292 10.9291 1.05375L12.9579 5.87264C13.1029 6.21684 13.4306 6.45202 13.8067 6.48181L19.0727 6.89888C19.9649 6.96955 20.3267 8.06954 19.6469 8.64481L15.6348 12.0401C15.3482 12.2826 15.223 12.6632 15.3106 13.0257L16.5363 18.1024C16.744 18.9625 15.7969 19.6424 15.033 19.1815L10.5245 16.461C10.2025 16.2666 9.7975 16.2666 9.47548 16.461L4.96699 19.1815C4.20311 19.6424 3.25596 18.9625 3.46363 18.1024L4.68942 13.0257C4.77698 12.6632 4.65182 12.2826 4.36526 12.0401L0.353062 8.64481C-0.326718 8.06954 0.0350679 6.96955 0.927291 6.89888L6.19336 6.48181C6.5695 6.45202 6.89716 6.21684 7.04207 5.87264L9.07088 1.05375Z" fill="#FFE066"/>
<path d="M33.0709 1.05375C33.4146 0.237291 34.5854 0.237292 34.9291 1.05375L36.9579 5.87264C37.1029 6.21684 37.4306 6.45202 37.8067 6.48181L43.0727 6.89888C43.9649 6.96955 44.3267 8.06954 43.6469 8.64481L39.6348 12.0401C39.3482 12.2826 39.223 12.6632 39.3106 13.0257L40.5363 18.1024C40.744 18.9625 39.7969 19.6424 39.033 19.1815L34.5245 16.461C34.2025 16.2666 33.7975 16.2666 33.4755 16.461L28.967 19.1815C28.2031 19.6424 27.256 18.9625 27.4636 18.1024L28.6894 13.0257C28.777 12.6632 28.6518 12.2826 28.3653 12.0401L24.3531 8.64481C23.6733 8.06954 24.0351 6.96955 24.9273 6.89888L30.1934 6.48181C30.5695 6.45202 30.8972 6.21684 31.0421 5.87264L33.0709 1.05375Z" fill="#FFE066"/>
<path d="M57.0709 1.05375C57.4146 0.237291 58.5854 0.237292 58.9291 1.05375L60.9579 5.87264C61.1029 6.21684 61.4306 6.45202 61.8067 6.48181L67.0727 6.89888C67.9649 6.96955 68.3267 8.06954 67.6469 8.64481L63.6348 12.0401C63.3482 12.2826 63.223 12.6632 63.3106 13.0257L64.5363 18.1024C64.744 18.9625 63.7969 19.6424 63.033 19.1815L58.5245 16.461C58.2025 16.2666 57.7975 16.2666 57.4755 16.461L52.967 19.1815C52.2031 19.6424 51.256 18.9625 51.4636 18.1024L52.6894 13.0257C52.777 12.6632 52.6518 12.2826 52.3653 12.0401L48.3531 8.64481C47.6733 8.06954 48.0351 6.96955 48.9273 6.89888L54.1934 6.48181C54.5695 6.45202 54.8972 6.21684 55.0421 5.87264L57.0709 1.05375Z" fill="#FFE066"/>
<path d="M81.0709 1.05375C81.4146 0.237291 82.5854 0.237292 82.9291 1.05375L84.9579 5.87264C85.1029 6.21684 85.4306 6.45202 85.8067 6.48181L91.0727 6.89888C91.9649 6.96955 92.3267 8.06954 91.6469 8.64481L87.6348 12.0401C87.3482 12.2826 87.223 12.6632 87.3106 13.0257L88.5363 18.1024C88.744 18.9625 87.7969 19.6424 87.033 19.1815L82.5245 16.461C82.2025 16.2666 81.7975 16.2666 81.4755 16.461L76.967 19.1815C76.2031 19.6424 75.256 18.9625 75.4636 18.1024L76.6894 13.0257C76.777 12.6632 76.6518 12.2826 76.3653 12.0401L72.3531 8.64481C71.6733 8.06954 72.0351 6.96955 72.9273 6.89888L78.1934 6.48181C78.5695 6.45202 78.8972 6.21684 79.0421 5.87264L81.0709 1.05375Z" fill="#FFE066"/>
<path d="M105.071 1.05375C105.415 0.237291 106.585 0.237292 106.929 1.05375L108.958 5.87264C109.103 6.21684 109.431 6.45202 109.807 6.48181L115.073 6.89888C115.965 6.96955 116.327 8.06954 115.647 8.64481L111.635 12.0401C111.348 12.2826 111.223 12.6632 111.311 13.0257L112.536 18.1024C112.744 18.9625 111.797 19.6424 111.033 19.1815L106.525 16.461C106.203 16.2666 105.797 16.2666 105.475 16.461L100.967 19.1815C100.203 19.6424 99.256 18.9625 99.4636 18.1024L100.689 13.0257C100.777 12.6632 100.652 12.2826 100.365 12.0401L96.3531 8.64481C95.6733 8.06954 96.0351 6.96955 96.9273 6.89888L102.193 6.48181C102.569 6.45202 102.897 6.21684 103.042 5.87264L105.071 1.05375Z" fill="#FFE066"/>
</g>
<defs>
<clipPath id="clip0_2604_6509">
<rect width="116" height="18.8889" fill="white" transform="translate(0 0.441406)"/>
</clipPath>
</defs>
</svg>
