<svg width="32" height="33" viewBox="0 0 32 33" fill="none" xmlns="http://www.w3.org/2000/svg">
<path fill-rule="evenodd" clip-rule="evenodd" d="M26.3994 14.1196C25.986 9.87958 23.4794 3.21289 15.7327 3.21289C7.98605 3.21289 5.47936 9.87958 5.06605 14.1196C3.61605 14.6699 2.65961 16.062 2.66605 17.6129V19.4796C2.66605 21.5415 4.33755 23.2129 6.39936 23.2129C8.46124 23.2129 10.1327 21.5414 10.1327 19.4796V17.6129C10.126 16.0955 9.20474 14.732 7.79936 14.1596C8.06605 11.7062 9.37274 5.87958 15.7327 5.87958C22.0927 5.87958 23.386 11.7062 23.6527 14.1596C22.2502 14.7332 21.3336 16.0976 21.3327 17.6129V19.4796C21.3356 20.1821 21.5359 20.8696 21.9107 21.4637C22.2856 22.0578 22.8199 22.5346 23.4527 22.8396C22.8927 23.8929 21.466 25.3196 17.9594 25.7462C17.2584 24.6818 15.9022 24.2622 14.7226 24.7448C13.543 25.2273 12.8697 26.4771 13.1157 27.7276C13.3617 28.9781 14.4582 29.8796 15.7327 29.8796C16.2266 29.8768 16.7099 29.737 17.129 29.4757C17.548 29.2144 17.8863 28.8418 18.106 28.3996C23.826 27.7462 25.6527 24.7996 26.226 23.0662C27.7771 22.5638 28.8203 21.1099 28.7994 19.4796V17.6129C28.8058 16.062 27.8494 14.6699 26.3994 14.1196ZM7.46605 19.4796C7.46605 20.0686 6.98849 20.5462 6.39936 20.5462C5.81024 20.5462 5.33274 20.0687 5.33274 19.4796V17.6129C5.33166 17.4721 5.35845 17.3325 5.41157 17.2022C5.4647 17.0718 5.54309 16.9533 5.64225 16.8534C5.7414 16.7534 5.85935 16.6741 5.9893 16.62C6.11925 16.5659 6.25863 16.538 6.39939 16.538C6.54016 16.538 6.67953 16.5659 6.80948 16.62C6.93943 16.6741 7.05738 16.7534 7.15654 16.8534C7.25569 16.9533 7.33409 17.0718 7.38721 17.2022C7.44033 17.3325 7.46713 17.4721 7.46605 17.6129V19.4796ZM23.9994 17.6129C23.9994 17.0238 24.4769 16.5462 25.066 16.5462C25.6552 16.5462 26.1327 17.0238 26.1327 17.6129V19.4796C26.1327 20.0686 25.6552 20.5462 25.066 20.5462C24.4769 20.5462 23.9994 20.0687 23.9994 19.4796V17.6129Z" fill="#B41E32"/>
</svg>
